<?xml version="1.0" encoding="UTF-8" standalone="yes"?>
<!-- Created with sK1/UniConvertor (http://sk1project.org/) -->
<svg xmlns="http://www.w3.org/2000/svg" xmlns:xlink="http://www.w3.org/1999/xlink"
  width="176pt" height="176pt" viewBox="0 0 176 176"
  fill-rule="evenodd">
<g>
<path style="stroke:none; fill:#b61f36" d="M 0 0L 0 51.2C 0 59.9806 -1.24031 69.8302 0.8 78.4C 9.01104 74.2423 8 66.2816 8 58.4C 8 55.7553 7.21496 51.3505 9.28272 49.2827C 12.5551 46.0103 23.6187 48 28 48L 30.4 41.6C 28.4423 41.8472 27.3329 42.2438 25.6 43.2C 25.6 40.0041 26.981 34.4102 23.2 33.6L 24 29.6C 20.4895 28.5854 16.4441 27.4539 12.8 27.2L 12.8 24L 16 24L 16 22.4L 12.8 22.4L 12.8 21.6L 19.2 21.6C 18.192 13.9329 19.2422 7.60121 16.8 0L 0 0z"/>
<path style="stroke:none; fill:#b82c3c" d="M 16.8 0C 18.2819 7.46631 17.5918 14.382 19.2 21.6L 12.8 21.6L 12.8 22.4L 16 22.4L 16 24L 12.8 24L 12.8 27.2L 24 29.6L 23.2 33.6C 26.4263 35.6917 25.6 39.6912 25.6 43.2C 31.4638 40.6877 39.1517 29.5573 44.8 31.2C 44.4283 29.6146 44.2372 29.2755 43.2 28C 45.8673 26.7998 48.2766 25.8485 51.2 25.6L 51.2 22.4C 55.1967 21.8177 57.4123 18.6646 60.9364 16.9389C 64.4459 15.2202 68.3262 14.7642 72 13.6L 71.2 11.2C 73.8627 9.21288 74.7778 7.47588 78.4 7.2L 78.4 8L 75.2 8L 76 12L 79.2 12L 79.2 7.2C 86.2016 7.50063 94.9656 7.72491 100.528 12.5185C 103.112 14.746 103.673 18.4914 106.518 20.3568C 110.502 22.9694 115.558 23.3064 118.686 27.2809C 122.726 32.4141 121.041 42.0126 127.444 45.4882C 133.693 48.8803 146.79 46.4607 153.6 45.6L 153.6 44.8C 152.065 43.1022 151.198 41.3482 150.4 39.2L 147.2 40C 150.314 33.9738 146.568 31.6126 140.8 32L 141.6 25.6C 147.825 21.782 151.416 6.90468 153.6 0L 16.8 0z"/>
<path style="stroke:none; fill:#b61f36" d="M 141.6 25.6L 140.8 32C 146.565 31.9395 149.345 34.2362 147.2 40L 150.4 39.2C 150.958 41.5263 151.668 43.359 153.6 44.8L 153.6 45.6C 144.511 46.3173 135.536 46.4 126.4 46.4L 126.4 48C 137.598 48 149.618 49.2552 160.728 47.8969C 165.866 47.2689 170.742 44.679 176 44L 176 0C 170.631 0 158.534 -2.27856 154.058 0.822235C 146.994 5.71407 148.111 19.567 141.6 25.6M 80.8 46.4L 81.6 46.4C 83.3952 44.3406 84.4648 43.901 87.2 44C 85.8128 42.3973 84.516 42.4616 82.4 42.4C 82.0528 39.654 82.1384 36.2588 80 34.4C 80.4336 32.6642 80.672 32.8788 79.2 32C 79.871 27.8279 78.6834 21.7314 76 18.4L 77.6 17.6L 77.6 16.8L 75.2 13.6L 79.2 12.8L 79.2 12L 76 12L 75.2 8L 78.4 8C 71.5478 5.22571 73.5532 12.931 74.3272 16.8C 76.3074 26.6993 79.3316 36.412 80.8 46.4z"/>
<path style="stroke:none; fill:#de4354" d="M 79.2 7.2C 79.2163 11.9609 81.6928 16.1474 80.8 20.8C 82.9416 24.2657 83.6848 28.8706 84.8 32.8L 81.6 32.8L 81.6 33.6L 85.6 34.4C 85.328 36.0146 85.3416 36.7742 85.6 38.4L 82.4 37.6C 83.7872 39.2027 85.084 39.1384 87.2 39.2L 87.2 40.8L 83.2 40.8L 83.2 41.6C 85.0032 42.1994 85.8512 42.6752 87.2 44L 84 44L 84 44.8C 94.4744 46.1238 104.63 47.2 115.2 47.2L 115.2 46.4C 112.42 44.3623 109.318 42.7403 107.2 40C 109.103 39.9782 109.346 39.9521 110.4 38.4C 107.527 37.5693 106.43 36.4726 105.6 33.6L 102.4 33.6C 103.478 28.7652 101.531 25.1445 102.4 20.8C 95.0392 16.6034 87.9408 7.41142 79.2 7.2z"/>
<path style="stroke:none; fill:#d22c43" d="M 85.6 8C 88.3912 13.1046 96.9864 18.7163 102.4 20.8C 101.964 22.1082 102.108 21.9639 100.8 22.4C 103.071 27.2228 103.087 28.3986 102.4 33.6L 105.6 33.6C 106.109 36.7946 107.206 37.8913 110.4 38.4L 109.6 40.8C 108.417 40.0114 108.638 40 107.2 40C 108.788 43.0661 112.174 44.8668 115.2 46.4L 115.2 47.2L 108.8 47.2L 108.8 48C 114.926 48 122.442 49.2921 128 46.4C 123.322 40.4611 123.318 33.1214 119.222 27.2839C 116.166 22.9299 110.542 22.8198 106.518 19.8858C 104.122 18.1388 103.641 15.1606 101.667 13.0605C 97.556 8.68648 91.2488 8.0468 85.6 8M 71.2 11.2C 71.2 12.6374 71.2114 12.4172 72 13.6C 64.3276 15.491 58.2659 20.5818 51.2 22.4L 51.2 25.6C 48.0962 25.33 45.8594 26.4129 43.2 28L 44.8 31.2C 39.1035 28.4607 33.9994 36.945 32 41.6C 39.9222 43.6496 47.7938 45.5991 56 45.6C 56.655 43.0457 57.1646 41.0298 56.8 38.4C 59.8036 37.7754 62.5314 37.4981 65.6 37.6C 65.2754 35.9261 65.4266 35.9842 64 35.2C 65.8767 32.8873 68.6793 31.9044 70.4 29.6L 71.2 29.6C 71.401 30.7613 71.4522 31.0013 72 32C 72.3123 30.2235 72.2683 28.9968 72 27.2L 74.4 28L 74.4 24.8L 75.2 24.8L 75.2 26.4L 76 26.4C 75.9019 21.7948 75.3822 13.7586 71.2 11.2z"/>
<path style="stroke:none; fill:#b82c3c" d="M 75.2 13.6C 75.9288 14.9954 76.3397 15.9286 77.6 16.8L 76 18.4C 78.2915 22.2905 79.3398 27.5081 79.2 32C 79.8871 33.0826 79.8582 33.0839 80 34.4C 81.7752 36.731 81.8664 39.5394 82.4 42.4L 85.6 42.4L 85.6 41.6L 83.2 41.6L 83.2 40.8L 87.2 40.8L 87.2 39.2C 85.1104 39.0605 84.0456 38.8655 82.4 37.6L 85.6 38.4L 85.6 34.4C 84.1592 33.9506 83.1024 33.7407 81.6 33.6L 81.6 32.8L 84.8 32.8L 84.8 31.2L 80.8 31.2L 80.8 29.6L 84 29.6C 83.488 27.1144 82.9728 21.9398 80.8 20.8C 82.0712 16.1666 80.4512 12.321 75.2 13.6z"/>
<path style="stroke:none; fill:#de4354" d="M 74.4 24.8L 74.4 28C 73.2172 27.2114 73.4374 27.2 72 27.2L 72 32C 71.2114 30.8172 71.2 31.0374 71.2 29.6L 70.4 29.6C 68.0936 31.6466 65.5151 32.3821 64 35.2C 64.9562 36.1782 65.0531 36.336 65.6 37.6C 62.3777 37.2614 59.9043 37.4416 56.8 38.4C 56.8386 41.357 56.3754 43.374 54.4 45.6L 54.4 46.4L 60.8 46.4L 60.8 47.2L 58.4 47.2L 58.4 48L 82.4 48C 79.143 40.6815 79.8472 30.901 74.4 24.8z"/>
<path style="stroke:none; fill:#d22c43" d="M 80.8 29.6L 80.8 31.2L 84 31.2L 84 29.6L 80.8 29.6z"/>
<path style="stroke:none; fill:#de4354" d="M 30.4 41.6L 31.2 47.2L 53.6 47.2C 47.574 43.5194 37.4038 42.1574 30.4 41.6z"/>
<path style="stroke:none; fill:#df2c46" d="M 29.6 42.4L 28 48C 38.7358 48 50.2238 49.1635 60.8 47.2L 60.8 46.4L 51.2 45.6L 51.2 46.4L 53.6 46.4L 53.6 47.2L 31.2 47.2C 30.9162 45.3268 30.5798 44.0106 29.6 42.4z"/>
<path style="stroke:none; fill:#d22c43" d="M 83.2 43.2C 83.7232 45.6431 84.8056 45.5486 87.2 45.6L 87.2 44.8L 84 44.8L 84 44L 85.6 44C 84.6016 43.4522 84.3616 43.401 83.2 43.2z"/>
<path style="stroke:none; fill:#9f0a1f" d="M 82.4 44C 81.3776 50.689 103.71 48 108.8 48L 108.8 47.2C 100.758 47.2 89.6064 48.0088 82.4 44z"/>
<path style="stroke:none; fill:#de4354" d="M 163.2 46.4L 163.2 48L 171.2 48L 171.2 99.2C 176.438 94.2736 176 87.444 176 80.8L 176 44C 171.623 44.3483 167.516 45.7654 163.2 46.4z"/>
<path style="stroke:none; fill:#b82c3c" d="M 89.6 45.6L 89.6 46.4L 93.6 46.4C 92.1848 45.7769 91.1712 45.6701 89.6 45.6z"/>
<path style="stroke:none; fill:#b61f36" d="M 96 46.4L 96 47.2L 100.8 47.2C 99.1584 46.5006 97.8024 46.4378 96 46.4z"/>
<path style="stroke:none; fill:#cc495a" d="M 8 71.2L 8.8 71.2C 10.443 64.2989 9.6 56.6638 9.6 49.6L 25.6 49.6L 25.6 48C 21.647 48 12.4784 46.2912 9.28272 48.8222C 5.63639 51.7102 8 66.7492 8 71.2z"/>
<path style="stroke:none; fill:#e6616e" d="M 25.6 48L 25.6 49.6L 94.4 49.6C 87.6208 46.7286 78.4388 48 71.2 48L 25.6 48z"/>
<path style="stroke:none; fill:#b82c3c" d="M 88 48L 88 48.8L 121.6 49.6C 112.554 45.8038 97.7904 48 88 48z"/>
<path style="stroke:none; fill:#cc495a" d="M 108.8 48L 108.8 48.8L 115.2 48.8C 113.11 47.9218 111.069 48.0058 108.8 48z"/>
<path style="stroke:none; fill:#e6616e" d="M 115.2 48L 115.2 48.8L 161.6 49.6L 161.6 48L 115.2 48z"/>
<path style="stroke:none; fill:#eb7682" d="M 161.6 48L 161.6 49.6L 170.4 49.6L 170.4 105.6L 139.2 105.6C 135.807 105.6 130.376 104.481 128 107.2C 141.313 104.03 157.527 106.4 171.2 106.4L 171.2 48L 161.6 48z"/>
<path style="stroke:none; fill:#9f0a1f" d="M 9.6 49.6L 9.6 68.8L 10.4 68.8C 11.5242 63.0391 10.4 56.3222 10.4 50.4C 15.3422 50.9433 20.5979 50.4 25.6 50.4C 21.0282 48.4816 14.5354 49.6 9.6 49.6z"/>
<path style="stroke:none; fill:#d22c43" d="M 20.8 54.4L 20.8 55.2C 24.4309 55.2429 26.858 55.4381 28 59.2L 24.8 58.4C 27.854 63.5921 28.4789 66.9508 20.8 67.2C 20.329 64.0633 18.5101 61.775 18.4 58.4L 17.6 58.4C 15.4317 61.4186 11.9991 64.6794 10.8105 68.2284C 8.20848 75.9977 10.4 87.8096 10.4 96L 23.2 95.2L 23.2 94.4C 17.1886 93.1464 15.8817 79.059 19.6827 74.658C 23.45 70.296 27.2304 76.7654 28 80L 31.2 80L 33.6 75.2L 35.2 76L 36 72.8C 45.5142 74.0762 42.4 87.2032 42.4 94.4L 37.6 94.4L 37.6 95.2C 42.7587 96.2448 44.7256 100.13 46.4 104.8L 51.2 105.6C 51.9039 99.3544 56.3766 100 61.6 100L 88 100L 88 99.2C 86.7392 97.576 86.9576 96.3344 87.7112 94.388C 89.9632 88.5696 88.4592 80.5968 91.0864 75.4759C 94.136 69.5329 96.7648 77.0217 96.8 80C 101.113 77.0957 101.748 72.3145 108 73.6C 109.062 71.6094 111.385 70.0972 111.899 67.8494C 112.676 64.4551 110.42 61.2464 111.2 57.6C 115.082 57.2324 117.544 55.3654 120.8 58.4C 118.651 57.9994 116.584 57.6939 114.4 57.6L 114.4 64.8C 116.354 64.7124 118.098 64.4576 120 64C 118.205 65.6929 116.855 66.1341 114.4 66.4L 114.4 67.2C 118.77 69.0468 124.106 70.4969 128.8 71.2C 126.574 74.3705 120.496 94.6568 130.958 89.9136C 135.773 87.7304 132.398 79.1382 134.08 75.3334C 136.668 69.4788 139.176 78.6714 139.2 80.8L 141.6 80.8C 141.634 71.2927 146.938 73.446 154.4 73.6L 154.4 72.8L 150.4 72.8L 152.8 66.4C 153.982 67.1885 153.762 67.2 155.2 67.2L 155.2 66.4C 151.056 64.537 148.834 67.6467 144.887 66.8994C 142.505 66.4483 141.724 63.7557 140 62.4L 140.8 66.4C 138.818 65.8446 137.612 65.2778 136 64C 130.886 66.8805 126.671 62.9642 121.6 65.6C 123.18 61.527 124.283 57.3374 128.8 56L 130.4 62.4L 131.2 62.4C 131.427 54.8222 136.278 54.8594 142.4 56.8C 145.782 54.2814 148.831 56.3383 152 58.4L 152.8 58.4C 155.115 56.257 156.956 56.3074 160 56.8C 159.661 54.3599 159.997 52.7266 160.8 50.4L 61.6 49.6L 61.6 50.4L 88 51.2C 86.0288 55.2891 86.388 58.7697 86.4 63.2L 81.6 63.2L 81.6 64L 86.4 64L 86.4 67.2C 83.6272 67.1908 81.4432 67.2998 79.2 65.6C 77.3774 65.7252 76.7219 65.7249 75.2 64.8C 73.9696 64.6548 73.8928 64.6195 72.8 64C 69.2566 66.141 65.8434 66.39 62.4 64L 61.6 64C 58.2458 67.1004 46.8562 67.4194 43.2 64.8L 42.4 64.8C 36.0406 69.3695 28.5002 63.5315 33.6 56.8C 33.4362 54.609 33.2958 52.5482 32.8 50.4L 59.2 50.4C 49.8886 46.4928 28.0226 47.8976 20.8 54.4z"/>
<path style="stroke:none; fill:#de4354" d="M 32.8 50.4L 33.6 55.2C 36.6406 55.2101 38.8958 55.3566 41.6 56.8L 42.4 56.8C 46.8724 55.6306 47.1569 59.5502 47.2 63.2L 48.8 63.2C 48.8913 55.4762 55.0508 55.7692 61.6 56.8L 60 59.2L 63.2 60L 62.4 56.8C 64.529 56.7032 65.1765 56.6807 66.4 58.4L 67.2 58.4C 68.1966 57.0487 69.0487 56.1966 70.4 55.2C 73.3342 59.5482 86.1864 55.5287 88 51.2C 69.5665 50.4086 51.2862 50.4 32.8 50.4z"/>
<path style="stroke:none; fill:#9f0a1f" d="M 104.8 49.6L 104.8 50.4C 110.071 50.5088 123.255 54.4464 126.4 49.6L 104.8 49.6z"/>
<path style="stroke:none; fill:#b61f36" d="M 126.4 51.2C 137.109 48.6505 149.814 50.4 160.8 50.4C 153.923 47.5142 142.658 49.6 135.2 49.6C 132.234 49.6 128.466 48.8362 126.4 51.2z"/>
<path style="stroke:none; fill:#de4354" d="M 160 58.4C 158.374 58.1414 157.614 58.1279 156 58.4C 157.677 60.4143 159.154 61.4524 161.6 62.4L 161.6 64C 158.542 65.202 156.152 66.4695 152.8 66.4C 151.806 68.5224 150.97 70.5263 150.4 72.8C 165.698 74.7495 162.093 89.5904 148 89.6C 147.331 95.532 142.51 95.3576 141.6 89.6L 140.8 89.6C 140.621 90.9472 140.626 91.4512 140.8 92.8C 138.158 94.5104 137.905 97.9176 136.8 100.8L 140 100.8L 140 102.4L 136 102.4L 136 104L 143.2 104L 143.2 104.8L 129.6 104.8L 129.6 105.6L 170.4 105.6C 167.102 87.8384 169.6 67.658 169.6 49.6C 162.579 49.6 158.57 50.3054 160 58.4z"/>
<path style="stroke:none; fill:#cc495a" d="M 169.6 49.6L 169.6 104L 170.4 104L 170.4 66.4C 170.4 61.2638 171.598 54.3609 169.6 49.6z"/>
<path style="stroke:none; fill:#b61f36" d="M 10.4 50.4C 10.4 56.0438 10.1662 61.6314 11.2 67.2L 12 67.2C 13.8486 64.231 16.0381 61.5362 17.6 58.4L 18.4 58.4L 18.4 64L 19.2 64C 19.3498 57.8092 22.0305 55.4782 28 57.6C 26.2617 54.9187 23.815 55.2106 20.8 55.2L 20.8 54.4L 24.8 51.2L 24.8 50.4C 20.0266 50.4 15.155 50.7272 10.4 50.4z"/>
<path style="stroke:none; fill:#b82c3c" d="M 32.8 55.2L 32.8 56C 41.7615 56.0811 44.408 65.8517 34.4 66.4L 34.4 67.2C 37.691 67.1884 40.0262 67.2241 42.4 64.8L 43.2 64.8C 46.2482 67.9122 53.181 67.995 52.8 62.4C 49.065 66.2142 47.2115 65.6941 42.4 64C 43.1317 60.937 42.8146 57.8054 45.6 56L 45.6 55.2C 44.0382 55.6086 43.6345 55.7866 42.4 56.8C 39.2376 55.1123 36.3303 55.2004 32.8 55.2z"/>
<path style="stroke:none; fill:#b61f36" d="M 69.3334 55.4666C 68.9778 55.8222 69.8222 55.7778 69.8666 55.7334C 70.2222 55.3778 69.3778 55.4222 69.3334 55.4666M 79.2 55.2L 79.2 56L 85.6 56C 83.5096 55.1218 81.468 55.2058 79.2 55.2z"/>
<path style="stroke:none; fill:#b82c3c" d="M 93.6 55.2L 93.6 56L 96 56.8C 95.216 55.3734 95.2736 55.5246 93.6 55.2z"/>
<path style="stroke:none; fill:#b61f36" d="M 132.8 55.2L 132.8 56C 139.292 56.157 139.607 58.288 139.2 64C 141.643 61.6758 141.589 59.2394 141.6 56C 138.64 55.4504 135.81 55.2083 132.8 55.2z"/>
<path style="stroke:none; fill:#9f0a1f" d="M 142.4 55.2L 142.4 56L 148 56C 146.134 55.2124 144.434 55.215 142.4 55.2z"/>
<path style="stroke:none; fill:#fbb0b9" d="M 21.6 56L 21.6 56.8L 25.6 56.8C 24.1848 56.1769 23.1713 56.0701 21.6 56z"/>
<path style="stroke:none; fill:#ee929c" d="M 33.6 56L 33.6 56.8L 39.2 56.8C 37.3347 56.0124 35.6346 56.015 33.6 56z"/>
<path style="stroke:none; fill:#fbb0b9" d="M 43.2 56L 43.2 63.2L 44 63.2L 44 56.8L 44.8 56.8L 44.8 63.2L 45.6 63.2L 45.6 56L 43.2 56z"/>
<path style="stroke:none; fill:#cc495a" d="M 45.6 56L 45.6 63.2L 46.4 63.2C 46.3986 60.6993 46.5703 58.3118 45.6 56z"/>
<path style="stroke:none; fill:#ee929c" d="M 49.6 56L 49.6 63.2L 50.4 63.2C 50.428 60.6462 50.4466 58.8479 52 56.8C 51.0013 56.2522 50.7613 56.201 49.6 56z"/>
<path style="stroke:none; fill:#cc495a" d="M 52 56L 52 62.4L 52.8 62.4C 52.7942 60.1316 52.8782 58.0902 52 56z"/>
<path style="stroke:none; fill:#ee929c" d="M 56 56L 56.8 56.8L 56 56z"/>
<path style="stroke:none; fill:#f8cfd4" d="M 56.8 56L 56.8 56.8L 60 56.8C 58.7951 56.2536 58.1482 56.1393 56.8 56z"/>
<path style="stroke:none; fill:#ee929c" d="M 64 56L 64 56.8L 66.4 56.8C 65.4014 56.2522 65.1612 56.201 64 56M 69.3334 56.2666C 68.9778 56.6222 69.8222 56.5778 69.8666 56.5334C 70.2222 56.1778 69.3778 56.2222 69.3334 56.2666z"/>
<path style="stroke:none; fill:#eb7682" d="M 74.4 56C 74.3124 57.9536 74.0576 59.6983 73.6 61.6C 75.1291 60.3002 75.5462 58.3946 76.8 56.8C 75.8014 56.2522 75.5612 56.201 74.4 56z"/>
<path style="stroke:none; fill:#cc495a" d="M 78.4 56L 78.4 65.6L 79.2 65.6C 79.2 62.4134 79.6412 58.958 78.4 56z"/>
<path style="stroke:none; fill:#d98f95" d="M 79.2 56L 79.2 56.8L 86.4 56.8C 84.088 55.8297 81.7008 56.0014 79.2 56z"/>
<path style="stroke:none; fill:#f8cfd4" d="M 90.4 56L 90.4 56.8L 94.4 56.8C 92.9848 56.1769 91.9712 56.0701 90.4 56z"/>
<path style="stroke:none; fill:#c96e79" d="M 94.4 56L 95.2 56.8L 94.4 56z"/>
<path style="stroke:none; fill:#d98f95" d="M 100 56L 100.8 56.8L 100 56z"/>
<path style="stroke:none; fill:#fff7f8" d="M 99.2 60.8L 104.8 62.4L 104.8 64C 102.42 64.2781 100.696 63.8714 98.4 63.2C 101.127 67.4058 105.257 65.202 105.6 60.8L 100 60C 101.878 58.1846 103.008 58.0992 105.6 58.4C 102.437 55.2074 99.5472 56.4434 99.2 60.8z"/>
<path style="stroke:none; fill:#eb7682" d="M 104 56L 104.8 56.8L 104 56z"/>
<path style="stroke:none; fill:#ee929c" d="M 114.4 56L 114.4 56.8C 116.261 57.5043 118.051 57.9942 120 58.4C 118.509 56.285 116.936 56.1382 114.4 56z"/>
<path style="stroke:none; fill:#e6616e" d="M 118.4 56L 119.2 56.8L 118.4 56z"/>
<path style="stroke:none; fill:#cc495a" d="M 126.134 56.2666C 125.778 56.6222 126.622 56.5778 126.666 56.5334C 127.022 56.1778 126.178 56.2222 126.134 56.2666z"/>
<path style="stroke:none; fill:#b61f36" d="M 127.2 56C 128.026 59.4742 129.408 62.5186 131.2 65.6L 132 65.6L 132 56.8L 131.2 56.8L 131.2 62.4L 130.4 62.4C 129.941 59.7494 129.403 57.622 127.2 56z"/>
<path style="stroke:none; fill:#fbb0b9" d="M 132.8 56L 132.8 65.6L 133.6 65.6L 134.4 62.4C 136.258 63.5815 137.99 64.7153 140 65.6C 138.703 59.665 140.526 56.0913 132.8 56z"/>
<path style="stroke:none; fill:#ee929c" d="M 142.4 56L 142.4 56.8C 144.186 57.0902 145.414 57.0902 147.2 56.8C 145.558 56.1006 144.202 56.0378 142.4 56z"/>
<path style="stroke:none; fill:#c96e79" d="M 147.2 56L 148 56.8L 147.2 56z"/>
<path style="stroke:none; fill:#b61f36" d="M 148 56C 151.447 61.9026 149.606 66.1662 142.4 66.4L 142.4 67.2C 146.486 67.1856 149.755 66.9643 152 63.2L 155.2 64L 155.2 61.6C 152.76 59.5426 150.987 57.2338 148 56z"/>
<path style="stroke:none; fill:#ee929c" d="M 153.6 58.4L 158.4 56.8C 156.096 55.9216 154.92 56.3564 153.6 58.4z"/>
<path style="stroke:none; fill:#e6616e" d="M 20 56.8L 20.8 57.6L 20 56.8z"/>
<path style="stroke:none; fill:#fff7f8" d="M 21.6 60C 23.2835 58.4461 24.095 58.3 26.4 58.4C 22.5808 54.0347 17.5011 60.6018 21.2827 64.3142C 25.0108 67.974 29.8477 60.6292 21.6 60z"/>
<path style="stroke:none; fill:#c96e79" d="M 26.4 56.8L 27.2 57.6L 26.4 56.8z"/>
<path style="stroke:none; fill:#b61f36" d="M 32 56.8L 32 65.6L 32.8 65.6C 32.8 62.6398 33.1522 59.5459 32 56.8z"/>
<path style="stroke:none; fill:#e6616e" d="M 32.8 56.8L 32.8 65.6L 33.6 65.6C 33.6 62.6398 33.9522 59.5459 32.8 56.8z"/>
<path style="stroke:none; fill:#fff7f8" d="M 33.6 56.8L 33.6 65.6C 42.7299 65.5678 42.7112 56.8322 33.6 56.8z"/>
<path style="stroke:none; fill:#eb7682" d="M 40 56.8L 40.8 57.6L 40 56.8z"/>
<path style="stroke:none; fill:#fff7f8" d="M 44 56.8C 44.0079 67.1023 51.1989 67.2637 51.2 56.8L 50.4 56.8C 50.2879 66.2909 46.5145 62.7216 44 56.8z"/>
<path style="stroke:none; fill:#b82c3c" d="M 46.4 56.8L 46.4 64C 49.9093 62.8353 49.5882 60.1203 49.6 56.8L 48.8 56.8L 48.8 63.2L 47.2 63.2C 47.1942 60.9316 47.2782 58.8902 46.4 56.8z"/>
<path style="stroke:none; fill:#f8cfd4" d="M 51.2 56.8L 51.2 63.2L 52 63.2C 51.9942 60.9316 52.0782 58.8902 51.2 56.8z"/>
<path style="stroke:none; fill:#b61f36" d="M 52.8 56.8C 52.9344 58.722 52.9575 59.5682 54.4 60.8L 54.4 56.8L 52.8 56.8z"/>
<path style="stroke:none; fill:#fff7f8" d="M 60.8 62.4L 60.8 64C 58.6137 64.2344 56.5901 64.1838 54.4 64L 54.4 64.8C 62.7402 67.2377 60.8536 62.0924 56 58.4C 57.6967 58.2028 59.0994 58.2156 60.8 58.4C 57.2898 54.3878 52.2117 60.0684 60.8 62.4z"/>
<path style="stroke:none; fill:#fbb0b9" d="M 61.0666 57.3334C 61.0222 57.3778 60.9778 58.2222 61.3334 57.8666C 61.3778 57.8222 61.4222 56.9778 61.0666 57.3334z"/>
<path style="stroke:none; fill:#b82c3c" d="M 62.4 56.8L 63.2 62.4L 64 62.4C 63.9746 60.1 64.1662 58.3404 62.4 56.8z"/>
<path style="stroke:none; fill:#fbb0b9" d="M 64 56.8L 64 65.6L 64.8 65.6C 64.8 62.6398 65.1522 59.5459 64 56.8z"/>
<path style="stroke:none; fill:#fff7f8" d="M 64.8 56.8L 64.8 65.6L 65.6 65.6C 65.6 62.6398 65.9522 59.5459 64.8 56.8z"/>
<path style="stroke:none; fill:#fbb0b9" d="M 65.6 56.8L 65.6 65.6L 66.4 65.6C 66.4 62.6398 66.7522 59.5459 65.6 56.8z"/>
<path style="stroke:none; fill:#9f0a1f" d="M 67.2 56.8L 67.2 65.6L 68 65.6C 68 62.6398 68.3522 59.5459 67.2 56.8z"/>
<path style="stroke:none; fill:#cc495a" d="M 68 56.8L 68 65.6L 68.8 65.6C 68.8 62.6398 69.1522 59.5459 68 56.8z"/>
<path style="stroke:none; fill:#f8cfd4" d="M 68.8 56.8L 68.8 65.6L 69.6 65.6C 69.6 62.6398 69.9522 59.5459 68.8 56.8z"/>
<path style="stroke:none; fill:#fff7f8" d="M 69.6 56.8L 69.6 65.6L 70.4 65.6L 70.4 60C 72.2999 61.7078 73.7476 63.5763 76 64.8L 76 56.8L 75.2 56.8L 75.2 61.6L 69.6 56.8z"/>
<path style="stroke:none; fill:#fbb0b9" d="M 70.4 56.8L 71.2 57.6L 70.4 56.8z"/>
<path style="stroke:none; fill:#b82c3c" d="M 72 57.6L 73.6 60.8L 74.4 60.8L 74.4 56.8L 72 57.6z"/>
<path style="stroke:none; fill:#f8cfd4" d="M 76 56.8C 75.998 59.8286 75.9036 62.6448 75.2 65.6C 77.5384 63.5566 77.1372 59.5102 76 56.8z"/>
<path style="stroke:none; fill:#cc495a" d="M 76.8 56.8L 76.8 66.4L 77.6 66.4C 77.6 63.2134 78.0412 59.758 76.8 56.8z"/>
<path style="stroke:none; fill:#b61f36" d="M 77.6 56.8L 77.6 65.6L 78.4 65.6C 78.4 62.6398 78.7522 59.5459 77.6 56.8z"/>
<path style="stroke:none; fill:#f8cfd4" d="M 79.2 56.8L 79.2 65.6L 80 65.6C 80 62.6398 80.352 59.5459 79.2 56.8z"/>
<path style="stroke:none; fill:#fff7f8" d="M 80 56.8L 80 65.6L 85.6 65.6L 85.6 64.8C 83.0344 64.4025 82.0448 63.8797 80.8 61.6L 85.6 61.6L 85.6 60.8L 80.8 60L 80.8 58.4C 82.7016 57.9424 84.4464 57.6876 86.4 57.6C 84.3096 56.7218 82.268 56.8058 80 56.8z"/>
<path style="stroke:none; fill:#e6616e" d="M 88.8 56.8L 89.6 57.6L 88.8 56.8z"/>
<path style="stroke:none; fill:#fff7f8" d="M 91.2 60.8L 90.4 58.4C 92.1856 58.1098 93.4144 58.1098 95.2 58.4C 92.6952 55.5373 87.0424 58.0489 91.2 60.8z"/>
<path style="stroke:none; fill:#f8cfd4" d="M 95.4664 57.3334C 95.4224 57.3778 95.3776 58.2222 95.7336 57.8666C 95.7776 57.8222 95.8224 56.9778 95.4664 57.3334z"/>
<path style="stroke:none; fill:#b82c3c" d="M 97.6 56.8L 95.2 60L 95.2 60.8C 97.4448 66.5738 91.056 66.6503 88 63.2L 87.2 63.2C 89.0192 69.0135 93.968 67.4027 98.4 65.6C 97.6112 66.7828 97.6 66.5626 97.6 68C 100.174 67.7051 103.266 68.2106 105.481 66.6031C 110.735 62.7903 104.798 58.8457 100.8 58.4L 100.8 59.2L 103.278 60.1482C 110.594 65.4764 96.5304 67.9337 100 61.6L 100 60.8C 98.9584 59.5341 98.3736 58.2467 97.6 56.8z"/>
<path style="stroke:none; fill:#fbb0b9" d="M 104.8 56.8L 105.6 57.6L 104.8 56.8z"/>
<path style="stroke:none; fill:#e6616e" d="M 105.866 57.3334C 105.822 57.3778 105.778 58.2222 106.134 57.8666C 106.178 57.8222 106.222 56.9778 105.866 57.3334z"/>
<path style="stroke:none; fill:#fbb0b9" d="M 116 65.6L 116 64.8C 113.007 62.1197 113.415 60.1925 115.2 56.8C 110.961 59.1375 111.295 64.1717 116 65.6z"/>
<path style="stroke:none; fill:#cc495a" d="M 120.266 57.3334C 120.222 57.3778 120.178 58.2222 120.534 57.8666C 120.578 57.8222 120.622 56.9778 120.266 57.3334z"/>
<path style="stroke:none; fill:#eb7682" d="M 124.8 56.8L 125.6 57.6L 124.8 56.8z"/>
<path style="stroke:none; fill:#fbb0b9" d="M 125.6 56.8L 123.2 61.6C 124.692 60.677 125.362 59.8529 126.4 58.4C 127.358 60.8681 128.355 63.2645 129.6 65.6L 130.4 65.6C 129.666 62.5124 128.4 59.7266 127.2 56.8L 125.6 56.8z"/>
<path style="stroke:none; fill:#e6616e" d="M 132 56.8L 132 65.6L 132.8 65.6C 132.8 62.6398 133.152 59.5459 132 56.8z"/>
<path style="stroke:none; fill:#cc495a" d="M 139.2 56.8L 140 57.6L 139.2 56.8z"/>
<path style="stroke:none; fill:#de4354" d="M 141.6 56.8L 141.6 65.6L 142.4 65.6C 142.4 62.6398 142.752 59.5459 141.6 56.8z"/>
<path style="stroke:none; fill:#fbb0b9" d="M 142.4 56.8L 142.4 65.6C 148.983 65.5767 154.281 58.1844 145.6 56.8L 145.6 57.6C 150.82 60.3677 148.17 64.4218 143.2 64.8C 143.208 62.0358 143.358 59.4943 144 56.8L 142.4 56.8z"/>
<path style="stroke:none; fill:#e6616e" d="M 152.8 56.8L 153.6 57.6L 152.8 56.8z"/>
<path style="stroke:none; fill:#eb7682" d="M 155.734 57.0666C 155.378 57.4222 156.222 57.3778 156.266 57.3334C 156.622 56.9778 155.778 57.0222 155.734 57.0666z"/>
<path style="stroke:none; fill:#fbb0b9" d="M 158.134 57.0666C 157.778 57.4222 158.622 57.3778 158.666 57.3334C 159.022 56.9778 158.178 57.0222 158.134 57.0666z"/>
<path style="stroke:none; fill:#eb7682" d="M 159.2 56.8L 158.4 58.4L 160 58.4C 160 56.9174 160.24 57.3198 159.2 56.8M 22.4 57.6L 22.4 58.4L 24.8 58.4C 23.8013 57.8522 23.5613 57.801 22.4 57.6z"/>
<path style="stroke:none; fill:#fbb0b9" d="M 26.4 57.6L 25.6 59.2L 27.2 59.2C 27.2 57.7174 27.4398 58.1199 26.4 57.6z"/>
<path style="stroke:none; fill:#e6616e" d="M 27.4666 58.1334C 27.4222 58.1778 27.3778 59.0222 27.7334 58.6666C 27.7778 58.6222 27.8222 57.7778 27.4666 58.1334z"/>
<path style="stroke:none; fill:#fbb0b9" d="M 35.2 57.6L 35.2 58.4L 38.4 58.4C 37.1952 57.8536 36.5482 57.7393 35.2 57.6z"/>
<path style="stroke:none; fill:#e6616e" d="M 56.8 57.6L 56.8 58.4L 59.2 58.4C 58.2014 57.8522 57.9612 57.801 56.8 57.6z"/>
<path style="stroke:none; fill:#ee929c" d="M 71.2 57.6L 72 58.4L 71.2 57.6z"/>
<path style="stroke:none; fill:#fbb0b9" d="M 81.6 57.6L 81.6 58.4L 86.4 58.4C 84.7584 57.7006 83.4024 57.6378 81.6 57.6z"/>
<path style="stroke:none; fill:#e6616e" d="M 91.2 57.6L 91.2 58.4L 93.6 58.4C 92.6016 57.8522 92.3616 57.801 91.2 57.6z"/>
<path style="stroke:none; fill:#fbb0b9" d="M 93.6 57.6L 94.4 58.4L 93.6 57.6M 98.4 57.6L 98.4 60L 99.2 60C 98.9992 58.8388 98.948 58.5986 98.4 57.6z"/>
<path style="stroke:none; fill:#e6616e" d="M 100.8 57.6L 100.8 58.4L 103.2 58.4C 102.202 57.8522 101.962 57.801 100.8 57.6z"/>
<path style="stroke:none; fill:#ee929c" d="M 103.2 57.6L 104 58.4L 103.2 57.6z"/>
<path style="stroke:none; fill:#b61f36" d="M 111.2 57.6C 110.085 61.4921 110.68 64.4476 114.4 66.4C 112.467 63.3139 112.063 60.9595 111.2 57.6z"/>
<path style="stroke:none; fill:#cc495a" d="M 127.2 57.6L 128 58.4L 127.2 57.6z"/>
<path style="stroke:none; fill:#e6616e" d="M 133.6 57.6L 133.6 60.8L 134.4 60.8C 134.261 59.4518 134.146 58.8048 133.6 57.6z"/>
<path style="stroke:none; fill:#9f0a1f" d="M 134.666 58.1334C 134.622 58.1778 134.578 59.0222 134.934 58.6666C 134.978 58.6222 135.022 57.7778 134.666 58.1334z"/>
<path style="stroke:none; fill:#d22c43" d="M 134.4 60C 136.516 59.6587 137.169 59.3433 138.4 57.6C 136.284 57.9413 135.631 58.2568 134.4 60z"/>
<path style="stroke:none; fill:#c96e79" d="M 143.2 57.6L 143.2 64.8L 144 64.8C 143.998 62.2993 144.17 59.9118 143.2 57.6z"/>
<path style="stroke:none; fill:#b61f36" d="M 144 57.6L 144 64.8L 148 64L 148 63.2L 144.8 63.2L 144.8 59.2C 146.362 59.6086 146.766 59.7866 148 60.8C 148.062 58.3128 146.238 57.95 144 57.6z"/>
<path style="stroke:none; fill:#e6616e" d="M 147.2 57.6L 148 58.4L 147.2 57.6z"/>
<path style="stroke:none; fill:#fbb0b9" d="M 152.8 57.6C 153.825 60.9857 155.89 61.6754 159.2 62.4L 157.6 65.6C 162.469 62.453 155.335 59.7026 152.8 57.6z"/>
<path style="stroke:none; fill:#b61f36" d="M 153.6 58.4L 153.6 59.2L 156.8 60L 156.8 57.6L 153.6 58.4z"/>
<path style="stroke:none; fill:#d98f95" d="M 19.2 58.4L 19.2 64L 20 64C 19.985 61.9654 19.9876 60.2652 19.2 58.4z"/>
<path style="stroke:none; fill:#9c3442" d="M 21.6 58.4L 21.6 60L 23.2 60C 22.7639 58.6918 22.9082 58.8361 21.6 58.4z"/>
<path style="stroke:none; fill:#9f0a1f" d="M 22.4 58.4L 22.4 59.2L 24.8 59.2C 23.8013 58.6522 23.5613 58.601 22.4 58.4z"/>
<path style="stroke:none; fill:#cc495a" d="M 35.4666 58.9334C 35.4222 58.9778 35.3778 59.8222 35.7334 59.4666C 35.7778 59.4222 35.8222 58.5778 35.4666 58.9334z"/>
<path style="stroke:none; fill:#9c3442" d="M 36 58.4L 36 60L 38.4 60L 38.4 58.4L 36 58.4z"/>
<path style="stroke:none; fill:#c96e79" d="M 38.6666 58.9334C 38.6222 58.9778 38.5778 59.8222 38.9334 59.4666C 38.9778 59.4222 39.0222 58.5778 38.6666 58.9334z"/>
<path style="stroke:none; fill:#ee929c" d="M 41.0666 58.9334C 41.0222 58.9778 40.9778 59.8222 41.3334 59.4666C 41.3778 59.4222 41.4222 58.5778 41.0666 58.9334z"/>
<path style="stroke:none; fill:#de4354" d="M 53.8666 58.9334C 53.8222 58.9778 53.7778 59.8222 54.1334 59.4666C 54.1778 59.4222 54.2222 58.5778 53.8666 58.9334z"/>
<path style="stroke:none; fill:#c96e79" d="M 56 58.4L 56.8 59.2L 56 58.4z"/>
<path style="stroke:none; fill:#b61f36" d="M 56.8 58.4L 56.8 59.2C 60.0516 60.4742 61.3814 62.831 64 64.8C 63.2838 60.3966 61.1678 58.8518 56.8 58.4z"/>
<path style="stroke:none; fill:#cc495a" d="M 66.4 58.4L 66.4 65.6L 67.2 65.6C 67.1986 63.0993 67.3703 60.7118 66.4 58.4z"/>
<path style="stroke:none; fill:#eb7682" d="M 72 58.4L 72.8 59.2L 72 58.4z"/>
<path style="stroke:none; fill:#c96e79" d="M 81.0664 58.9334C 81.0224 58.9778 80.9776 59.8222 81.3336 59.4666C 81.3776 59.4222 81.4224 58.5778 81.0664 58.9334z"/>
<path style="stroke:none; fill:#9c3442" d="M 81.6 58.4L 81.6 60L 86.4 60L 86.4 58.4L 81.6 58.4z"/>
<path style="stroke:none; fill:#c96e79" d="M 90.4 58.4L 91.2 59.2L 90.4 58.4z"/>
<path style="stroke:none; fill:#b61f36" d="M 91.2 58.4L 91.2 59.2L 96 60C 94.3664 58.8672 93.1912 58.6039 91.2 58.4z"/>
<path style="stroke:none; fill:#c96e79" d="M 94.9336 58.6666C 94.5776 59.0222 95.4224 58.9778 95.4664 58.9334C 95.8224 58.5778 94.9776 58.6222 94.9336 58.6666z"/>
<path style="stroke:none; fill:#f8cfd4" d="M 100.266 58.9334C 100.222 58.9778 100.178 59.8222 100.534 59.4666C 100.578 59.4222 100.622 58.5778 100.266 58.9334z"/>
<path style="stroke:none; fill:#c96e79" d="M 104.534 58.6666C 104.178 59.0222 105.022 58.9778 105.066 58.9334C 105.422 58.5778 104.578 58.6222 104.534 58.6666z"/>
<path style="stroke:none; fill:#cc495a" d="M 113.6 58.4L 114.4 59.2L 113.6 58.4z"/>
<path style="stroke:none; fill:#eb7682" d="M 124 58.4L 124.8 59.2L 124 58.4z"/>
<path style="stroke:none; fill:#b61f36" d="M 125.6 58.4L 124.8 62.4L 125.6 62.4C 126.181 60.6566 125.951 60.9758 127.2 61.6C 126.749 60.1984 126.465 59.5664 125.6 58.4z"/>
<path style="stroke:none; fill:#9f0a1f" d="M 137.6 58.4C 136.366 59.4133 135.962 59.5914 134.4 60L 134.4 60.8C 136.36 60.7036 138.476 60.7241 137.6 58.4z"/>
<path style="stroke:none; fill:#b82c3c" d="M 138.666 58.9334C 138.622 58.9778 138.578 59.8222 138.934 59.4666C 138.978 59.4222 139.022 58.5778 138.666 58.9334z"/>
<path style="stroke:none; fill:#ee929c" d="M 140 58.4L 140 60.8L 140.8 60.8C 140.599 59.6387 140.548 59.3987 140 58.4z"/>
<path style="stroke:none; fill:#cc495a" d="M 148 58.4L 148.8 59.2L 148 58.4z"/>
<path style="stroke:none; fill:#e6616e" d="M 152.266 58.9334C 152.222 58.9778 152.178 59.8222 152.534 59.4666C 152.578 59.4222 152.622 58.5778 152.266 58.9334z"/>
<path style="stroke:none; fill:#c96e79" d="M 23.7334 59.4666C 23.3778 59.8222 24.2222 59.7778 24.2666 59.7334C 24.6222 59.3778 23.7778 59.4222 23.7334 59.4666z"/>
<path style="stroke:none; fill:#cc495a" d="M 56.8 59.2L 56.8 60L 59.2 60C 58.2014 59.4522 57.9612 59.401 56.8 59.2M 72.8 59.2L 73.6 60L 72.8 59.2z"/>
<path style="stroke:none; fill:#fbb0b9" d="M 90.4 59.2L 91.2 60L 90.4 59.2z"/>
<path style="stroke:none; fill:#cc495a" d="M 91.2 59.2L 91.2 60L 93.6 60C 92.6016 59.4522 92.3616 59.401 91.2 59.2M 100.8 59.2L 100.8 60L 103.2 60C 102.202 59.4522 101.962 59.401 100.8 59.2z"/>
<path style="stroke:none; fill:#e6616e" d="M 111.2 59.2L 111.2 63.2L 112 63.2C 111.93 61.6287 111.823 60.6153 111.2 59.2z"/>
<path style="stroke:none; fill:#c96e79" d="M 112.8 59.2L 112.8 62.4L 113.6 62.4C 113.461 61.0518 113.346 60.4048 112.8 59.2z"/>
<path style="stroke:none; fill:#9f0a1f" d="M 113.6 59.2L 113.6 63.2L 114.4 63.2C 114.33 61.6287 114.223 60.6153 113.6 59.2z"/>
<path style="stroke:none; fill:#c96e79" d="M 126.4 59.2L 127.2 60L 126.4 59.2z"/>
<path style="stroke:none; fill:#d22c43" d="M 144.8 59.2L 144.8 63.2C 148.577 62.5407 148.577 59.8593 144.8 59.2z"/>
<path style="stroke:none; fill:#ee929c" d="M 25.6 60L 26.4 60.8L 25.6 60z"/>
<path style="stroke:none; fill:#fbb0b9" d="M 35.2 60L 35.2 60.8L 39.2 60.8C 37.7848 60.1769 36.7713 60.0701 35.2 60z"/>
<path style="stroke:none; fill:#ee929c" d="M 40.2666 60.5334C 40.2222 60.5778 40.1778 61.4222 40.5334 61.0666C 40.5778 61.0222 40.6222 60.1778 40.2666 60.5334M 54.4 60L 55.2 60.8L 54.4 60z"/>
<path style="stroke:none; fill:#fbb0b9" d="M 57.6 60L 57.6 60.8L 60 60.8C 59.0014 60.2522 58.7612 60.201 57.6 60M 70.9334 60.2666C 70.5778 60.6222 71.4222 60.5778 71.4666 60.5334C 71.8222 60.1778 70.9778 60.2222 70.9334 60.2666z"/>
<path style="stroke:none; fill:#ee929c" d="M 81.6 60L 81.6 60.8L 85.6 60.8L 85.6 61.6L 82.4 61.6L 82.4 62.4L 86.4 62.4L 86.4 60L 81.6 60M 88.8 60L 89.6 60.8L 88.8 60z"/>
<path style="stroke:none; fill:#f8cfd4" d="M 91.2 61.6L 94.4 60.8C 92.7632 60.1991 92.3232 60.2755 91.2 61.6z"/>
<path style="stroke:none; fill:#e6616e" d="M 94.4 60L 95.2 60.8L 94.4 60M 98.4 60L 99.2 60.8L 98.4 60z"/>
<path style="stroke:none; fill:#fbb0b9" d="M 102.4 60L 102.4 60.8L 104.8 60.8C 103.802 60.2522 103.562 60.201 102.4 60z"/>
<path style="stroke:none; fill:#c96e79" d="M 123.2 60L 124 60.8L 123.2 60z"/>
<path style="stroke:none; fill:#eb7682" d="M 138.4 60L 139.2 60.8L 138.4 60z"/>
<path style="stroke:none; fill:#cc495a" d="M 148.8 60L 148.8 62.4L 149.6 62.4C 149.399 61.2386 149.348 60.9987 148.8 60z"/>
<path style="stroke:none; fill:#e6616e" d="M 150.4 60L 150.4 62.4L 151.2 62.4C 150.999 61.2387 150.948 60.9987 150.4 60z"/>
<path style="stroke:none; fill:#eb7682" d="M 152.8 60L 153.6 60.8L 152.8 60M 155.2 60L 155.2 60.8L 157.6 60.8C 156.602 60.2522 156.362 60.201 155.2 60z"/>
<path style="stroke:none; fill:#fbb0b9" d="M 23.7334 61.0666C 23.3778 61.4222 24.2222 61.3778 24.2666 61.3334C 24.6222 60.9778 23.7778 61.0222 23.7334 61.0666M 26.4 60.8L 27.2 61.6L 26.4 60.8z"/>
<path style="stroke:none; fill:#de4354" d="M 52.8 60.8C 53.2624 62.958 53.8092 63.0314 56 63.2L 56 62.4C 54.2566 61.8189 54.5758 62.0484 55.2 60.8L 52.8 60.8z"/>
<path style="stroke:none; fill:#eb7682" d="M 55.2 60.8L 56 61.6L 55.2 60.8z"/>
<path style="stroke:none; fill:#ee929c" d="M 60.8 60.8L 61.6 61.6L 60.8 60.8z"/>
<path style="stroke:none; fill:#cc495a" d="M 70.9334 61.0666C 70.5778 61.4222 71.4222 61.3778 71.4666 61.3334C 71.8222 60.9778 70.9778 61.0222 70.9334 61.0666z"/>
<path style="stroke:none; fill:#fbb0b9" d="M 90.1336 61.0666C 89.7776 61.4222 90.6224 61.3778 90.6664 61.3334C 91.0224 60.9778 90.1776 61.0222 90.1336 61.0666z"/>
<path style="stroke:none; fill:#fff7f8" d="M 92 60.8L 92 61.6L 95.2 62.4L 95.2 64C 93.0136 64.2344 90.9904 64.1838 88.8 64C 93.5624 67.6036 98.4992 61.8847 92 60.8z"/>
<path style="stroke:none; fill:#fbb0b9" d="M 95.2 60.8L 96 61.6L 95.2 60.8z"/>
<path style="stroke:none; fill:#f8cfd4" d="M 100.534 61.0666C 100.178 61.4222 101.022 61.3778 101.066 61.3334C 101.422 60.9778 100.578 61.0222 100.534 61.0666z"/>
<path style="stroke:none; fill:#b82c3c" d="M 125.6 60.8C 126.384 62.2266 126.326 62.0754 128 62.4L 128 61.6L 125.6 60.8z"/>
<path style="stroke:none; fill:#eb7682" d="M 127.2 60.8L 128 61.6L 127.2 60.8z"/>
<path style="stroke:none; fill:#c96e79" d="M 134.4 60.8L 134.4 61.6L 137.6 61.6C 136.395 61.0536 135.748 60.9393 134.4 60.8z"/>
<path style="stroke:none; fill:#eb7682" d="M 158.4 60.8L 159.2 61.6L 158.4 60.8z"/>
<path style="stroke:none; fill:#d98f95" d="M 21.6 61.6L 22.4 62.4L 21.6 61.6z"/>
<path style="stroke:none; fill:#b82c3c" d="M 22.4 61.6L 22.4 64L 25.6 63.2C 24.3656 62.1866 23.9618 62.0086 22.4 61.6z"/>
<path style="stroke:none; fill:#d98f95" d="M 24.8 61.6L 25.6 62.4L 24.8 61.6z"/>
<path style="stroke:none; fill:#ee929c" d="M 27.2 61.6L 27.2 64L 28 64C 27.799 62.8388 27.7478 62.5986 27.2 61.6z"/>
<path style="stroke:none; fill:#b61f36" d="M 28 61.6C 26.396 64.9279 24.4649 66.1235 20.8 66.4L 20.8 67.2C 24.4275 67.1572 29.4966 66.3634 28 61.6z"/>
<path style="stroke:none; fill:#d98f95" d="M 35.2 61.6L 35.2 62.4L 39.2 62.4C 37.7848 61.7769 36.7713 61.6701 35.2 61.6M 40.8 61.6L 41.6 62.4L 40.8 61.6z"/>
<path style="stroke:none; fill:#b61f36" d="M 54.4 61.6L 54.4 62.4C 56.0334 63.1156 57.4622 63.629 59.2 64C 57.8666 62.3359 56.4872 62.0613 54.4 61.6z"/>
<path style="stroke:none; fill:#e6616e" d="M 56 61.6L 56 62.4L 58.4 62.4C 57.4014 61.8522 57.1612 61.801 56 61.6z"/>
<path style="stroke:none; fill:#fbb0b9" d="M 58.9334 61.8666C 58.5778 62.2222 59.4222 62.1778 59.4666 62.1334C 59.8222 61.7778 58.9778 61.8222 58.9334 61.8666M 61.6 61.6L 61.6 64L 62.4 64C 62.199 62.8388 62.1478 62.5986 61.6 61.6z"/>
<path style="stroke:none; fill:#ee929c" d="M 70.4 61.6L 70.4 65.6L 71.2 65.6C 71.1299 64.0287 71.0231 63.0152 70.4 61.6z"/>
<path style="stroke:none; fill:#b61f36" d="M 71.2 61.6L 71.2 65.6L 72 65.6C 73.0491 64.7772 72.9434 65.0158 74.4 65.6C 73.5171 63.7142 72.8349 62.8991 71.2 61.6z"/>
<path style="stroke:none; fill:#c96e79" d="M 72 61.6L 72.8 62.4L 72 61.6z"/>
<path style="stroke:none; fill:#d98f95" d="M 80.8 61.6L 80.8 64L 81.6 64L 82.4 61.6L 80.8 61.6z"/>
<path style="stroke:none; fill:#9f0a1f" d="M 89.3336 61.8666C 88.9776 62.2222 89.8224 62.1778 89.8664 62.1334C 90.2224 61.7778 89.3776 61.8222 89.3336 61.8666z"/>
<path style="stroke:none; fill:#cc495a" d="M 90.4 61.6L 90.4 62.4C 91.9616 62.8086 92.3656 62.9866 93.6 64C 93.9504 61.9063 92.2904 61.8201 90.4 61.6z"/>
<path style="stroke:none; fill:#fbb0b9" d="M 93.6 61.6L 94.4 62.4L 93.6 61.6M 96 61.6L 96 64L 96.8 64C 96.5992 62.8388 96.548 62.5986 96 61.6z"/>
<path style="stroke:none; fill:#9f0a1f" d="M 98.4 61.6L 98.4 62.4C 100.318 63.2217 101.933 63.7424 104 64L 104 62.4L 98.4 61.6z"/>
<path style="stroke:none; fill:#c96e79" d="M 100.8 61.6L 100.8 62.4L 103.2 62.4C 102.202 61.8522 101.962 61.801 100.8 61.6z"/>
<path style="stroke:none; fill:#fbb0b9" d="M 103.2 61.6L 104 62.4L 103.2 61.6M 105.6 61.6L 105.6 64L 106.4 64C 106.199 62.8387 106.148 62.5987 105.6 61.6z"/>
<path style="stroke:none; fill:#f8cfd4" d="M 123.466 62.1334C 123.422 62.1778 123.378 63.0222 123.734 62.6666C 123.778 62.6222 123.822 61.7778 123.466 62.1334z"/>
<path style="stroke:none; fill:#c96e79" d="M 124 61.6L 124.8 62.4L 124 61.6z"/>
<path style="stroke:none; fill:#9f0a1f" d="M 148.266 62.1334C 148.222 62.1778 148.178 63.0222 148.534 62.6666C 148.578 62.6222 148.622 61.7778 148.266 62.1334z"/>
<path style="stroke:none; fill:#d22c43" d="M 155.2 61.6L 154.4 64.8L 158.4 64.8C 157.428 63.1993 156.801 62.5718 155.2 61.6z"/>
<path style="stroke:none; fill:#e6616e" d="M 156.534 61.8666C 156.178 62.2222 157.022 62.1778 157.066 62.1334C 157.422 61.7778 156.578 61.8222 156.534 61.8666z"/>
<path style="stroke:none; fill:#9f0a1f" d="M 22.1334 62.6666C 21.7778 63.0222 22.6222 62.9778 22.6666 62.9334C 23.0222 62.5778 22.1778 62.6222 22.1334 62.6666M 35.2 62.4L 35.2 63.2L 39.2 63.2C 37.7848 62.5769 36.7713 62.4701 35.2 62.4z"/>
<path style="stroke:none; fill:#fbb0b9" d="M 39.4666 62.9334C 39.4222 62.9778 39.3778 63.8222 39.7334 63.4666C 39.7778 63.4222 39.8222 62.5778 39.4666 62.9334M 41.0666 62.9334C 41.0222 62.9778 40.9778 63.8222 41.3334 63.4666C 41.3778 63.4222 41.4222 62.5778 41.0666 62.9334z"/>
<path style="stroke:none; fill:#9f0a1f" d="M 42.6666 62.9334C 42.6222 62.9778 42.5778 63.8222 42.9334 63.4666C 42.9778 63.4222 43.0222 62.5778 42.6666 62.9334z"/>
<path style="stroke:none; fill:#cc495a" d="M 59.4666 62.9334C 59.4222 62.9778 59.3778 63.8222 59.7334 63.4666C 59.7778 63.4222 59.8222 62.5778 59.4666 62.9334z"/>
<path style="stroke:none; fill:#f8cfd4" d="M 60.2666 62.9334C 60.2222 62.9778 60.1778 63.8222 60.5334 63.4666C 60.5778 63.4222 60.6222 62.5778 60.2666 62.9334z"/>
<path style="stroke:none; fill:#ee929c" d="M 72.8 62.4L 73.6 63.2L 72.8 62.4z"/>
<path style="stroke:none; fill:#9f0a1f" d="M 81.6 62.4L 81.6 63.2L 86.4 63.2C 84.7584 62.5006 83.4024 62.4378 81.6 62.4z"/>
<path style="stroke:none; fill:#b61f36" d="M 90.4 62.4L 90.4 63.2L 93.6 64C 92.5488 62.7057 92.0984 62.6454 90.4 62.4z"/>
<path style="stroke:none; fill:#f8cfd4" d="M 94.6664 62.9334C 94.6224 62.9778 94.5776 63.8222 94.9336 63.4666C 94.9776 63.4222 95.0224 62.5778 94.6664 62.9334z"/>
<path style="stroke:none; fill:#cc495a" d="M 98.9336 62.6666C 98.5776 63.0222 99.4224 62.9778 99.4664 62.9334C 99.8224 62.5778 98.9776 62.6222 98.9336 62.6666z"/>
<path style="stroke:none; fill:#fbb0b9" d="M 104.266 62.9334C 104.222 62.9778 104.178 63.8222 104.534 63.4666C 104.578 63.4222 104.622 62.5778 104.266 62.9334M 122.4 62.4L 121.6 65.6C 122.925 64.4766 123.001 64.0372 122.4 62.4z"/>
<path style="stroke:none; fill:#ee929c" d="M 123.2 63.2L 123.2 64L 128.8 64C 126.794 62.4912 125.614 62.5467 123.2 63.2z"/>
<path style="stroke:none; fill:#cc495a" d="M 134.934 62.6666C 134.578 63.0222 135.422 62.9778 135.466 62.9334C 135.822 62.5778 134.978 62.6222 134.934 62.6666z"/>
<path style="stroke:none; fill:#9f0a1f" d="M 157.866 62.9334C 157.822 62.9778 157.778 63.8222 158.134 63.4666C 158.178 63.4222 158.222 62.5778 157.866 62.9334z"/>
<path style="stroke:none; fill:#c96e79" d="M 158.666 62.9334C 158.622 62.9778 158.578 63.8222 158.934 63.4666C 158.978 63.4222 159.022 62.5778 158.666 62.9334z"/>
<path style="stroke:none; fill:#eb7682" d="M 160.266 62.9334C 160.222 62.9778 160.178 63.8222 160.534 63.4666C 160.578 63.4222 160.622 62.5778 160.266 62.9334z"/>
<path style="stroke:none; fill:#b61f36" d="M 161.066 62.9334C 161.022 62.9778 160.978 63.8222 161.334 63.4666C 161.378 63.4222 161.422 62.5778 161.066 62.9334z"/>
<path style="stroke:none; fill:#c96e79" d="M 21.6 63.2L 22.4 64L 21.6 63.2M 24.8 63.2L 25.6 64L 24.8 63.2z"/>
<path style="stroke:none; fill:#cc495a" d="M 35.2 63.2L 35.2 64L 39.2 64C 37.7848 63.3769 36.7712 63.2701 35.2 63.2z"/>
<path style="stroke:none; fill:#eb7682" d="M 43.2 63.2L 44 64L 43.2 63.2z"/>
<path style="stroke:none; fill:#ee929c" d="M 45.6 63.2L 46.4 64L 45.6 63.2z"/>
<path style="stroke:none; fill:#c96e79" d="M 48.8 63.2L 49.6 64L 48.8 63.2z"/>
<path style="stroke:none; fill:#ee929c" d="M 51.2 63.2L 52 64L 51.2 63.2z"/>
<path style="stroke:none; fill:#e6616e" d="M 53.8666 63.7334C 53.8222 63.7778 53.7778 64.6222 54.1334 64.2666C 54.1778 64.2222 54.2222 63.3778 53.8666 63.7334z"/>
<path style="stroke:none; fill:#fbb0b9" d="M 54.9334 63.4666C 54.5778 63.8222 55.4222 63.7778 55.4666 63.7334C 55.8222 63.3778 54.9778 63.4222 54.9334 63.4666z"/>
<path style="stroke:none; fill:#e6616e" d="M 56 63.2L 56.8 64L 56 63.2M 88.2664 63.7334C 88.2224 63.7778 88.1776 64.6222 88.5336 64.2666C 88.5776 64.2222 88.6224 63.3778 88.2664 63.7334z"/>
<path style="stroke:none; fill:#fbb0b9" d="M 89.3336 63.4666C 88.9776 63.8222 89.8224 63.7778 89.8664 63.7334C 90.2224 63.3778 89.3776 63.4222 89.3336 63.4666z"/>
<path style="stroke:none; fill:#cc495a" d="M 90.4 63.2L 91.2 64L 90.4 63.2z"/>
<path style="stroke:none; fill:#eb7682" d="M 100 63.2L 100.8 64L 100 63.2z"/>
<path style="stroke:none; fill:#e6616e" d="M 113.6 63.2L 114.4 64L 113.6 63.2M 129.6 63.2L 130.4 64L 129.6 63.2z"/>
<path style="stroke:none; fill:#eb7682" d="M 133.6 63.2L 133.6 65.6L 134.4 65.6C 134.199 64.4387 134.148 64.1987 133.6 63.2z"/>
<path style="stroke:none; fill:#b82c3c" d="M 134.4 65.6L 135.2 65.6L 136 64C 136.882 65.1654 137.234 65.5173 138.4 66.4C 137.451 63.9905 135.155 62.0923 134.4 65.6z"/>
<path style="stroke:none; fill:#cc495a" d="M 138.4 63.2L 139.2 64L 138.4 63.2z"/>
<path style="stroke:none; fill:#e6616e" d="M 148 63.2L 148.8 64L 148 63.2z"/>
<path style="stroke:none; fill:#eb7682" d="M 149.6 63.2L 150.4 64L 149.6 63.2z"/>
<path style="stroke:none; fill:#e6616e" d="M 152 63.2L 152 64.8C 153.308 64.364 153.164 64.5081 153.6 63.2L 152 63.2z"/>
<path style="stroke:none; fill:#fbb0b9" d="M 20 64L 20.8 64.8L 20 64z"/>
<path style="stroke:none; fill:#d98f95" d="M 22.4 64L 22.4 64.8L 24.8 64.8C 23.8013 64.2522 23.5613 64.201 22.4 64z"/>
<path style="stroke:none; fill:#f8cfd4" d="M 35.2 64L 35.2 64.8L 38.4 64.8C 37.1952 64.2536 36.5482 64.1393 35.2 64z"/>
<path style="stroke:none; fill:#eb7682" d="M 40.8 64L 41.6 64.8L 40.8 64z"/>
<path style="stroke:none; fill:#ee929c" d="M 44 64L 44.8 64.8L 44 64z"/>
<path style="stroke:none; fill:#d98f95" d="M 46.4 64L 46.4 64.8L 48.8 64.8C 47.8013 64.2522 47.5613 64.201 46.4 64z"/>
<path style="stroke:none; fill:#ee929c" d="M 56.8 64L 56.8 64.8L 59.2 64.8C 58.2014 64.2522 57.9612 64.201 56.8 64z"/>
<path style="stroke:none; fill:#f8cfd4" d="M 81.6 64L 81.6 64.8L 86.4 65.6C 85.0128 63.9973 83.716 64.0616 81.6 64z"/>
<path style="stroke:none; fill:#d98f95" d="M 91.2 64L 91.2 64.8L 93.6 64.8C 92.6016 64.2522 92.3616 64.201 91.2 64z"/>
<path style="stroke:none; fill:#e6616e" d="M 96 64L 96.8 64.8L 96 64z"/>
<path style="stroke:none; fill:#d98f95" d="M 100.8 64L 100.8 64.8L 104 64.8C 102.795 64.2536 102.148 64.1393 100.8 64z"/>
<path style="stroke:none; fill:#eb7682" d="M 105.6 64L 106.4 64.8L 105.6 64z"/>
<path style="stroke:none; fill:#ee929c" d="M 118.4 64C 118.836 65.3082 118.692 65.1639 120 65.6L 120 64L 118.4 64z"/>
<path style="stroke:none; fill:#9f0a1f" d="M 128.266 64.5334C 128.222 64.5778 128.178 65.4222 128.534 65.0666C 128.578 65.0222 128.622 64.1778 128.266 64.5334z"/>
<path style="stroke:none; fill:#e6616e" d="M 139.2 64L 140 64.8L 139.2 64z"/>
<path style="stroke:none; fill:#b82c3c" d="M 144.8 64L 144.8 64.8L 147.2 64.8C 146.202 64.2522 145.962 64.201 144.8 64z"/>
<path style="stroke:none; fill:#eb7682" d="M 147.2 64L 148 64.8L 147.2 64z"/>
<path style="stroke:none; fill:#ee929c" d="M 152.8 64L 152.8 65.6C 154.108 65.164 153.964 65.3081 154.4 64L 152.8 64z"/>
<path style="stroke:none; fill:#fbb0b9" d="M 20.8 64.8L 21.6 65.6L 20.8 64.8M 25.6 64.8L 26.4 65.6L 25.6 64.8z"/>
<path style="stroke:none; fill:#ee929c" d="M 40 64.8L 40.8 65.6L 40 64.8M 44.8 64.8L 45.6 65.6L 44.8 64.8z"/>
<path style="stroke:none; fill:#c96e79" d="M 50.4 64.8L 51.2 65.6L 50.4 64.8M 54.4 64.8L 55.2 65.6L 54.4 64.8z"/>
<path style="stroke:none; fill:#eb7682" d="M 60.8 64.8L 61.6 65.6L 60.8 64.8M 88.8 64.8L 89.6 65.6L 88.8 64.8z"/>
<path style="stroke:none; fill:#d98f95" d="M 95.2 64.8L 96 65.6L 95.2 64.8z"/>
<path style="stroke:none; fill:#ee929c" d="M 104.8 64.8L 105.6 65.6L 104.8 64.8M 114.4 65.6L 114.4 66.4L 118.4 66.4C 116.835 65.3444 116.314 65.3604 114.4 65.6z"/>
<path style="stroke:none; fill:#fbb0b9" d="M 118.134 65.0666C 117.778 65.4222 118.622 65.3778 118.666 65.3334C 119.022 64.9778 118.178 65.0222 118.134 65.0666z"/>
<path style="stroke:none; fill:#e6616e" d="M 128.8 64.8L 129.6 65.6L 128.8 64.8M 130.4 64.8L 129.6 66.4L 131.2 66.4C 131.2 64.9174 131.44 65.3199 130.4 64.8z"/>
<path style="stroke:none; fill:#cc495a" d="M 140 64.8L 139.2 66.4L 140.8 66.4C 140.8 64.9174 141.04 65.3198 140 64.8z"/>
<path style="stroke:none; fill:#fbb0b9" d="M 154.134 65.0666C 153.778 65.4222 154.622 65.3778 154.666 65.3334C 155.022 64.9778 154.178 65.0222 154.134 65.0666z"/>
<path style="stroke:none; fill:#ee929c" d="M 154.4 65.6L 154.4 66.4L 158.4 66.4C 156.792 65.2208 156.382 65.2284 154.4 65.6M 21.6 65.6L 21.6 66.4L 25.6 66.4C 24.1848 65.7769 23.1713 65.6701 21.6 65.6z"/>
<path style="stroke:none; fill:#eb7682" d="M 33.6 65.6L 33.6 66.4L 39.2 66.4C 37.3348 65.6124 35.6346 65.615 33.6 65.6z"/>
<path style="stroke:none; fill:#fbb0b9" d="M 46.4 65.6L 46.4 66.4L 49.6 66.4C 48.3952 65.8536 47.7482 65.7393 46.4 65.6M 56 65.6L 56 66.4L 60 66.4C 58.5848 65.7769 57.5713 65.6701 56 65.6z"/>
<path style="stroke:none; fill:#eb7682" d="M 64 65.6L 64 66.4L 66.4 66.4C 65.4014 65.8522 65.1612 65.801 64 65.6M 69.3334 65.8666C 68.9778 66.2222 69.8222 66.1778 69.8666 66.1334C 70.2222 65.7778 69.3778 65.8222 69.3334 65.8666M 75.7334 65.8666C 75.3778 66.2222 76.2222 66.1778 76.2666 66.1334C 76.6222 65.7778 75.7778 65.8222 75.7334 65.8666M 79.2 65.6L 79.2 66.4L 86.4 66.4C 84.088 65.4297 81.7008 65.6014 79.2 65.6z"/>
<path style="stroke:none; fill:#fbb0b9" d="M 90.4 65.6L 90.4 66.4L 94.4 66.4C 92.9848 65.7769 91.9712 65.6701 90.4 65.6M 100 65.6L 100 66.4L 104 66.4C 102.585 65.7769 101.571 65.6701 100 65.6z"/>
<path style="stroke:none; fill:#ee929c" d="M 142.4 65.6L 142.4 66.4L 147.2 66.4C 145.558 65.7006 144.202 65.6378 142.4 65.6z"/>
<path style="stroke:none; fill:#cc495a" d="M 147.2 65.6L 148 66.4L 147.2 65.6z"/>
<path style="stroke:none; fill:#b61f36" d="M 79.2 66.4L 79.2 67.2L 86.4 67.2C 84.088 66.2297 81.7008 66.4014 79.2 66.4z"/>
<path style="stroke:none; fill:#df2c46" d="M 112 66.4C 111.326 68.9869 110.43 70.0834 108 71.2C 108.018 76.5215 104.994 79.4455 100.8 82.4C 102.306 85.3296 104.053 85.8096 107.2 86.4C 108.307 81.9424 111.171 75.9858 116 75.2L 116 76L 113.6 76L 113.6 76.8C 115.698 76.9064 116.357 76.8799 117.6 75.2L 118.4 75.2L 118.4 81.6L 119.2 81.6L 119.2 73.6C 123.395 73.8634 126.535 75.6368 128.8 71.2L 112 66.4z"/>
<path style="stroke:none; fill:#b61f36" d="M 9.6 68.8L 9.6 95.2C 9.6 98.312 8.71048 102.625 11.2 104.8C 8.5432 93.6408 13.9847 79.2494 9.6 68.8z"/>
<path style="stroke:none; fill:#e6616e" d="M 8.8 69.6C 6.08128 81.0192 8 94.68 8 106.4L 16 106.4L 16 105.6L 9.6 105.6C 9.6 95.4064 12.728 78.9609 8.8 69.6z"/>
<path style="stroke:none; fill:#d22c43" d="M 7.2 72C 5.38757 73.9559 3.57466 77.0834 0.8 76.8L 0 76.8L 0 176L 38.4 176C 38.4 172.062 37.9263 168.61 40.8 165.6C 39.4133 164.194 38.9273 163.486 38.4 161.6C 35.3714 161.598 32.5552 161.503 29.6 160.8C 30.3886 159.617 30.4 159.838 30.4 158.4L 28 157.6L 28 156C 29.6008 155.028 30.2282 154.401 31.2 152.8L 25.6 153.6L 25.6 152.8C 27.2164 151.018 26.9185 146.54 27.2 144L 21.6 143.2L 24 139.2C 19.4845 139.201 15.1914 138.617 14.4 144L 12.8 144C 12.9035 140.462 14.3269 137.753 15.2 134.4C 12.4792 133.148 11.6127 131.749 11.2 128.8C 12.32 129.704 13.1328 130.574 14.4 131.2L 14.4 128L 15.2 128L 15.2 131.2L 16 131.2C 19.1696 126.848 20.5646 123.436 24.8 120L 25.6 124.8C 30.6638 125.147 30.3184 128.468 34.0543 130.514C 36.9033 132.074 41.6461 131.2 44.8 131.2L 44.8 130.4C 42.354 129.233 40.2695 129.014 37.6 128.8C 38.7828 128.011 38.5626 128 40 128L 40 127.2C 36.4946 125.271 32.7318 122.173 28.8 121.6C 29.9022 104.826 51.034 124.743 51.2 106.4C 47.7046 107.049 44.349 107.2 40.8 107.2C 38.4078 111.125 25.977 114.884 21.7037 112.743C 19.4441 111.611 18.8347 108.728 16.5284 107.682C 13.8094 106.45 9.98656 108.126 8.48272 104.682C 4.28549 95.068 11.2855 81.736 7.2 72z"/>
<path style="stroke:none; fill:#b61f36" d="M 20 72.8L 20 73.6C 23.5274 74.1485 25.2954 76.2558 28 78.4C 26.4126 74.3508 24.3081 72.9402 20 72.8z"/>
<path style="stroke:none; fill:#b82c3c" d="M 36 72.8L 36 73.6L 40 73.6C 38.5848 72.9769 37.5713 72.8701 36 72.8M 51.2 72.8L 51.2 73.6L 59.2 73.6C 56.6694 72.5381 53.9315 72.8003 51.2 72.8M 75.2 74.4C 80.2392 73.4651 83.2376 74.5354 88 76L 88 77.6C 84 78.5325 79.909 78.045 76 79.2L 76 80C 80.6016 79.1615 84.5408 80.62 88.8 78.4C 87.3488 73.4698 79.0109 70.0389 75.2 74.4M 92 72.8L 92 73.6L 96 73.6L 96 81.6C 98.332 77.5671 96.7312 73.1686 92 72.8z"/>
<path style="stroke:none; fill:#b61f36" d="M 99.2 77.6C 101.878 75.8005 103.962 74.0972 107.2 73.6C 103.435 72.0834 100.824 74.2309 99.2 77.6z"/>
<path style="stroke:none; fill:#b82c3c" d="M 134.4 72.8L 134.4 73.6L 137.6 73.6C 136.395 73.0536 135.748 72.9393 134.4 72.8M 142.4 72.8L 142.4 88L 143.2 88C 143.2 83.2792 144.236 77.1754 142.4 72.8z"/>
<path style="stroke:none; fill:#b61f36" d="M 143.2 72.8L 143.2 73.6L 149.6 73.6C 147.51 72.7218 145.468 72.8058 143.2 72.8z"/>
<path style="stroke:none; fill:#c96e79" d="M 19.2 73.6L 19.2 74.4L 24 74.4C 22.3583 73.7006 21.0022 73.6378 19.2 73.6M 36 73.6L 36 74.4L 40.8 74.4C 39.1583 73.7006 37.8022 73.6378 36 73.6M 51.7334 73.8666C 51.3778 74.2222 52.2222 74.1778 52.2666 74.1334C 52.6222 73.7778 51.7778 73.8222 51.7334 73.8666z"/>
<path style="stroke:none; fill:#fbb0b9" d="M 52.8 73.6L 52.8 74.4L 56.8 74.4C 55.3848 73.7769 54.3713 73.6701 52.8 73.6z"/>
<path style="stroke:none; fill:#d98f95" d="M 56.8 73.6L 56.8 74.4L 59.2 74.4C 58.2013 73.8522 57.9613 73.801 56.8 73.6M 77.3334 73.8666C 76.9778 74.2222 77.8222 74.1778 77.8666 74.1334C 78.2222 73.7778 77.3778 73.8222 77.3334 73.8666z"/>
<path style="stroke:none; fill:#fbb0b9" d="M 78.4 73.6L 78.4 74.4L 82.4 74.4C 80.9848 73.7769 79.9713 73.6701 78.4 73.6z"/>
<path style="stroke:none; fill:#cc495a" d="M 82.9336 73.8666C 82.5776 74.2222 83.4224 74.1778 83.4664 74.1334C 83.8224 73.7778 82.9776 73.8222 82.9336 73.8666z"/>
<path style="stroke:none; fill:#c96e79" d="M 92 73.6L 92 74.4L 96 74.4C 94.5848 73.7769 93.5712 73.6701 92 73.6M 103.2 73.6L 103.2 74.4L 107.2 74.4C 105.785 73.7769 104.771 73.6701 103.2 73.6z"/>
<path style="stroke:none; fill:#eb7682" d="M 107.466 74.1334C 107.422 74.1778 107.378 75.0222 107.734 74.6666C 107.778 74.6222 107.822 73.7778 107.466 74.1334z"/>
<path style="stroke:none; fill:#b82c3c" d="M 119.2 73.6C 119.194 82.0456 114.121 83.9872 109.6 90.4C 112.922 89.0864 115.717 87.0544 117.6 84L 118.4 84C 118.894 89.6176 121.391 94.0272 127.2 95.2L 127.2 94.4C 117.137 89.1648 122.644 81.8064 119.2 73.6z"/>
<path style="stroke:none; fill:#eb7682" d="M 120 73.6L 120 74.4L 124 74.4C 122.585 73.7769 121.571 73.6701 120 73.6z"/>
<path style="stroke:none; fill:#c96e79" d="M 133.6 73.6L 133.6 74.4L 137.6 74.4C 136.185 73.7769 135.171 73.6701 133.6 73.6z"/>
<path style="stroke:none; fill:#b61f36" d="M 141.6 73.6L 141.6 88L 142.4 88C 142.4 83.4944 143.353 77.7779 141.6 73.6z"/>
<path style="stroke:none; fill:#c96e79" d="M 143.2 73.6L 143.2 74.4L 154.4 74.4C 151.026 72.9846 146.833 73.6 143.2 73.6z"/>
<path style="stroke:none; fill:#b61f36" d="M 18.4 74.4L 18.4 93.6L 19.2 93.6C 19.2 87.8136 20.6446 79.7494 18.4 74.4z"/>
<path style="stroke:none; fill:#d98f95" d="M 19.2 74.4L 19.2 93.6L 20 93.6C 20 87.8136 21.4446 79.7494 19.2 74.4z"/>
<path style="stroke:none; fill:#fff7f8" d="M 20 74.4L 20 93.6L 23.2 93.6L 23.2 80.8C 25.7386 82.8664 27.5664 85.4392 29.6 88L 30.4 88C 32.7687 85.2632 34.7902 82.2872 37.6 80L 37.6 93.6L 40 93.6L 40 74.4C 35.1758 74.7714 32.8582 78.0896 31.2 82.4C 27.1974 79.3297 25.4556 74.8147 20 74.4z"/>
<path style="stroke:none; fill:#ee929c" d="M 24 74.4L 24.8 75.2L 24 74.4z"/>
<path style="stroke:none; fill:#fbb0b9" d="M 40 74.4L 40 93.6L 40.8 93.6C 40.8 87.8136 42.2446 79.7494 40 74.4z"/>
<path style="stroke:none; fill:#cc495a" d="M 40.8 74.4L 40.8 80.8L 41.6 80.8C 41.5942 78.5316 41.6782 76.4902 40.8 74.4z"/>
<path style="stroke:none; fill:#b82c3c" d="M 41.6 74.4L 40.8 94.4L 41.6 94.4C 41.6 88.5152 43.8458 79.7541 41.6 74.4z"/>
<path style="stroke:none; fill:#ee929c" d="M 50.4 74.4L 51.2 75.2L 50.4 74.4z"/>
<path style="stroke:none; fill:#fff7f8" d="M 51.2123 74.9938C 39.5294 79.601 47.7948 97.8152 59.9877 93.0064C 71.0093 88.6592 63.1931 70.2691 51.2123 74.9938z"/>
<path style="stroke:none; fill:#eb7682" d="M 60 74.4L 60.8 75.2L 60 74.4z"/>
<path style="stroke:none; fill:#b61f36" d="M 72.8 92.8C 69.2181 84.8696 69.6493 81.6816 74.4 74.4C 67.4266 77.8298 65.7122 88.4528 72.8 92.8z"/>
<path style="stroke:none; fill:#fff7f8" d="M 87.2 92L 87.2 90.4C 83.6776 89.788 80.1536 92.0024 76.8753 89.8056C 71.9239 86.488 72.5434 79.6155 78.4315 77.6907C 80.9288 76.8744 83.8656 78.1494 86.4 78.4C 82.1744 65.0219 60.0714 85.0264 74.4839 92.4528C 76.145 93.3088 78.1622 93.5056 80 93.5656C 82.6976 93.6528 84.7976 93.156 87.2 92z"/>
<path style="stroke:none; fill:#fbb0b9" d="M 84 74.4L 84.8 75.2L 84 74.4z"/>
<path style="stroke:none; fill:#b61f36" d="M 90.4 74.4L 90.4 93.6L 91.2 93.6C 91.2 87.8136 92.6448 79.7494 90.4 74.4z"/>
<path style="stroke:none; fill:#cc495a" d="M 91.2 74.4L 91.2 93.6L 92 93.6C 92 87.8136 93.4448 79.7494 91.2 74.4z"/>
<path style="stroke:none; fill:#f8cfd4" d="M 92 74.4L 92 93.6L 92.8 93.6C 92.8 87.8136 94.2448 79.7494 92 74.4z"/>
<path style="stroke:none; fill:#fff7f8" d="M 92.8 74.4L 92.8 93.6L 95.2 93.6L 95.2 85.6C 99.7856 88.8568 101.938 93.4032 108 93.6C 101.022 83.6944 100.064 84.5392 107.2 74.4C 101.586 74.8232 99.2624 79.1245 95.2 82.4L 95.2 74.4L 92.8 74.4z"/>
<path style="stroke:none; fill:#fbb0b9" d="M 95.2 74.4C 95.2 77.2075 94.5744 80.4552 96.8 82.4C 96.1672 79.7436 96.2472 76.8894 95.2 74.4M 102.4 74.4L 103.2 75.2L 102.4 74.4z"/>
<path style="stroke:none; fill:#b61f36" d="M 108 74.4C 105.498 76.9104 103.105 79.173 101.6 82.4C 104.304 80.4936 108.075 77.9377 108 74.4z"/>
<path style="stroke:none; fill:#ee929c" d="M 120 74.4L 120 87.2L 120.8 87.2C 120.8 83.128 121.586 78.179 120 74.4z"/>
<path style="stroke:none; fill:#fff7f8" d="M 120.8 74.4C 120.8 79.153 119.556 86.032 121.966 90.3128C 124.517 94.8464 133.433 95.0008 135.978 90.3528C 138.202 86.2936 136.8 78.9278 136.8 74.4L 134.4 74.4C 134.4 78.4544 135.45 84.2792 133.346 87.9128C 131.094 91.8032 126.259 91.2504 124.594 87.1648C 123.103 83.5088 124 78.2883 124 74.4L 120.8 74.4z"/>
<path style="stroke:none; fill:#c96e79" d="M 124 74.4L 124 88L 124.8 88C 124.8 83.7104 125.67 78.3793 124 74.4z"/>
<path style="stroke:none; fill:#ee929c" d="M 133.6 74.4L 133.6 88L 134.4 88C 134.4 83.7104 135.27 78.3793 133.6 74.4z"/>
<path style="stroke:none; fill:#f8cfd4" d="M 136.8 74.4L 136.8 88L 137.6 88C 137.6 83.7104 138.47 78.3793 136.8 74.4z"/>
<path style="stroke:none; fill:#e6616e" d="M 137.6 74.4L 137.6 87.2L 138.4 87.2C 138.4 83.128 139.186 78.179 137.6 74.4z"/>
<path style="stroke:none; fill:#b61f36" d="M 138.4 74.4L 138.4 88L 139.2 88C 139.2 83.7104 140.07 78.3793 138.4 74.4z"/>
<path style="stroke:none; fill:#fbb0b9" d="M 143.2 74.4L 143.2 93.6L 144 93.6C 144 87.8136 145.445 79.7494 143.2 74.4z"/>
<path style="stroke:none; fill:#fff7f8" d="M 144 74.4L 144 93.6L 146.4 93.6C 146.702 84.3456 153.718 90.3288 157.918 85.3456C 166.186 75.5308 149.21 74.4 144 74.4z"/>
<path style="stroke:none; fill:#fbb0b9" d="M 155.2 74.4L 156 75.2L 155.2 74.4z"/>
<path style="stroke:none; fill:#c96e79" d="M 156 74.4L 156.8 75.2L 156 74.4z"/>
<path style="stroke:none; fill:#b82c3c" d="M 156.8 74.4C 162.394 83.0136 158.064 88.7712 148 88.8L 148 89.6C 151.155 89.6 154.796 90.0504 157.556 88.2064C 162.959 84.596 162.363 77.181 156.8 74.4z"/>
<path style="stroke:none; fill:#c96e79" d="M 24.8 75.2L 25.6 76L 24.8 75.2z"/>
<path style="stroke:none; fill:#b82c3c" d="M 33.6 75.2C 32.5909 76.8078 31.8482 78.2222 31.2 80L 29.6 79.2L 28.8 79.2C 28.8 80.6376 28.8114 80.4168 29.6 81.6L 31.2 81.6C 32.46 79.4735 33.9425 77.6779 33.6 75.2z"/>
<path style="stroke:none; fill:#b61f36" d="M 66.4 87.2L 65.6 87.2C 60.3752 96.2128 46.669 97.5904 45.0982 84.8C 44.6464 81.1216 47.0129 78.172 48.8 75.2C 30.9546 84.4784 61.9509 109.187 66.4 87.2z"/>
<path style="stroke:none; fill:#eb7682" d="M 48.8 75.2L 49.6 76L 48.8 75.2z"/>
<path style="stroke:none; fill:#fbb0b9" d="M 60.8 75.2L 61.6 76L 60.8 75.2z"/>
<path style="stroke:none; fill:#ee929c" d="M 73.6 75.2L 74.4 76L 73.6 75.2M 85.6 75.2L 86.4 76L 85.6 75.2M 101.6 75.2L 102.4 76L 101.6 75.2M 106.4 75.2L 107.2 76L 106.4 75.2z"/>
<path style="stroke:none; fill:#de4354" d="M 107.2 86.4L 104 85.6C 104.885 87.6104 106.018 89.3416 107.2 91.2C 114.067 87.9976 118.394 82.668 118.4 75.2L 117.6 75.2C 116.194 76.5288 115.538 76.7863 113.6 76.8L 113.6 76L 116 76C 111.032 74.0802 107.764 82.4256 107.2 86.4z"/>
<path style="stroke:none; fill:#fbb0b9" d="M 156.8 75.2L 157.6 76L 156.8 75.2z"/>
<path style="stroke:none; fill:#ee929c" d="M 34.4 76L 35.2 76.8L 34.4 76M 48 76L 48.8 76.8L 48 76z"/>
<path style="stroke:none; fill:#fbb0b9" d="M 72.8 76L 73.6 76.8L 72.8 76z"/>
<path style="stroke:none; fill:#f8cfd4" d="M 86.6664 76.5334C 86.6224 76.5778 86.5776 77.4222 86.9336 77.0666C 86.9776 77.0222 87.0224 76.1778 86.6664 76.5334z"/>
<path style="stroke:none; fill:#e6616e" d="M 87.4664 76.5334C 87.4224 76.5778 87.3776 77.4222 87.7336 77.0666C 87.7776 77.0222 87.8224 76.1778 87.4664 76.5334z"/>
<path style="stroke:none; fill:#d98f95" d="M 100.8 76L 101.6 76.8L 100.8 76z"/>
<path style="stroke:none; fill:#ee929c" d="M 105.6 76L 106.4 76.8L 105.6 76z"/>
<path style="stroke:none; fill:#fbb0b9" d="M 157.6 76L 158.4 76.8L 157.6 76M 25.6 76.8L 26.4 77.6L 25.6 76.8z"/>
<path style="stroke:none; fill:#eb7682" d="M 33.6 76.8L 34.4 77.6L 33.6 76.8z"/>
<path style="stroke:none; fill:#ee929c" d="M 47.2 76.8L 48 77.6L 47.2 76.8M 53.6 76.8L 53.6 77.6L 57.6 77.6C 56.1848 76.9769 55.1713 76.8701 53.6 76.8z"/>
<path style="stroke:none; fill:#fbb0b9" d="M 72 76.8L 72.8 77.6L 72 76.8M 78.4 76.8L 78.4 77.6L 81.6 77.6C 80.3952 77.0536 79.7482 76.9393 78.4 76.8z"/>
<path style="stroke:none; fill:#d98f95" d="M 100 76.8L 100.8 77.6L 100 76.8z"/>
<path style="stroke:none; fill:#ee929c" d="M 104.8 76.8L 105.6 77.6L 104.8 76.8z"/>
<path style="stroke:none; fill:#d98f95" d="M 26.4 77.6L 27.2 78.4L 26.4 77.6z"/>
<path style="stroke:none; fill:#c96e79" d="M 46.4 77.6L 47.2 78.4L 46.4 77.6z"/>
<path style="stroke:none; fill:#d98f95" d="M 52 77.6L 52.8 78.4L 52 77.6z"/>
<path style="stroke:none; fill:#b61f36" d="M 59.2 89.6L 59.2 88.8C 45.4855 89.4752 52.994 73.9899 60 82.4C 60.9106 77.9358 54.6915 76.367 51.658 78.9938C 45.1053 84.668 52.7091 91.5 59.2 89.6z"/>
<path style="stroke:none; fill:#fbb0b9" d="M 58.4 77.6L 59.2 78.4L 58.4 77.6M 63.2 77.6L 64 78.4L 63.2 77.6z"/>
<path style="stroke:none; fill:#b61f36" d="M 64.8 77.6C 65.305 80.5832 66.2441 83.356 66.4 86.4L 67.2 86.4C 67.1698 83.0184 66.951 80.3048 64.8 77.6z"/>
<path style="stroke:none; fill:#ee929c" d="M 71.2 77.6L 72 78.4L 71.2 77.6z"/>
<path style="stroke:none; fill:#c96e79" d="M 77.3334 77.8666C 76.9778 78.2222 77.8222 78.1778 77.8666 78.1334C 78.2222 77.7778 77.3778 77.8222 77.3334 77.8666z"/>
<path style="stroke:none; fill:#9c3442" d="M 78.4 77.6L 78.4 78.4L 82.4 78.4C 80.9848 77.7769 79.9713 77.6701 78.4 77.6z"/>
<path style="stroke:none; fill:#c96e79" d="M 82.4 77.6L 83.2 78.4L 82.4 77.6M 99.2 77.6L 100 78.4L 99.2 77.6z"/>
<path style="stroke:none; fill:#ee929c" d="M 104 77.6L 104.8 78.4L 104 77.6z"/>
<path style="stroke:none; fill:#f8cfd4" d="M 146.4 77.6C 146.405 83.7256 147.222 85.5776 153.6 85.6L 153.6 84.8L 147.2 84.8C 147.198 82.2992 147.37 79.9118 146.4 77.6z"/>
<path style="stroke:none; fill:#c96e79" d="M 147.2 77.6L 147.2 78.4L 154.4 78.4C 152.088 77.4296 149.701 77.6014 147.2 77.6M 159.2 77.6L 160 78.4L 159.2 77.6z"/>
<path style="stroke:none; fill:#e6616e" d="M 27.2 78.4L 28 79.2L 27.2 78.4z"/>
<path style="stroke:none; fill:#fbb0b9" d="M 46.4 78.4L 47.2 79.2L 46.4 78.4z"/>
<path style="stroke:none; fill:#eb7682" d="M 59.2 78.4L 60 79.2L 59.2 78.4M 64 78.4L 64.8 79.2L 64 78.4z"/>
<path style="stroke:none; fill:#fbb0b9" d="M 75.2 78.4L 76 79.2L 75.2 78.4z"/>
<path style="stroke:none; fill:#c96e79" d="M 76 78.4L 76.8 79.2L 76 78.4z"/>
<path style="stroke:none; fill:#fbb0b9" d="M 84.5336 78.6666C 84.1776 79.0222 85.0224 78.9778 85.0664 78.9334C 85.4224 78.5778 84.5776 78.6222 84.5336 78.6666z"/>
<path style="stroke:none; fill:#c96e79" d="M 98.4 78.4L 99.2 79.2L 98.4 78.4z"/>
<path style="stroke:none; fill:#fbb0b9" d="M 103.2 78.4L 104 79.2L 103.2 78.4z"/>
<path style="stroke:none; fill:#cc495a" d="M 147.2 78.4C 147.208 80.8752 146.873 83.1168 148.8 84.8C 148.279 82.6416 148.074 80.4216 147.2 78.4z"/>
<path style="stroke:none; fill:#b82c3c" d="M 148 78.4L 148 79.2L 154.4 79.2L 154.4 84C 158.275 78.7957 151.831 78.403 148 78.4z"/>
<path style="stroke:none; fill:#f8cfd4" d="M 159.2 78.4L 159.2 83.2L 160 83.2C 159.962 81.3976 159.899 80.0416 159.2 78.4z"/>
<path style="stroke:none; fill:#ee929c" d="M 32 79.2L 32.8 80L 32 79.2z"/>
<path style="stroke:none; fill:#eb7682" d="M 45.6 79.2L 46.4 80L 45.6 79.2z"/>
<path style="stroke:none; fill:#cc495a" d="M 50.4 79.2L 51.2 80L 50.4 79.2z"/>
<path style="stroke:none; fill:#d22c43" d="M 60 89.6C 59.8319 84.5448 57.4615 84.0424 52.8 84L 52.8 83.2C 55.2974 83.2208 57.5684 83.4208 60 84C 58.1506 72.4039 44.3466 85.1712 53.687 88.8448C 55.5703 89.5856 58.0018 89.2752 60 89.6z"/>
<path style="stroke:none; fill:#ee929c" d="M 60 79.2L 60.8 80L 60 79.2z"/>
<path style="stroke:none; fill:#f8cfd4" d="M 70.6666 79.7334C 70.6222 79.7778 70.5778 80.6224 70.9334 80.2664C 70.9778 80.2224 71.0222 79.3778 70.6666 79.7334z"/>
<path style="stroke:none; fill:#cc495a" d="M 75.2 79.2L 76 80L 75.2 79.2z"/>
<path style="stroke:none; fill:#fbb0b9" d="M 102.4 79.2L 103.2 80L 102.4 79.2z"/>
<path style="stroke:none; fill:#de4354" d="M 148 79.2L 148 83.2L 154.4 83.2L 154.4 79.2L 148 79.2z"/>
<path style="stroke:none; fill:#cc495a" d="M 160 79.2L 160 83.2L 160.8 83.2C 160.73 81.6288 160.623 80.6152 160 79.2z"/>
<path style="stroke:none; fill:#fbb0b9" d="M 28 80L 28.8 80.8L 28 80z"/>
<path style="stroke:none; fill:#c96e79" d="M 31.2 80L 32 80.8L 31.2 80z"/>
<path style="stroke:none; fill:#f8cfd4" d="M 36 80C 37.0651 84.4736 36.8 89.0264 36.8 93.6L 37.6 93.6C 37.6 89.7864 39.029 82.6472 36 80M 45.6 80L 45.6 82.4L 46.4 82.4C 46.199 81.2384 46.1478 80.9984 45.6 80z"/>
<path style="stroke:none; fill:#d98f95" d="M 49.6 80L 50.4 80.8L 49.6 80z"/>
<path style="stroke:none; fill:#ee929c" d="M 65.0666 80.5336C 65.0222 80.5776 64.9778 81.4224 65.3334 81.0664C 65.3778 81.0224 65.4222 80.1776 65.0666 80.5336z"/>
<path style="stroke:none; fill:#c96e79" d="M 74.4 80L 75.2 80.8L 74.4 80z"/>
<path style="stroke:none; fill:#fbb0b9" d="M 101.6 80L 102.4 80.8L 101.6 80M 156 80L 156 82.4L 156.8 82.4C 156.599 81.2384 156.548 80.9984 156 80z"/>
<path style="stroke:none; fill:#c96e79" d="M 23.2 80.8L 23.2 82.4C 24.5082 81.964 24.3639 82.108 24.8 80.8L 23.2 80.8z"/>
<path style="stroke:none; fill:#eb7682" d="M 28.8 80.8L 29.6 81.6L 28.8 80.8z"/>
<path style="stroke:none; fill:#ee929c" d="M 35.2 80.8L 36 81.6L 35.2 80.8z"/>
<path style="stroke:none; fill:#9c3442" d="M 36 80.8L 35.2 82.4L 36.8 82.4C 36.8 80.9176 37.0398 81.32 36 80.8z"/>
<path style="stroke:none; fill:#c96e79" d="M 44.8 80.8L 44.8 83.2L 45.6 83.2C 45.399 82.0384 45.3478 81.7984 44.8 80.8z"/>
<path style="stroke:none; fill:#cc495a" d="M 60.8 80.8L 60.8 83.2L 61.6 83.2C 61.399 82.0384 61.3478 81.7984 60.8 80.8z"/>
<path style="stroke:none; fill:#f8cfd4" d="M 61.8666 81.3336C 61.8222 81.3776 61.7778 82.2224 62.1334 81.8664C 62.1778 81.8224 62.2222 80.9776 61.8666 81.3336z"/>
<path style="stroke:none; fill:#fbb0b9" d="M 69.6 80.8L 69.6 87.2L 70.4 87.2C 70.3942 84.932 70.4782 82.8904 69.6 80.8M 73.6 80.8L 74.4 81.6L 73.6 80.8z"/>
<path style="stroke:none; fill:#b82c3c" d="M 74.4 80.8C 74.4054 87.7072 80.508 95.2008 86.4 87.2C 77.9462 89.1048 77.643 88.4368 74.4 80.8z"/>
<path style="stroke:none; fill:#fbb0b9" d="M 96.8 80.8L 97.6 81.6L 96.8 80.8M 100.8 80.8L 101.6 81.6L 100.8 80.8z"/>
<path style="stroke:none; fill:#df2c46" d="M 139.2 80.8C 139.2 83.94 140.095 87.824 137.6 87.2C 137.378 100.936 119.983 94.516 118.4 84L 117.6 84C 114.665 87.2776 111.331 89.6624 107.2 91.2L 108.8 94.4C 105.174 95.5096 102.863 96.7544 100.8 100C 107.892 100 128.088 96.2648 128.8 105.6C 133.521 104.476 138.374 104.8 143.2 104.8L 143.2 104L 136 104L 136 102.4L 140 102.4L 140 100.8L 136.8 100.8C 138.269 97.9832 138.497 95.0512 140.8 92.8L 140.8 89.6L 141.6 89.6L 141.6 93.6L 142.4 93.6L 141.6 80.8L 139.2 80.8z"/>
<path style="stroke:none; fill:#b61f36" d="M 24 81.6L 24 94.4L 24.8 94.4L 24.8 84.8L 25.6 84.8C 28.6063 90.4024 31.5215 88.8704 35.2 84.8L 35.2 93.6L 36 93.6L 36 82.4C 33.6234 84.2392 32.2874 85.996 31.2 88.8L 24 81.6z"/>
<path style="stroke:none; fill:#fbb0b9" d="M 24.8 81.6L 25.6 82.4L 24.8 81.6z"/>
<path style="stroke:none; fill:#c96e79" d="M 29.6 81.6L 30.4 82.4L 29.6 81.6z"/>
<path style="stroke:none; fill:#fbb0b9" d="M 30.4 81.6L 31.2 82.4L 30.4 81.6z"/>
<path style="stroke:none; fill:#b61f36" d="M 41.6 81.6L 41.6 94.4L 42.4 94.4C 42.4 90.328 43.1858 85.3792 41.6 81.6z"/>
<path style="stroke:none; fill:#c96e79" d="M 48.8 81.6L 48.8 85.6L 49.6 85.6C 49.5299 84.0288 49.4231 83.0152 48.8 81.6z"/>
<path style="stroke:none; fill:#f8cfd4" d="M 64.8 81.6L 64.8 87.2L 65.6 87.2C 65.585 85.1656 65.5876 83.4656 64.8 81.6M 72.8 81.6L 72.8 86.4L 73.6 86.4C 73.5622 84.5976 73.4994 83.2416 72.8 81.6z"/>
<path style="stroke:none; fill:#cc495a" d="M 73.6 81.6L 73.6 86.4L 74.4 86.4C 74.3622 84.5976 74.2994 83.2416 73.6 81.6M 100.8 81.6L 101.6 82.4L 100.8 81.6z"/>
<path style="stroke:none; fill:#eb7682" d="M 23.2 82.4L 23.2 93.6L 24 93.6C 24 89.9672 24.6154 85.7736 23.2 82.4z"/>
<path style="stroke:none; fill:#c96e79" d="M 34.4 82.4L 35.2 83.2L 34.4 82.4z"/>
<path style="stroke:none; fill:#cc495a" d="M 36 82.4L 36 92.8L 36.8 92.8C 36.8 89.3896 37.3289 85.5672 36 82.4z"/>
<path style="stroke:none; fill:#b82c3c" d="M 60 82.4C 57.984 83.7528 55.2054 83.2048 52.8 83.2L 52.8 84C 56.3339 84.0856 58.852 84.3656 60 88L 60.8 88C 61.1749 85.6472 61.3675 84.3504 60 82.4z"/>
<path style="stroke:none; fill:#fbb0b9" d="M 61.6 82.4L 61.6 85.6L 62.4 85.6C 62.2607 84.252 62.1464 83.6048 61.6 82.4z"/>
<path style="stroke:none; fill:#cc495a" d="M 100 82.4L 100.8 83.2L 100 82.4z"/>
<path style="stroke:none; fill:#c96e79" d="M 25.6 83.2L 26.4 84L 25.6 83.2z"/>
<path style="stroke:none; fill:#ee929c" d="M 33.6 83.2L 34.4 84L 33.6 83.2z"/>
<path style="stroke:none; fill:#d98f95" d="M 44.8 83.2L 44.8 86.4L 45.6 86.4C 45.4607 85.052 45.3464 84.4048 44.8 83.2z"/>
<path style="stroke:none; fill:#c96e79" d="M 99.2 83.2L 100 84L 99.2 83.2z"/>
<path style="stroke:none; fill:#b82c3c" d="M 100 83.2C 101.612 86.6576 104.1 89.0144 107.2 91.2C 105.588 87.7432 103.1 85.3856 100 83.2z"/>
<path style="stroke:none; fill:#b61f36" d="M 148 83.2L 148 84L 154.4 84C 152.31 83.1216 150.269 83.2056 148 83.2z"/>
<path style="stroke:none; fill:#ee929c" d="M 159.2 83.2L 160 84L 159.2 83.2z"/>
<path style="stroke:none; fill:#d98f95" d="M 26.4 84L 27.2 84.8L 26.4 84z"/>
<path style="stroke:none; fill:#fbb0b9" d="M 32.8 84L 33.6 84.8L 32.8 84z"/>
<path style="stroke:none; fill:#ee929c" d="M 99.2 84L 100 84.8L 99.2 84z"/>
<path style="stroke:none; fill:#e6616e" d="M 148.8 84L 148.8 84.8L 154.4 84.8C 152.534 84.012 150.834 84.0152 148.8 84z"/>
<path style="stroke:none; fill:#d22c43" d="M 24.8 84.8L 24.8 93.6C 28.349 93.6 31.7046 93.4488 35.2 92.8L 35.2 84.8C 30.4827 88.5208 29.4799 88.76 24.8 84.8z"/>
<path style="stroke:none; fill:#fbb0b9" d="M 27.2 84.8L 28 85.6L 27.2 84.8M 100 84.8L 100.8 85.6L 100 84.8z"/>
<path style="stroke:none; fill:#ee929c" d="M 158.4 84.8L 159.2 85.6L 158.4 84.8z"/>
<path style="stroke:none; fill:#e6616e" d="M 32 85.6L 32.8 86.4L 32 85.6z"/>
<path style="stroke:none; fill:#f8cfd4" d="M 49.0666 86.1336C 49.0222 86.1776 48.9778 87.0224 49.3334 86.6664C 49.3778 86.6224 49.4222 85.7776 49.0666 86.1336z"/>
<path style="stroke:none; fill:#c96e79" d="M 61.0666 86.1336C 61.0222 86.1776 60.9778 87.0224 61.3334 86.6664C 61.3778 86.6224 61.4222 85.7776 61.0666 86.1336z"/>
<path style="stroke:none; fill:#fbb0b9" d="M 95.2 85.6L 95.2 93.6L 96 93.6C 96.008 90.836 96.1584 88.2944 96.8 85.6L 95.2 85.6z"/>
<path style="stroke:none; fill:#ee929c" d="M 100.8 85.6L 101.6 86.4L 100.8 85.6z"/>
<path style="stroke:none; fill:#fbb0b9" d="M 157.6 85.6L 158.4 86.4L 157.6 85.6z"/>
<path style="stroke:none; fill:#c96e79" d="M 28 86.4L 28.8 87.2L 28 86.4z"/>
<path style="stroke:none; fill:#d98f95" d="M 31.2 86.4L 32 87.2L 31.2 86.4z"/>
<path style="stroke:none; fill:#fbb0b9" d="M 45.6 86.4L 45.6 88.8L 46.4 88.8C 46.199 87.6384 46.1478 87.3984 45.6 86.4z"/>
<path style="stroke:none; fill:#ee929c" d="M 73.6 86.4L 74.4 87.2L 73.6 86.4z"/>
<path style="stroke:none; fill:#b61f36" d="M 96 86.4C 96.8832 88.2856 97.5648 89.1008 99.2 90.4C 98.3168 88.5144 97.6352 87.6992 96 86.4z"/>
<path style="stroke:none; fill:#eb7682" d="M 96.8 86.4L 97.6 87.2L 96.8 86.4z"/>
<path style="stroke:none; fill:#ee929c" d="M 101.6 86.4L 102.4 87.2L 101.6 86.4z"/>
<path style="stroke:none; fill:#cc495a" d="M 132.8 86.4L 132.8 88.8L 133.6 88.8C 133.399 87.6384 133.348 87.3984 132.8 86.4z"/>
<path style="stroke:none; fill:#ee929c" d="M 156.8 86.4L 157.6 87.2L 156.8 86.4M 28.8 87.2L 29.6 88L 28.8 87.2z"/>
<path style="stroke:none; fill:#fbb0b9" d="M 30.4 87.2L 31.2 88L 30.4 87.2z"/>
<path style="stroke:none; fill:#c96e79" d="M 49.6 87.2L 50.4 88L 49.6 87.2z"/>
<path style="stroke:none; fill:#fbb0b9" d="M 60.8 87.2L 61.6 88L 60.8 87.2z"/>
<path style="stroke:none; fill:#cc495a" d="M 65.0666 87.7336C 65.0222 87.7776 64.9778 88.6224 65.3334 88.2664C 65.3778 88.2224 65.4222 87.3776 65.0666 87.7336z"/>
<path style="stroke:none; fill:#ee929c" d="M 97.6 87.2L 98.4 88L 97.6 87.2M 102.4 87.2L 103.2 88L 102.4 87.2z"/>
<path style="stroke:none; fill:#c96e79" d="M 120.266 87.7336C 120.222 87.7776 120.178 88.6224 120.534 88.2664C 120.578 88.2224 120.622 87.3776 120.266 87.7336z"/>
<path style="stroke:none; fill:#f8cfd4" d="M 146.4 93.6L 147.2 93.6L 147.2 88L 154.4 88C 149.058 85.7592 146.462 88.3328 146.4 93.6z"/>
<path style="stroke:none; fill:#fbb0b9" d="M 154.934 87.4664C 154.578 87.8224 155.422 87.7776 155.466 87.7336C 155.822 87.3776 154.978 87.4224 154.934 87.4664z"/>
<path style="stroke:none; fill:#c96e79" d="M 156 87.2L 156.8 88L 156 87.2z"/>
<path style="stroke:none; fill:#de4354" d="M 30.1334 88.2664C 29.7778 88.6224 30.6222 88.5776 30.6666 88.5336C 31.0222 88.1776 30.1778 88.2224 30.1334 88.2664z"/>
<path style="stroke:none; fill:#fbb0b9" d="M 49.6 88L 50.4 88.8L 49.6 88z"/>
<path style="stroke:none; fill:#c96e79" d="M 60 88L 60.8 88.8L 60 88z"/>
<path style="stroke:none; fill:#fbb0b9" d="M 70.4 88L 71.2 88.8L 70.4 88M 74.4 88L 75.2 88.8L 74.4 88z"/>
<path style="stroke:none; fill:#de4354" d="M 89.6 88C 88.4576 91.7824 86.7976 95.2432 86.4 99.2C 96.3568 101.57 108.651 96.9184 96 88L 96 95.2C 91.184 94.5248 91.276 91.8336 89.6 88z"/>
<path style="stroke:none; fill:#ee929c" d="M 98.4 88L 99.2 88.8L 98.4 88M 103.2 88L 104 88.8L 103.2 88M 137.066 88.5336C 137.022 88.5776 136.978 89.4224 137.334 89.0664C 137.378 89.0224 137.422 88.1776 137.066 88.5336z"/>
<path style="stroke:none; fill:#cc495a" d="M 142.4 88L 142.4 94.4L 143.2 94.4C 143.194 92.1312 143.278 90.0904 142.4 88z"/>
<path style="stroke:none; fill:#eb7682" d="M 147.2 88L 147.2 88.8L 155.2 88.8C 152.67 87.7384 149.931 88 147.2 88z"/>
<path style="stroke:none; fill:#ee929c" d="M 50.4 88.8L 51.2 89.6L 50.4 88.8M 64 88.8L 64.8 89.6L 64 88.8z"/>
<path style="stroke:none; fill:#c96e79" d="M 70.4 88.8L 71.2 89.6L 70.4 88.8z"/>
<path style="stroke:none; fill:#ee929c" d="M 75.2 88.8L 76 89.6L 75.2 88.8z"/>
<path style="stroke:none; fill:#fbb0b9" d="M 84.5336 89.0664C 84.1776 89.4224 85.0224 89.3776 85.0664 89.3336C 85.4224 88.9776 84.5776 89.0224 84.5336 89.0664z"/>
<path style="stroke:none; fill:#e6616e" d="M 85.6 88.8L 86.4 89.6L 85.6 88.8z"/>
<path style="stroke:none; fill:#fbb0b9" d="M 99.2 88.8C 99.636 90.108 99.492 89.964 100.8 90.4C 100.364 89.092 100.508 89.236 99.2 88.8z"/>
<path style="stroke:none; fill:#ee929c" d="M 104 88.8L 104.8 89.6L 104 88.8z"/>
<path style="stroke:none; fill:#fbb0b9" d="M 120.8 88.8L 121.6 89.6L 120.8 88.8M 124.8 88.8L 125.6 89.6L 124.8 88.8z"/>
<path style="stroke:none; fill:#b61f36" d="M 137.6 88.8C 135.698 91.24 133.946 92.964 131.2 94.4L 131.2 95.2C 134.538 94.5248 138.114 92.644 137.6 88.8z"/>
<path style="stroke:none; fill:#cc495a" d="M 147.2 88.8L 147.2 93.6L 148 93.6C 147.962 91.7976 147.899 90.4416 147.2 88.8z"/>
<path style="stroke:none; fill:#d98f95" d="M 46.4 89.6L 47.2 90.4L 46.4 89.6z"/>
<path style="stroke:none; fill:#fbb0b9" d="M 51.2 89.6L 52 90.4L 51.2 89.6z"/>
<path style="stroke:none; fill:#c96e79" d="M 52 89.6L 52.8 90.4L 52 89.6z"/>
<path style="stroke:none; fill:#d98f95" d="M 58.4 89.6L 59.2 90.4L 58.4 89.6z"/>
<path style="stroke:none; fill:#fbb0b9" d="M 71.2 89.6L 72 90.4L 71.2 89.6M 76 89.6L 76.8 90.4L 76 89.6z"/>
<path style="stroke:none; fill:#c96e79" d="M 82.4 89.6L 83.2 90.4L 82.4 89.6z"/>
<path style="stroke:none; fill:#d98f95" d="M 83.2 89.6L 84 90.4L 83.2 89.6z"/>
<path style="stroke:none; fill:#d22c43" d="M 99.2 89.6C 100.307 92.0792 101.823 94.1376 102.4 96.8L 108 95.2L 108 94.4C 104.373 93.8408 102.146 91.6408 99.2 89.6z"/>
<path style="stroke:none; fill:#ee929c" d="M 104.8 89.6L 105.6 90.4L 104.8 89.6z"/>
<path style="stroke:none; fill:#eb7682" d="M 120.8 89.6L 121.6 90.4L 120.8 89.6z"/>
<path style="stroke:none; fill:#fbb0b9" d="M 125.6 89.6L 126.4 90.4L 125.6 89.6M 132 89.6L 132.8 90.4L 132 89.6M 47.2 90.4L 48 91.2L 47.2 90.4z"/>
<path style="stroke:none; fill:#eb7682" d="M 52.8 90.4L 52.8 91.2L 56 91.2C 54.7951 90.6536 54.1482 90.5392 52.8 90.4z"/>
<path style="stroke:none; fill:#ee929c" d="M 56 90.4L 56 91.2L 58.4 91.2C 57.4013 90.652 57.1613 90.6008 56 90.4z"/>
<path style="stroke:none; fill:#c96e79" d="M 63.2 90.4L 64 91.2L 63.2 90.4z"/>
<path style="stroke:none; fill:#ee929c" d="M 77.6 90.4L 77.6 91.2L 81.6 91.2C 80.1848 90.5768 79.1713 90.4704 77.6 90.4z"/>
<path style="stroke:none; fill:#f8cfd4" d="M 82.1336 90.6664C 81.7776 91.0224 82.6224 90.9776 82.6664 90.9336C 83.0224 90.5776 82.1776 90.6224 82.1336 90.6664z"/>
<path style="stroke:none; fill:#eb7682" d="M 87.4664 90.9336C 87.4224 90.9776 87.3776 91.8224 87.7336 91.4664C 87.7776 91.4224 87.8224 90.5776 87.4664 90.9336z"/>
<path style="stroke:none; fill:#d98f95" d="M 105.6 90.4L 106.4 91.2L 105.6 90.4z"/>
<path style="stroke:none; fill:#fbb0b9" d="M 121.6 90.4L 122.4 91.2L 121.6 90.4z"/>
<path style="stroke:none; fill:#d98f95" d="M 127.2 90.4L 127.2 91.2L 131.2 91.2C 129.785 90.5768 128.771 90.4704 127.2 90.4M 136 90.4L 136.8 91.2L 136 90.4z"/>
<path style="stroke:none; fill:#fbb0b9" d="M 48 91.2L 48.8 92L 48 91.2z"/>
<path style="stroke:none; fill:#eb7682" d="M 62.4 91.2L 63.2 92L 62.4 91.2z"/>
<path style="stroke:none; fill:#c96e79" d="M 72 91.2L 72.8 92L 72 91.2z"/>
<path style="stroke:none; fill:#d98f95" d="M 106.4 91.2L 107.2 92L 106.4 91.2z"/>
<path style="stroke:none; fill:#fbb0b9" d="M 135.2 91.2L 136 92L 135.2 91.2M 48.8 92L 49.6 92.8L 48.8 92z"/>
<path style="stroke:none; fill:#eb7682" d="M 61.6 92L 62.4 92.8L 61.6 92z"/>
<path style="stroke:none; fill:#c96e79" d="M 72.8 92L 73.6 92.8L 72.8 92z"/>
<path style="stroke:none; fill:#eb7682" d="M 86.4 92L 87.2 92.8L 86.4 92M 107.2 92L 108 92.8L 107.2 92z"/>
<path style="stroke:none; fill:#ee929c" d="M 134.4 92L 135.2 92.8L 134.4 92z"/>
<path style="stroke:none; fill:#d22c43" d="M 175.2 92C 172.773 97.3296 171.201 101.294 171.2 107.2L 168 107.2C 166.365 110.974 164.52 117.797 160.925 120.101C 154.132 124.453 135.491 118.868 128 117.6L 128 120.8C 132.066 120.801 135.964 121.282 140 121.6L 140 122.4C 137.066 122.781 134.745 123.74 132 124.8L 132 125.6C 139.789 129.352 134.606 135.899 128 137.6L 128 140.8L 128.8 140.8L 128.8 139.2L 129.6 139.2C 129.801 140.362 129.852 140.602 130.4 141.6L 131.2 141.6C 134.36 138.841 137.088 141.808 140.8 142.4L 141.6 137.6C 147.577 138.192 160.07 142.781 160.106 150.4C 160.131 155.532 149.979 166.382 146.369 169.942C 142.681 173.576 137.07 169.442 136 176L 176 176L 176 117.6C 176 110.142 178.086 98.8768 175.2 92z"/>
<path style="stroke:none; fill:#df2c46" d="M 24.8 93.6L 24.8 94.4L 29.6 95.2C 28.8114 96.3832 28.8 96.1624 28.8 97.6C 30.1875 98.264 30.5231 98.4208 32 98.4C 31.8162 100.59 31.7656 102.614 32 104.8L 49.6 105.6L 49.6 104.8L 46.4 104.8C 44.8991 98.18 40.9281 97.1576 36.8 92.8C 32.7823 93.1608 28.8408 93.5976 24.8 93.6z"/>
<path style="stroke:none; fill:#eb7682" d="M 49.6 92.8L 50.4 93.6L 49.6 92.8z"/>
<path style="stroke:none; fill:#ee929c" d="M 60 92.8L 60.8 93.6L 60 92.8z"/>
<path style="stroke:none; fill:#cc495a" d="M 60.8 92.8L 61.6 93.6L 60.8 92.8z"/>
<path style="stroke:none; fill:#ee929c" d="M 74.4 92.8L 75.2 93.6L 74.4 92.8z"/>
<path style="stroke:none; fill:#f8cfd4" d="M 75.7334 93.0664C 75.3778 93.4224 76.2222 93.3776 76.2666 93.3336C 76.6222 92.9776 75.7778 93.0224 75.7334 93.0664z"/>
<path style="stroke:none; fill:#ee929c" d="M 84.8 92.8L 85.6 93.6L 84.8 92.8z"/>
<path style="stroke:none; fill:#b61f36" d="M 73.6 93.6L 73.6 94.4C 78.6646 96.2456 82.4368 96.268 87.2 93.6C 82.9256 92.884 78.3939 94.4112 73.6 93.6z"/>
<path style="stroke:none; fill:#d98f95" d="M 108 92.8C 106.559 93.2496 105.502 93.4592 104 93.6L 104 94.4C 105.59 94.3936 108.851 94.8608 108 92.8z"/>
<path style="stroke:none; fill:#ee929c" d="M 124 92.8L 124.8 93.6L 124 92.8z"/>
<path style="stroke:none; fill:#eb7682" d="M 133.6 92.8L 134.4 93.6L 133.6 92.8z"/>
<path style="stroke:none; fill:#ee929c" d="M 20 93.6L 20 94.4L 23.2 94.4C 21.9952 93.8536 21.3482 93.7392 20 93.6z"/>
<path style="stroke:none; fill:#de4354" d="M 23.2 93.6C 19.8055 96.1848 14.5608 95.9888 10.4 96C 14.2532 109.09 27.411 105.6 38.4 105.6L 38.4 104.8L 32 104.8L 32 98.4C 30.609 98.4496 30.1 98.0176 28.8 97.6L 29.6 95.2L 23.2 93.6z"/>
<path style="stroke:none; fill:#ee929c" d="M 36.8 93.6L 36.8 94.4L 40.8 94.4C 39.3848 93.7768 38.3713 93.6704 36.8 93.6z"/>
<path style="stroke:none; fill:#d98f95" d="M 51.7334 93.8664C 51.3778 94.2224 52.2222 94.1776 52.2666 94.1336C 52.6222 93.7776 51.7778 93.8224 51.7334 93.8664z"/>
<path style="stroke:none; fill:#f8cfd4" d="M 52.8 93.6L 52.8 94.4L 58.4 94.4C 56.5348 93.612 54.8346 93.6152 52.8 93.6z"/>
<path style="stroke:none; fill:#cc495a" d="M 58.9334 93.8664C 58.5778 94.2224 59.4222 94.1776 59.4666 94.1336C 59.8222 93.7776 58.9778 93.8224 58.9334 93.8664z"/>
<path style="stroke:none; fill:#ee929c" d="M 76.5334 93.8664C 76.1778 94.2224 77.0222 94.1776 77.0666 94.1336C 77.4222 93.7776 76.5778 93.8224 76.5334 93.8664z"/>
<path style="stroke:none; fill:#f8cfd4" d="M 77.6 93.6L 77.6 94.4L 83.2 94.4C 81.3344 93.612 79.6346 93.6152 77.6 93.6z"/>
<path style="stroke:none; fill:#d98f95" d="M 83.2 93.6L 84 94.4L 83.2 93.6z"/>
<path style="stroke:none; fill:#ee929c" d="M 92 93.6L 92 94.4L 96 94.4C 94.5848 93.7768 93.5712 93.6704 92 93.6z"/>
<path style="stroke:none; fill:#fbb0b9" d="M 126.134 93.8664C 125.778 94.2224 126.622 94.1776 126.666 94.1336C 127.022 93.7776 126.178 93.8224 126.134 93.8664z"/>
<path style="stroke:none; fill:#f8cfd4" d="M 127.2 93.6L 127.2 94.4L 132 94.4C 130.358 93.7008 129.002 93.6376 127.2 93.6z"/>
<path style="stroke:none; fill:#c96e79" d="M 132 93.6L 132.8 94.4L 132 93.6z"/>
<path style="stroke:none; fill:#ee929c" d="M 143.2 93.6L 143.2 94.4L 147.2 94.4C 145.785 93.7768 144.771 93.6704 143.2 93.6z"/>
<path style="stroke:none; fill:#cc495a" d="M 52.8 94.4L 52.8 95.2L 56.8 95.2C 55.3848 94.5768 54.3713 94.4704 52.8 94.4M 77.6 94.4L 77.6 95.2L 82.4 95.2C 80.7584 94.5008 79.4022 94.4376 77.6 94.4z"/>
<path style="stroke:none; fill:#b82c3c" d="M 92 94.4L 92 95.2L 96 95.2C 94.5848 94.5768 93.5712 94.4704 92 94.4z"/>
<path style="stroke:none; fill:#cc495a" d="M 127.2 94.4L 127.2 95.2L 131.2 95.2C 129.785 94.5768 128.771 94.4704 127.2 94.4z"/>
<path style="stroke:none; fill:#b82c3c" d="M 144 94.4L 144 95.2L 147.2 95.2C 145.995 94.6536 145.348 94.5392 144 94.4M 101.6 96.8C 96.6592 100.978 90.9456 100 84.8 100L 52 100L 52 100.8L 128 100.8L 128 100L 100.8 100C 101.579 98.5008 101.77 98.3584 101.6 96.8z"/>
<path style="stroke:none; fill:#d22c43" d="M 10.4 98.4C 10.4108 100.574 10.9073 103.049 9.6 104.8L 9.6 105.6L 15.2 105.6C 14.4488 102.992 13.3634 100.746 12 98.4L 10.4 98.4z"/>
<path style="stroke:none; fill:#cc495a" d="M 52 100.8L 52 101.6L 128 101.6L 128 105.6L 128.8 105.6L 128.8 100.8L 52 100.8z"/>
<path style="stroke:none; fill:#d98f95" d="M 51.2 101.6L 51.2 111.2L 52 111.2C 52 108.014 52.4412 104.558 51.2 101.6z"/>
<path style="stroke:none; fill:#f8cfd4" d="M 52 101.6L 52 102.4L 127.2 102.4L 127.2 110.4L 128 110.4L 128 101.6L 52 101.6z"/>
<path style="stroke:none; fill:#fff7f8" d="M 52 102.4L 52 110.4L 127.2 110.4L 127.2 102.4L 52 102.4z"/>
<path style="stroke:none; fill:#f8cfd4" d="M 68.8 108.8C 70.4957 108.123 72.6475 106.849 70.4 105.6L 70.4 104.8C 72.0739 104.475 72.0158 104.626 72.8 103.2C 69.3105 103.782 68.9097 105.459 68.8 108.8M 75.2 108.8L 74.4 106.4L 78.4 105.6L 76.8 108.8C 79.5223 108.217 79.1892 106.555 79.2 104L 82.4 104.8C 79.2855 101.318 70.3883 104.574 75.2 108.8M 84 103.2L 84 108.8L 87.2 108.8L 87.2 108L 85.6 107.2C 87.2376 106.57 87.2376 106.23 85.6 105.6L 85.6 104.8C 86.6512 104.186 86.5856 104.251 87.2 103.2L 84 103.2M 95.2 108.8C 102.702 105.58 95.4656 100.71 95.2 108.8M 100.8 106.4L 104 107.2L 104 108L 100.8 108L 100.8 108.8L 104.8 108.8C 104.129 106.699 103.701 106.271 101.6 105.6L 101.6 104.8C 103.274 104.475 103.216 104.626 104 103.2C 101.899 103.871 101.471 104.299 100.8 106.4M 105.6 108.8C 113.817 108.16 105.902 99.5816 105.6 108.8z"/>
<path style="stroke:none; fill:#fbb0b9" d="M 79.2 104L 79.2 108.8L 82.4 108.8L 82.4 108C 80.9624 108 81.1832 107.989 80 107.2C 81.1832 106.411 80.9624 106.4 82.4 106.4L 82.4 105.6L 79.2 104z"/>
<path style="stroke:none; fill:#fff7f8" d="M 96.8 106.4C 98.064 105.853 98.2216 105.756 99.2 104.8C 97.5264 105.125 97.584 104.974 96.8 106.4M 106.4 104.8L 107.2 108L 108.8 108L 109.6 105.6L 106.4 104.8z"/>
<path style="stroke:none; fill:#eb7682" d="M 16 105.6L 16 106.4L 32 106.4C 27.4282 104.482 20.9354 105.6 16 105.6z"/>
<path style="stroke:none; fill:#e6616e" d="M 16.8 106.4L 16.8 107.2L 51.2 106.4C 41.9457 102.517 26.7765 106.4 16.8 106.4z"/>
<path style="stroke:none; fill:#fbb0b9" d="M 74.4 108C 76.5315 107.698 77.279 107.45 78.4 105.6C 76.4851 106.118 75.571 106.426 74.4 108z"/>
<path style="stroke:none; fill:#de4354" d="M 8.8 106.4L 8.8 107.2L 16.8 107.2C 14.2694 106.138 11.5315 106.4 8.8 106.4M 34.4 106.4L 34.4 107.2L 49.6 107.2C 45.2246 105.364 39.121 106.4 34.4 106.4z"/>
<path style="stroke:none; fill:#cc495a" d="M 128 111.2L 51.2 111.2L 51.2 112L 110.4 112C 116.06 112 128.211 114.758 128.8 107.2L 171.2 107.2C 162.416 103.514 147.155 106.4 137.6 106.4C 132.926 106.4 128.446 105.48 128 111.2z"/>
<path style="stroke:none; fill:#de4354" d="M 17.6 107.2C 20.6203 115.937 30.9589 113.699 37.6 109.6C 31.5495 106.312 24.2586 107.2 17.6 107.2z"/>
<path style="stroke:none; fill:#df2c46" d="M 32 107.2L 32 108L 37.6 108.8L 37.6 109.6L 36 109.6L 36 110.4C 38.5646 110.048 40.0473 109.773 40.8 107.2L 32 107.2M 128.8 107.2C 127.863 115.513 116.691 112.8 110.4 112.8C 91.6072 112.8 68.6743 116.35 50.4 112C 43.6455 119.738 29.2411 106.718 28.8 121.6C 32.7538 122.618 36.1066 125.664 40 127.2L 40 128C 38.8387 128.201 38.5986 128.252 37.6 128.8C 40.0958 129.203 42.3982 129.567 44.8 130.4L 44.8 131.2C 41.7231 131.2 37.503 131.926 34.6747 130.514C 30.5421 128.452 31.0892 124.966 25.6 124.8C 25.5247 123.036 25.315 121.685 24.8 120C 20.0958 122.881 18.4652 126.322 16 131.2L 15.2 131.2L 15.2 128L 14.4 128L 14.4 131.2C 13.28 130.296 12.4672 129.426 11.2 128.8C 11.4197 131.922 12.0938 133.522 15.2 134.4C 13.9338 137.766 12.8407 140.343 12.8 144L 14.4 144C 15.7016 139.022 19.5226 139.203 24 139.2L 21.6 143.2C 23.7871 143.35 26.0302 143.698 27.2 145.6C 30.3918 143.825 36.2766 142.45 39.9006 143.458C 43.2019 144.376 42.2198 148.134 39.8259 149.578C 36.4786 151.597 30.1923 150.4 26.4 150.4C 26.2582 151.716 26.2871 151.718 25.6 152.8L 25.6 153.6L 31.2 152.8L 28 156L 28 157.6C 29.1828 158.389 28.9626 158.4 30.4 158.4L 29.6 160.8C 32.5254 161.665 35.3594 161.6 38.4 161.6C 38.7413 163.716 39.0567 164.369 40.8 165.6C 39.6172 166.389 39.8374 166.4 38.4 166.4L 38.4 176L 136 176C 136.521 174.053 136.928 173.374 138.4 172C 136.41 167.414 129.89 165.648 128.926 160.799C 128.478 158.549 130.08 155.856 130.4 153.6C 127.546 152.767 126.53 151.798 126.4 148.8C 132.342 150.897 135.537 147.683 135.2 141.6C 132.572 141.516 131.058 141.454 129.6 139.2L 128.8 139.2L 128.8 140.8L 128 140.8L 128 137.6C 134.657 136.63 141.009 128.511 132 125.6L 132 124.8L 140 122.4L 140 121.6C 135.958 121.089 132.081 120.8 128 120.8C 128.385 115.654 132.277 113.15 129.6 108L 133.6 108C 131.958 107.301 130.602 107.238 128.8 107.2z"/>
<path style="stroke:none; fill:#de4354" d="M 129.6 108C 131.232 112.305 129.842 113.688 128 117.6C 135.648 119.623 144.866 120.749 152.8 120.799C 155.375 120.816 159.104 121.622 161.389 120.194C 164.615 118.174 167.041 110.72 168 107.2C 155.162 107.2 142.379 106.991 129.6 108z"/>
<path style="stroke:none; fill:#fbb0b9" d="M 52 110.4L 52 111.2L 128 111.2C 121.697 108.555 111.627 110.4 104.8 110.4L 52 110.4z"/>
<path style="stroke:none; fill:#b61f36" d="M 51.2 112L 51.2 112.8L 128 112.8C 121.697 110.155 111.627 112 104.8 112L 51.2 112M 85.6 116L 85.6 116.8L 90.4 116C 88.736 115.594 87.3296 115.81 85.6 116z"/>
<path style="stroke:none; fill:#b82c3c" d="M 90.4 116L 90.4 116.8C 92.164 116.725 93.5152 116.515 95.2 116C 93.536 115.594 92.1296 115.81 90.4 116z"/>
<path style="stroke:none; fill:#cc495a" d="M 89.3336 116.266C 88.9776 116.622 89.8224 116.578 89.8664 116.534C 90.2224 116.178 89.3776 116.222 89.3336 116.266z"/>
<path style="stroke:none; fill:#fbb0b9" d="M 84.5336 117.066C 84.1776 117.422 85.0224 117.378 85.0664 117.334C 85.4224 116.978 84.5776 117.022 84.5336 117.066z"/>
<path style="stroke:none; fill:#c96e79" d="M 85.6 116.8L 85.6 117.6L 88.8 117.6C 87.5952 117.054 86.948 116.939 85.6 116.8z"/>
<path style="stroke:none; fill:#fbb0b9" d="M 89.3336 117.066C 88.9776 117.422 89.8224 117.378 89.8664 117.334C 90.2224 116.978 89.3776 117.022 89.3336 117.066z"/>
<path style="stroke:none; fill:#c96e79" d="M 90.4 116.8L 90.4 117.6L 93.6 117.6C 92.3952 117.054 91.748 116.939 90.4 116.8z"/>
<path style="stroke:none; fill:#fbb0b9" d="M 93.6 116.8C 94.036 118.108 93.892 117.964 95.2 118.4L 95.2 116.8L 93.6 116.8z"/>
<path style="stroke:none; fill:#eb7682" d="M 84 117.6L 84.8 118.4L 84 117.6z"/>
<path style="stroke:none; fill:#f8cfd4" d="M 84.8 117.6C 85.6008 119.139 85.6616 119.278 87.2 120C 86.8144 118.109 86.6912 117.986 84.8 117.6z"/>
<path style="stroke:none; fill:#fff7f8" d="M 87.2 117.6L 87.2 118.4C 88.5864 119.915 88.8736 120.334 87.2 121.6L 88.8 124.8C 90.6856 123.917 91.5008 123.235 92.8 121.6C 91.172 120.619 90.9392 120.238 90.4 118.4L 93.6 120C 94.3888 118.817 94.4 119.038 94.4 117.6L 87.2 117.6z"/>
<path style="stroke:none; fill:#b82c3c" d="M 84 118.4C 84.5472 119.664 84.644 119.822 85.6 120.8C 85.0528 119.536 84.956 119.378 84 118.4z"/>
<path style="stroke:none; fill:#ee929c" d="M 84.8 118.4L 85.6 119.2L 84.8 118.4M 87.7336 118.666C 87.3776 119.022 88.2224 118.978 88.2664 118.934C 88.6224 118.578 87.7776 118.622 87.7336 118.666M 90.9336 118.666C 90.5776 119.022 91.4224 118.978 91.4664 118.934C 91.8224 118.578 90.9776 118.622 90.9336 118.666z"/>
<path style="stroke:none; fill:#9c3442" d="M 87.2 119.2L 87.2 120.8L 88.8 120.8L 88.8 119.2L 87.2 119.2z"/>
<path style="stroke:none; fill:#fbb0b9" d="M 88.8 119.2L 88.8 121.6L 89.6 121.6C 89.3992 120.438 89.348 120.198 88.8 119.2z"/>
<path style="stroke:none; fill:#c96e79" d="M 90.4 119.2C 90.7248 120.874 90.5736 120.816 92 121.6C 91.4472 120.49 91.212 120.111 90.4 119.2z"/>
<path style="stroke:none; fill:#9f0a1f" d="M 91.4664 119.734C 91.4224 119.778 91.3776 120.622 91.7336 120.266C 91.7776 120.222 91.8224 119.378 91.4664 119.734z"/>
<path style="stroke:none; fill:#e6616e" d="M 92 119.2L 92 121.6L 93.6 120.8L 93.6 120L 92 119.2z"/>
<path style="stroke:none; fill:#ee929c" d="M 93.6 119.2L 94.4 120L 93.6 119.2z"/>
<path style="stroke:none; fill:#eb7682" d="M 86.1336 120.266C 85.7776 120.622 86.6224 120.578 86.6664 120.534C 87.0224 120.178 86.1776 120.222 86.1336 120.266z"/>
<path style="stroke:none; fill:#e6616e" d="M 86.4 122.4L 88.8 121.6C 87.3776 120.836 87.1832 120.987 86.4 122.4z"/>
<path style="stroke:none; fill:#b61f36" d="M 86.4 122.4C 86.8376 123.9 87.288 125.004 88 126.4L 88.8 126.4C 88.2008 124.597 87.7248 123.749 86.4 122.4z"/>
<path style="stroke:none; fill:#ee929c" d="M 87.2 122.4L 88 123.2L 87.2 122.4z"/>
<path style="stroke:none; fill:#fbb0b9" d="M 88 123.2L 88.8 124L 88 123.2z"/>
<path style="stroke:none; fill:#eb7682" d="M 91.2 123.2L 92 124L 91.2 123.2z"/>
<path style="stroke:none; fill:#c96e79" d="M 88 124L 88.8 124.8L 88 124z"/>
<path style="stroke:none; fill:#fbb0b9" d="M 90.4 124L 91.2 124.8L 90.4 124M 89.3336 125.066C 88.9776 125.422 89.8224 125.378 89.8664 125.334C 90.2224 124.978 89.3776 125.022 89.3336 125.066z"/>
<path style="stroke:none; fill:#9f0a1f" d="M 141.6 137.6C 142.482 140.989 144.066 143.207 147.2 144.8C 147.183 140.091 146.703 137.882 141.6 137.6z"/>
<path style="stroke:none; fill:#de4354" d="M 148.8 138.4C 149.898 140.438 150.574 140.95 152.8 141.6C 151.501 139.965 150.686 139.283 148.8 138.4M 131.2 141.6C 138.54 142.737 138.073 150.414 131.2 152C 129.338 158.01 126.345 162.851 133.6 166.4C 136.274 159.439 142.853 152.568 148 147.2L 148 146.4C 145.705 144.01 143.768 141.502 140.8 140C 137.881 143.941 134.362 137.218 131.2 141.6z"/>
<path style="stroke:none; fill:#b61f36" d="M 147.2 139.2C 147.154 141.427 146.918 143.433 146.4 145.6L 149.6 146.4C 150.182 143.052 150.37 140.954 147.2 139.2z"/>
<path style="stroke:none; fill:#d22c43" d="M 150.4 141.6C 148.006 150.581 133.06 157.449 134.4 167.2L 136 167.2C 138.634 161.326 144.908 148.915 152 148.8L 152 141.6L 150.4 141.6z"/>
<path style="stroke:none; fill:#e6616e" d="M 152 141.6C 153.542 144.307 155.693 146.458 158.4 148C 157.426 144.573 155.453 142.541 152 141.6z"/>
<path style="stroke:none; fill:#b61f36" d="M 134.4 142.4C 135.327 148.066 131.331 149.946 126.4 148.8C 126.001 151.451 126.447 152.304 128.8 153.6L 127.2 150.4C 132.496 152.6 140.385 145.831 134.4 142.4z"/>
<path style="stroke:none; fill:#de4354" d="M 34.4 143.2L 34.4 144L 41.6 144C 39.5382 147 38.0395 147.881 34.4 148C 36.6263 148.926 45.9137 147.621 41.771 144.018C 40.0908 142.558 36.4562 143.2 34.4 143.2M 152 143.2C 151.644 149.687 153.965 150.346 160 149.6L 159.2 146.4L 156.8 148C 155.614 145.517 154.483 144.386 152 143.2z"/>
<path style="stroke:none; fill:#e6616e" d="M 25.6 148.8C 31.253 148.8 38.8164 149.851 41.6 144C 35.1353 144 29.1153 142.444 25.6 148.8z"/>
<path style="stroke:none; fill:#de4354" d="M 44 144.8L 43.2 148C 44.6958 147.017 44.9788 146.506 45.6 144.8L 44 144.8z"/>
<path style="stroke:none; fill:#df2c46" d="M 136.8 145.6C 134.861 147.88 133.286 150.096 132 152.8C 134.978 151.369 137.484 149.122 136.8 145.6z"/>
<path style="stroke:none; fill:#b61f36" d="M 25.6 148.8L 25.6 150.4C 30.1411 150.4 38.8791 152.197 41.6 148C 36.2863 148.986 30.9855 148.8 25.6 148.8z"/>
<path style="stroke:none; fill:#b82c3c" d="M 136 167.2C 142.221 163.818 147.964 154.47 150.4 148C 144.28 150.198 137.831 161.161 136 167.2z"/>
<path style="stroke:none; fill:#b61f36" d="M 149.6 148.8C 147.136 156.642 139.705 161.634 136 168.8C 141.518 168.52 150.138 153.909 152 148.8L 149.6 148.8z"/>
<path style="stroke:none; fill:#df2c46" d="M 160 148.8C 158.139 149.504 156.349 149.994 154.4 150.4L 154.4 151.2C 156.549 151.601 158.616 151.906 160.8 152C 160.661 150.652 160.546 150.005 160 148.8z"/>
<path style="stroke:none; fill:#9f0a1f" d="M 151.2 149.6C 148.498 157.377 140.858 162.634 137.6 170.4C 147.546 174.596 156.366 160.154 160 152L 151.2 149.6z"/>
<path style="stroke:none; fill:#de4354" d="M 127.2 150.4L 128.8 153.6L 129.6 153.6C 129.061 151.762 128.828 151.381 127.2 150.4z"/>
<path style="stroke:none; fill:#e6616e" d="M 129.6 152L 129.6 153.6L 131.2 153.6L 131.2 152L 129.6 152z"/>
</g>
</svg>