<?xml version="1.0" encoding="UTF-8" standalone="yes"?>
<!-- Created with sK1/UniConvertor (http://sk1project.org/) -->
<svg xmlns="http://www.w3.org/2000/svg" xmlns:xlink="http://www.w3.org/1999/xlink"
  width="177.6pt" height="178.4pt" viewBox="0 0 177.6 178.4"
  fill-rule="evenodd">
<g>
<path style="stroke:none; fill:#414f5f" d="M 0 0L 0 0.799988L 177.6 0.799988C 172.839 -1.19772 165.936 0 160.8 0L 124.8 0L 0 0z"/>
<path style="stroke:none; fill:#30465c" d="M 0 0.799988L 0 178.4L 177.6 178.4L 177.6 165.6C 173.804 165.6 165.042 167.227 162.194 164.318C 157.878 159.909 160.798 142.758 160.8 136.8C 160.801 134.265 160.238 130.48 162.194 128.482C 165.042 125.573 173.804 127.2 177.6 127.2L 177.6 116.8C 166.85 116.8 145.582 121.049 140.594 108C 138.892 103.547 140.797 97.492 140.8 92.8L 82.4 92.8C 75.6659 92.8 64.5165 94.92 58.4118 91.86C 54.2099 89.7536 52.2451 85.1728 49.5661 81.6L 32.9037 60C 26.4213 51.4418 19.3686 43.2289 13.2568 34.4C 10.8811 30.9682 8.64384 26.4037 12.5586 23.1148C 15.5877 20.5701 21.1264 21.6 24.8 21.6L 56 21.6L 177.6 21.6L 177.6 0.799988L 0 0.799988z"/>
<path style="stroke:none; fill:#353535" d="M 12.8 21.6L 12.8 22.4L 177.6 22.4C 173.034 20.4841 166.523 21.6 161.6 21.6L 128.8 21.6L 12.8 21.6z"/>
<path style="stroke:none; fill:#5f6c79" d="M 12.8 22.4L 12.8 23.2L 177.6 23.2C 173.034 21.2841 166.523 22.4 161.6 22.4L 128.8 22.4L 12.8 22.4M 11.2 23.2L 12 24L 11.2 23.2z"/>
<path style="stroke:none; fill:#acb4b8" d="M 12 23.2L 12 24L 14.4 24C 13.4013 23.4521 13.1613 23.401 12 23.2z"/>
<path style="stroke:none; fill:#d5d6d6" d="M 14.4 23.2L 14.4 24L 177.6 24C 173.034 22.0841 166.523 23.2 161.6 23.2L 128.8 23.2L 14.4 23.2z"/>
<path style="stroke:none; fill:#7b8792" d="M 10.4 24L 11.2 24.8L 10.4 24z"/>
<path style="stroke:none; fill:#efeff3" d="M 10.4 26.4C 16.1506 23.9633 22.6586 24.8 28.8 24.8L 61.6 24.8L 177.6 24.8C 167.674 20.6349 150.012 24 139.2 24L 49.6 24L 20.8 24C 17.1428 24 12.5924 23.0183 10.4 26.4z"/>
<path style="stroke:none; fill:#c6c6c9" d="M 12 24.8L 12.8 25.6L 12 24.8z"/>
<path style="stroke:none; fill:#6d6f6c" d="M 12.8 24.8L 12.8 25.6L 177.6 25.6C 173.034 23.6841 166.523 24.8 161.6 24.8L 128.8 24.8L 12.8 24.8z"/>
<path style="stroke:none; fill:#acb4b8" d="M 9.86664 26.1333C 9.82224 26.1777 9.77776 27.0222 10.1334 26.6666C 10.1778 26.6221 10.2222 25.7778 9.86664 26.1333z"/>
<path style="stroke:none; fill:#6d6f6c" d="M 11.2 25.6L 12 26.4L 11.2 25.6z"/>
<path style="stroke:none; fill:#070707" d="M 11.2 26.4L 11.2 27.2C 25.4948 24.5461 41.4759 26.4 56 26.4L 140.8 26.4C 139.618 28.2581 138.485 29.9898 137.6 32L 177.6 32L 177.6 25.6L 64 25.6C 47.9897 25.6 26.523 21.8708 11.2 26.4z"/>
<path style="stroke:none; fill:#414f5f" d="M 10.4 26.4L 11.2 27.2L 10.4 26.4z"/>
<path style="stroke:none; fill:#1c1c1c" d="M 9.6 28C 12.0017 35.5869 18.3249 41.8195 23.1074 48.0315L 52 85.6C 66.384 82.1752 83.6304 85.052 98.3968 84.796C 102.162 84.7312 105.104 82.66 108.801 82.4352C 131.55 81.052 154.804 82.4 177.6 82.4L 177.6 81.6L 92.8 82.4C 84.4472 82.4 67.4898 85.6576 60.1679 81.5896C 55.5486 79.023 52.5595 71.4542 49.7327 67.2C 41.9635 55.5078 33.8137 43.907 26.4 32L 177.6 32.8L 177.6 32L 137.6 32C 138.782 30.1419 139.915 28.4102 140.8 26.4L 50.4 26.4C 38.2677 26.4 20.8578 23.2496 9.6 28z"/>
<path style="stroke:none; fill:#29292a" d="M 26.4 33.6C 37.8172 30.8818 51.4836 32.8 63.2 32.8L 136.8 32.8C 129.808 41.9039 124.226 52.1274 117.753 61.6C 113.758 67.4448 107.756 74.5666 106.4 81.6L 177.6 81.6L 177.6 32.8L 64.8 32L 36.8 32C 33.5454 32 28.6785 30.9926 26.4 33.6z"/>
<path style="stroke:none; fill:#353535" d="M 27.2 32.8C 32.0234 45.3429 42.8375 57.558 50.2642 68.8C 52.6037 72.3414 55.3894 79.3592 59.5031 81.1288C 63.3002 82.7624 69.5183 81.6 73.6 81.6L 106.4 81.6C 111.938 64.1086 127.886 48.8138 136.8 32.8L 27.2 32.8z"/>
<path style="stroke:none; fill:#29292a" d="M 59.2 81.6L 59.2 82.4L 104.8 82.4C 100.627 80.6488 94.8952 81.6 90.4 81.6L 59.2 81.6z"/>
<path style="stroke:none; fill:#070707" d="M 52.8 84.8L 52.8 85.6L 177.6 85.6L 177.6 82.4C 135.58 82.4 94.6424 84.8 52.8 84.8z"/>
<path style="stroke:none; fill:#353535" d="M 52 85.6L 52 86.4L 177.6 86.4C 167.864 82.3144 150.602 85.6 140 85.6L 52 85.6z"/>
<path style="stroke:none; fill:#5f6c79" d="M 53.0666 86.9336C 53.0222 86.9776 52.9778 87.8224 53.3334 87.4664C 53.3778 87.4224 53.4222 86.5776 53.0666 86.9336z"/>
<path style="stroke:none; fill:#acb4b8" d="M 53.6 88C 66.4375 84.944 82.0184 87.2 95.2 87.2L 177.6 87.2C 169.959 83.9936 157.098 86.4 148.8 86.4L 83.2 86.4L 61.6 86.4C 58.7869 86.4 55.5478 85.7712 53.6 88z"/>
<path style="stroke:none; fill:#efeff3" d="M 54.4 87.2L 54.4 88L 176 88C 166.454 83.9944 149.593 87.2 139.2 87.2L 54.4 87.2z"/>
<path style="stroke:none; fill:#85929e" d="M 176.534 87.4664C 176.178 87.8224 177.022 87.7776 177.066 87.7336C 177.422 87.3776 176.578 87.4224 176.534 87.4664z"/>
<path style="stroke:none; fill:#e3e3e6" d="M 54.4 88L 54.4 88.8C 63.4169 92.7912 74.3313 91.2 84 91.2L 141.6 91.2C 141.599 97.16 139.159 104.967 142.472 110.356C 147.346 118.286 169.385 114.4 177.6 114.4L 177.6 100L 142.4 100L 143.2 92.8C 153.907 94.612 166.64 92.8 177.6 92.8L 177.6 91.2C 175.416 91.1064 173.349 90.8008 171.2 90.4L 172 88L 54.4 88z"/>
<path style="stroke:none; fill:#6d6f6c" d="M 172 88L 172 88.8L 176 88.8C 174.585 88.1768 173.571 88.0704 172 88z"/>
<path style="stroke:none; fill:#070707" d="M 172 88.8L 172 90.4C 174.69 90.4 176.963 90.9728 177.6 88L 172 88.8z"/>
<path style="stroke:none; fill:#6d6f6c" d="M 54.4 88.8L 55.2 89.6L 54.4 88.8z"/>
<path style="stroke:none; fill:#a1a7ac" d="M 171.466 89.3336C 171.422 89.3776 171.378 90.2224 171.734 89.8664C 171.778 89.8224 171.822 88.9776 171.466 89.3336z"/>
<path style="stroke:none; fill:#85929e" d="M 55.2 89.6C 55.6361 90.908 55.4919 90.764 56.8 91.2C 56.3639 89.892 56.5082 90.036 55.2 89.6z"/>
<path style="stroke:none; fill:#efeff3" d="M 56 89.6C 60.6725 94.3712 72.8531 92 79.2 92L 141.6 92L 141.6 91.2L 88.8 91.2C 77.8273 91.2 66.7202 92.0504 56 89.6z"/>
<path style="stroke:none; fill:#414f5f" d="M 172.8 90.4L 172.8 91.2L 175.2 91.2C 174.202 90.652 173.962 90.6008 172.8 90.4z"/>
<path style="stroke:none; fill:#6d6f6c" d="M 175.2 90.4L 175.2 91.2L 177.6 91.2C 176.602 90.652 176.362 90.6008 175.2 90.4M 56.8 91.2L 57.6 92L 56.8 91.2M 58.4 92L 59.2 92.8L 58.4 92z"/>
<path style="stroke:none; fill:#c6c6c9" d="M 59.2 92L 59.2 92.8L 141.6 92.8C 134.914 89.9944 124.048 92 116.8 92L 59.2 92z"/>
<path style="stroke:none; fill:#5f6c79" d="M 141.066 93.3336C 141.022 93.3776 140.978 94.2224 141.334 93.8664C 141.378 93.8224 141.422 92.9776 141.066 93.3336z"/>
<path style="stroke:none; fill:#d5d6d6" d="M 143.2 92.8L 142.4 100L 177.6 100L 177.6 92.8C 166.185 92.8 154.59 93.3968 143.2 92.8z"/>
<path style="stroke:none; fill:#6d6f6c" d="M 141.066 94.9336C 141.022 94.9776 140.978 95.8224 141.334 95.4664C 141.378 95.4224 141.422 94.5776 141.066 94.9336z"/>
<path style="stroke:none; fill:#85929e" d="M 140.8 96L 140.8 98.4L 141.6 98.4C 141.399 97.2384 141.348 96.9984 140.8 96z"/>
<path style="stroke:none; fill:#c6c6c9" d="M 141.066 98.9336C 141.022 98.9776 140.978 99.8224 141.334 99.4664C 141.378 99.4224 141.422 98.5776 141.066 98.9336z"/>
<path style="stroke:none; fill:#7b8792" d="M 140 100L 140 106.4L 140.8 106.4C 140.794 104.131 140.878 102.09 140 100z"/>
<path style="stroke:none; fill:#5f6c79" d="M 140 106.4L 140 108.8L 140.8 108.8C 140.599 107.638 140.548 107.398 140 106.4z"/>
<path style="stroke:none; fill:#acb4b8" d="M 141.066 107.734C 141.022 107.778 140.978 108.622 141.334 108.266C 141.378 108.222 141.422 107.378 141.066 107.734z"/>
<path style="stroke:none; fill:#353535" d="M 17.6 108.8L 17.6 109.6L 119.2 109.6C 111.178 106.234 97.5168 108.8 88.8 108.8L 17.6 108.8z"/>
<path style="stroke:none; fill:#414f5f" d="M 141.066 109.334C 141.022 109.378 140.978 110.222 141.334 109.866C 141.378 109.822 141.422 108.978 141.066 109.334z"/>
<path style="stroke:none; fill:#353535" d="M 16 109.6L 16 154.4L 16.8 154.4L 16.8 124C 16.8 119.505 17.7511 113.773 16 109.6z"/>
<path style="stroke:none; fill:#85929e" d="M 17.6 109.6L 17.6 110.4L 119.2 110.4C 111.178 107.034 97.5168 109.6 88.8 109.6L 17.6 109.6z"/>
<path style="stroke:none; fill:#c6c6c9" d="M 141.6 109.6L 142.4 110.4L 141.6 109.6z"/>
<path style="stroke:none; fill:#5f6c79" d="M 16.8 110.4L 16.8 154.4L 17.6 154.4L 17.6 124.8C 17.6 120.305 18.5511 114.573 16.8 110.4z"/>
<path style="stroke:none; fill:#d5d6d6" d="M 17.6 110.4L 17.6 142.4C 17.6 145.385 16.4613 151.442 18.4222 153.918C 21.4826 157.782 38.4473 155.2 43.2 155.2L 118.4 155.2L 118.4 110.4L 17.6 110.4z"/>
<path style="stroke:none; fill:#acb4b8" d="M 118.4 110.4L 118.4 154.4L 119.2 154.4L 119.2 124.8C 119.2 120.305 120.151 114.573 118.4 110.4z"/>
<path style="stroke:none; fill:#414f5f" d="M 119.2 110.4L 119.2 153.6L 120 153.6C 120.998 144.245 120 134.238 120 124.8C 120 120.305 120.951 114.573 119.2 110.4z"/>
<path style="stroke:none; fill:#7b8792" d="M 141.6 110.4L 142.4 111.2L 141.6 110.4z"/>
<path style="stroke:none; fill:#353535" d="M 120 111.2L 120 150.4L 120.8 150.4C 120.8 139.37 124.247 121.322 120 111.2z"/>
<path style="stroke:none; fill:#a1a7ac" d="M 142.4 111.2L 143.2 112L 142.4 111.2M 143.2 112L 144 112.8L 143.2 112z"/>
<path style="stroke:none; fill:#85929e" d="M 144 112.8L 144.8 113.6L 144 112.8z"/>
<path style="stroke:none; fill:#6d6f6c" d="M 144.8 113.6L 145.6 114.4L 144.8 113.6z"/>
<path style="stroke:none; fill:#c6c6c9" d="M 146.134 113.866C 145.778 114.222 146.622 114.178 146.666 114.134C 147.022 113.778 146.178 113.822 146.134 113.866z"/>
<path style="stroke:none; fill:#85929e" d="M 146.4 114.4L 146.4 115.2L 148.8 115.2C 147.802 114.652 147.562 114.601 146.4 114.4z"/>
<path style="stroke:none; fill:#d5d6d6" d="M 148.8 114.4L 148.8 115.2L 177.6 115.2C 169.952 111.991 157.11 114.4 148.8 114.4z"/>
<path style="stroke:none; fill:#c6c6c9" d="M 24.8 119.2L 19.2 119.2L 19.2 120.8L 24.8 120.8L 24.8 125.6C 22.8464 125.512 21.1018 125.258 19.2 124.8L 19.2 128.8C 22.1552 128.097 24.9714 128.002 28 128L 28 132.8L 19.2 132.8L 19.2 136L 20 136C 22.7855 133.89 26.2086 134.4 29.6 134.4L 29.6 139.2C 26.0912 139.2 22.0917 140.026 20 136.8L 19.2 136.8L 19.2 141.6C 21.6316 141.021 23.9026 140.821 26.4 140.8L 26.4 146.4C 23.9026 146.379 21.6316 146.179 19.2 145.6L 19.2 148L 20 148C 24.0585 147.407 24.6826 149.993 24.8 153.6C 22.8464 153.512 21.1018 153.258 19.2 152.8C 22.5289 156.61 35.0911 154.4 40 154.4L 93.6 154.4C 101.401 154.4 111.164 157.302 111.2 147.2L 117.6 147.2C 117.6 140.076 119.352 130.442 116 124L 115.2 124L 114.4 124C 112.554 125.407 111.126 125.534 108.8 125.6L 108.8 120.8C 111.829 120.802 114.645 120.897 117.6 121.6C 116.802 117.874 112.735 120.258 111.2 116.8L 110.4 116.8C 108.615 118.362 107.147 118.833 104.8 119.2C 103.848 113.717 97.1384 115.235 92.7688 115.26C 80.7904 115.327 68.7734 115.479 56.8 115.2L 56.8 116C 59.0254 116.65 59.7019 117.162 60.8 119.2L 55.2 119.2C 54.058 112.623 25.942 112.623 24.8 119.2z"/>
<path style="stroke:none; fill:#7b8792" d="M 148.8 115.2L 148.8 116L 177.6 116C 169.952 112.791 157.11 115.2 148.8 115.2z"/>
<path style="stroke:none; fill:#e3e3e6" d="M 20 116L 20 119.2L 24.8 119.2L 24.8 116L 20 116z"/>
<path style="stroke:none; fill:#d5d6d6" d="M 27.2 116L 27.2 116.8L 32 116.8C 30.3583 116.101 29.0022 116.038 27.2 116M 34.4 116L 34.4 116.8L 36.8 119.2L 39.2 119.2C 38.3209 116.543 37.1278 116.21 34.4 116z"/>
<path style="stroke:none; fill:#e3e3e6" d="M 40.8 116L 40.8 116.8C 43.3807 118.514 45.2563 119.432 46.4 116L 40.8 116M 48 116L 48 119.2L 53.6 119.2C 52.6219 116.25 50.9533 116.096 48 116z"/>
<path style="stroke:none; fill:#d5d6d6" d="M 69.6 116L 69.6 116.8C 71.2023 117.802 72.6135 118.594 74.4 119.2C 73.8595 117.708 73.5234 117.71 74.4 116.8C 72.7583 116.101 71.4022 116.038 69.6 116M 76.8 116L 76.8 116.8C 78.4022 117.802 79.8135 118.594 81.6 119.2L 81.6 116L 76.8 116z"/>
<path style="stroke:none; fill:#e3e3e6" d="M 84 116L 84 116.8C 85.7432 117.381 85.424 117.151 84.8 118.4L 88 119.2C 88.7888 118.017 88.8 118.238 88.8 116.8C 87.1152 116.285 85.764 116.075 84 116M 90.4 119.2C 93.176 119.002 95.1688 118.841 96 116C 93.0464 116.096 91.3784 116.25 90.4 119.2M 98.4 116L 98.4 116.8C 100.143 117.381 99.824 117.151 99.2 118.4L 103.2 119.2C 102.321 116.543 101.128 116.21 98.4 116z"/>
<path style="stroke:none; fill:#353535" d="M 148.8 116L 148.8 116.8L 177.6 116.8C 169.952 113.591 157.11 116 148.8 116z"/>
<path style="stroke:none; fill:#efeff3" d="M 26.4 116.8L 26.4 119.2C 29.0276 119.116 30.5414 119.054 32 116.8L 26.4 116.8M 34.4 116.8C 34.7859 118.691 34.9088 118.814 36.8 119.2C 35.999 117.661 35.938 117.522 34.4 116.8M 40.8 116.8C 41.1859 118.691 41.3088 118.814 43.2 119.2C 42.399 117.661 42.338 117.522 40.8 116.8M 55.2 116.8L 55.2 119.2C 57.5017 118.946 58.6675 118.704 60 116.8L 55.2 116.8z"/>
<path style="stroke:none; fill:#d5d6d6" d="M 60 116.8C 59.5639 118.108 59.7082 117.964 58.4 118.4L 58.4 119.2C 60.2006 118.822 60.8942 118.512 60 116.8z"/>
<path style="stroke:none; fill:#efeff3" d="M 62.4 116.8L 62.4 119.2C 64.8052 119.023 65.8924 118.836 67.2 116.8L 62.4 116.8M 69.6 116.8C 70.0624 118.958 70.6091 119.031 72.8 119.2L 72.8 118.4L 69.6 116.8M 72.8 116.8C 73.2361 118.108 73.0918 117.964 74.4 118.4L 74.4 116.8L 72.8 116.8M 76.8 116.8C 77.2624 118.958 77.8091 119.031 80 119.2L 80 118.4L 76.8 116.8M 83.2 116.8C 83.7232 119.243 84.8056 119.149 87.2 119.2L 87.2 118.4C 84.8648 118.01 85.1912 118.434 85.6 116.8L 83.2 116.8M 97.6 116.8C 98.0624 118.958 98.6088 119.031 100.8 119.2L 100.8 118.4C 99.0568 117.819 99.376 118.049 100 116.8L 97.6 116.8M 104.8 116.8L 104.8 119.2C 107.102 118.946 108.267 118.704 109.6 116.8L 104.8 116.8z"/>
<path style="stroke:none; fill:#e3e3e6" d="M 112 116.8L 112 119.2L 116.8 119.2C 115.28 117.59 114.191 117.111 112 116.8z"/>
<path style="stroke:none; fill:#efeff3" d="M 115.2 116.8L 115.2 118.4L 116.8 118.4L 116.8 116.8L 115.2 116.8z"/>
<path style="stroke:none; fill:#c6c6c9" d="M 22.1334 117.866C 21.7778 118.222 22.6222 118.178 22.6666 118.134C 23.0222 117.778 22.1778 117.822 22.1334 117.866z"/>
<path style="stroke:none; fill:#efeff3" d="M 20 120.8L 20 125.6L 24.8 125.6L 24.8 120.8L 20 120.8M 26.4 120.8L 26.4 125.6L 28 125.6L 28 120.8L 26.4 120.8z"/>
<path style="stroke:none; fill:#d5d6d6" d="M 28 120.8L 28 122.4L 29.6 122.4L 29.6 120.8L 28 120.8z"/>
<path style="stroke:none; fill:#e3e3e6" d="M 29.6 120.8C 28.7218 122.466 28.2524 123.736 28 125.6L 31.2 125.6L 31.2 120.8L 29.6 120.8M 33.6 120.8C 33.6616 122.916 33.5973 124.213 35.2 125.6L 34.4 121.6C 36.2262 122.757 36.4659 123.449 36.8 125.6L 38.4 125.6L 38.4 120.8L 33.6 120.8z"/>
<path style="stroke:none; fill:#efeff3" d="M 40 120.8L 40 125.6C 41.6739 125.275 41.6158 125.426 42.4 124L 43.2 124C 43.8143 125.051 43.7486 124.986 44.8 125.6L 44.8 120.8L 40 120.8M 47.2 120.8L 47.2 125.6L 52 125.6L 52 120.8C 50.6164 121.505 50.489 121.806 49.6 123.2C 48.711 121.806 48.5836 121.505 47.2 120.8z"/>
<path style="stroke:none; fill:#d5d6d6" d="M 48.8 120.8L 48.8 123.2L 50.4 123.2L 50.4 120.8L 48.8 120.8z"/>
<path style="stroke:none; fill:#e3e3e6" d="M 53.6 120.8L 53.6 125.6L 56 125.6C 55.7453 123.298 55.504 122.133 53.6 120.8z"/>
<path style="stroke:none; fill:#efeff3" d="M 56.8 120.8L 56.8 125.6C 58.5847 124.042 58.5847 122.358 56.8 120.8M 60.8 120.8L 60.8 125.6C 61.8513 124.986 61.7857 125.051 62.4 124L 63.2 124L 64 124C 64.6143 125.051 64.5486 124.986 65.6 125.6L 65.6 120.8L 60.8 120.8M 68 120.8L 68 125.6C 69.0513 124.986 68.9857 125.051 69.6 124L 70.4 124C 71.0143 125.051 70.9486 124.986 72 125.6C 72.515 123.915 72.7247 122.564 72.8 120.8C 70.9088 121.186 70.7859 121.309 70.4 123.2L 69.6 123.2C 69.2754 121.526 69.4266 121.584 68 120.8z"/>
<path style="stroke:none; fill:#e3e3e6" d="M 74.4 120.8L 74.4 125.6L 75.2 125.6C 75.1622 123.798 75.0994 122.442 74.4 120.8z"/>
<path style="stroke:none; fill:#efeff3" d="M 75.2 120.8L 75.2 125.6L 76 125.6L 76.8 124L 77.6 124L 77.6 125.6L 79.2 125.6L 79.2 120.8C 77.5894 121.201 76.7691 121.31 75.2 120.8z"/>
<path style="stroke:none; fill:#e3e3e6" d="M 76 120.8L 76 122.4L 77.6 122.4L 77.6 120.8L 76 120.8z"/>
<path style="stroke:none; fill:#efeff3" d="M 81.6 120.8L 81.6 125.6L 84.8 124L 84 125.6L 84.8 125.6C 85.4992 123.958 85.5624 122.602 85.6 120.8C 84.5488 121.414 84.6144 121.349 84 122.4L 83.2 122.4C 82.5856 121.349 82.6512 121.414 81.6 120.8M 88 120.8L 88 125.6C 89.0512 124.986 88.9856 125.051 89.6 124L 90.4 124L 91.2 124C 91.8144 125.051 91.7488 124.986 92.8 125.6L 92.8 120.8L 88 120.8M 95.2 120.8L 95.2 125.6L 100 125.6L 100 120.8L 95.2 120.8M 101.6 120.8L 101.6 125.6C 102.651 124.986 102.586 125.051 103.2 124L 104 124L 104.8 124C 105.414 125.051 105.349 124.986 106.4 125.6L 106.4 120.8L 101.6 120.8M 108.8 120.8L 108.8 125.6C 111.127 125.576 113.89 124.791 116 125.6L 116.8 125.6L 116.8 120.8L 108.8 120.8z"/>
<path style="stroke:none; fill:#d5d6d6" d="M 34.4 121.6C 34.9184 123.515 35.2259 124.429 36.8 125.6L 36.8 121.6L 34.4 121.6z"/>
<path style="stroke:none; fill:#acb4b8" d="M 42.4 121.6L 43.2 122.4L 42.4 121.6z"/>
<path style="stroke:none; fill:#353535" d="M 131.2 124.8L 131.2 125.6C 136.387 124.228 140.292 124.129 145.6 124.8C 141.619 122.08 135.373 122.792 131.2 124.8z"/>
<path style="stroke:none; fill:#c6c6c9" d="M 49.3334 124.266C 48.9778 124.622 49.8222 124.578 49.8666 124.534C 50.2222 124.178 49.3778 124.222 49.3334 124.266z"/>
<path style="stroke:none; fill:#d5d6d6" d="M 103.2 124L 103.2 125.6L 104.8 125.6L 104.8 124L 103.2 124z"/>
<path style="stroke:none; fill:#7b8792" d="M 134.934 124.266C 134.578 124.622 135.422 124.578 135.466 124.534C 135.822 124.178 134.978 124.222 134.934 124.266z"/>
<path style="stroke:none; fill:#acb4b8" d="M 136 124L 136 124.8L 141.6 124.8C 139.734 124.012 138.034 124.015 136 124z"/>
<path style="stroke:none; fill:#7b8792" d="M 142.134 124.266C 141.778 124.622 142.622 124.578 142.666 124.534C 143.022 124.178 142.178 124.222 142.134 124.266M 132.8 124.8L 133.6 125.6L 132.8 124.8z"/>
<path style="stroke:none; fill:#efeff3" d="M 133.684 125.394C 128.545 127.575 129.6 134.721 129.6 139.2C 129.6 149.399 127.539 170.428 144.756 162.749C 149.702 160.542 148.8 154.035 148.8 149.6C 148.8 139.839 150.658 118.19 133.684 125.394z"/>
<path style="stroke:none; fill:#acb4b8" d="M 144 124.8L 144.8 125.6L 144 124.8z"/>
<path style="stroke:none; fill:#5f6c79" d="M 144.8 124.8L 145.6 125.6L 144.8 124.8z"/>
<path style="stroke:none; fill:#a1a7ac" d="M 145.6 125.6L 146.4 126.4L 145.6 125.6z"/>
<path style="stroke:none; fill:#acb4b8" d="M 146.4 126.4L 147.2 127.2L 146.4 126.4M 28.8 127.2L 28.8 132L 29.6 132C 29.5622 130.198 29.4994 128.842 28.8 127.2z"/>
<path style="stroke:none; fill:#d5d6d6" d="M 29.6 127.2L 29.6 132.8C 36.0325 132.589 36.0325 127.411 29.6 127.2M 36.8 127.2L 36.8 128L 41.6 128C 39.9583 127.301 38.6022 127.238 36.8 127.2z"/>
<path style="stroke:none; fill:#e3e3e6" d="M 44 127.2L 44 128L 48 128L 48 132C 49.297 128.586 47.1834 127.448 44 127.2z"/>
<path style="stroke:none; fill:#d5d6d6" d="M 50.4 127.2L 50.4 128L 55.2 128C 53.5583 127.301 52.2022 127.238 50.4 127.2z"/>
<path style="stroke:none; fill:#e3e3e6" d="M 57.6 127.2L 57.6 128L 61.6 128L 61.6 132C 62.897 128.586 60.7834 127.448 57.6 127.2z"/>
<path style="stroke:none; fill:#d5d6d6" d="M 64.8 127.2L 64.8 128L 68.8 128C 67.3848 127.377 66.3712 127.27 64.8 127.2z"/>
<path style="stroke:none; fill:#efeff3" d="M 71.2 127.2L 71.2 132L 76 132L 76 127.2L 71.2 127.2z"/>
<path style="stroke:none; fill:#e3e3e6" d="M 84.8 127.2L 84.8 128L 88.8 128C 87.3848 127.377 86.3712 127.27 84.8 127.2z"/>
<path style="stroke:none; fill:#d5d6d6" d="M 92 127.2L 92 128L 96 128L 96 132L 96.8 132L 96.8 127.2L 92 127.2z"/>
<path style="stroke:none; fill:#e3e3e6" d="M 104.8 127.2C 105.136 137.442 115.042 127.536 104.8 127.2z"/>
<path style="stroke:none; fill:#efeff3" d="M 112.8 127.2C 112.918 131.307 114.354 135.069 114.4 139.2C 117.992 136.61 116.8 131.237 116.8 127.2L 112.8 127.2z"/>
<path style="stroke:none; fill:#acb4b8" d="M 130.4 127.2L 131.2 128L 130.4 127.2z"/>
<path style="stroke:none; fill:#7b8792" d="M 147.2 127.2L 148 128L 147.2 127.2z"/>
<path style="stroke:none; fill:#353535" d="M 161.6 127.2L 161.6 128L 177.6 128C 173.028 126.082 166.535 127.2 161.6 127.2z"/>
<path style="stroke:none; fill:#efeff3" d="M 20 128L 20 132L 20.8 132C 22.927 130.883 25.5547 131.93 28 132L 28 128L 20 128M 30.4 128L 30.4 132L 34.4 132L 34.4 128L 30.4 128M 36.8 128L 36.8 132L 41.6 132L 41.6 128L 36.8 128M 44 128L 44 132L 48 132L 48 128L 44 128M 50.4 128L 50.4 132L 55.2 132L 55.2 128L 50.4 128M 57.6 128L 57.6 132L 61.6 132L 61.6 128L 57.6 128z"/>
<path style="stroke:none; fill:#e3e3e6" d="M 64 128L 64 132L 64.8 132C 64.7299 130.429 64.6231 129.415 64 128z"/>
<path style="stroke:none; fill:#efeff3" d="M 64.8 128L 64.8 132L 68.8 132L 68.8 128L 64.8 128z"/>
<path style="stroke:none; fill:#e3e3e6" d="M 77.6 128L 77.6 132L 78.4 132C 78.3299 130.429 78.2231 129.415 77.6 128z"/>
<path style="stroke:none; fill:#efeff3" d="M 78.4 128L 78.4 132L 82.4 132L 82.4 128L 78.4 128M 84.8 128L 84.8 132L 89.6 132L 89.6 128L 84.8 128M 92 128L 92 132L 96 132L 96 128L 92 128M 98.4 128L 98.4 132L 100 132L 100 128L 98.4 128z"/>
<path style="stroke:none; fill:#e3e3e6" d="M 100 128C 99.7576 129.835 99.5376 130.57 98.4 132L 98.4 132.8L 103.2 132.8L 103.2 132C 102.062 130.569 101.842 129.835 101.6 128L 100 128z"/>
<path style="stroke:none; fill:#efeff3" d="M 101.6 128L 101.6 132L 103.2 132L 103.2 128L 101.6 128M 105.6 128L 105.6 132L 107.2 132L 107.2 128L 105.6 128z"/>
<path style="stroke:none; fill:#6d6f6c" d="M 129.6 128L 130.4 128.8L 129.6 128z"/>
<path style="stroke:none; fill:#a1a7ac" d="M 161.6 128L 161.6 128.8L 177.6 128.8C 173.028 126.882 166.535 128 161.6 128z"/>
<path style="stroke:none; fill:#d5d6d6" d="M 38.4 128.8L 38.4 131.2L 40 131.2L 40 128.8L 38.4 128.8M 52 128.8L 52 131.2L 53.6 131.2L 53.6 128.8L 52 128.8M 59.2 128.8L 59.2 130.4L 60.8 130.4L 60.8 128.8L 59.2 128.8z"/>
<path style="stroke:none; fill:#c6c6c9" d="M 66.6666 129.334C 66.6222 129.378 66.5778 130.222 66.9334 129.866C 66.9778 129.822 67.0222 128.978 66.6666 129.334M 86.4 128.8L 86.4 131.2L 88 131.2L 88 128.8L 86.4 128.8z"/>
<path style="stroke:none; fill:#d5d6d6" d="M 92.8 128.8L 92.8 130.4L 94.4 130.4L 94.4 128.8L 92.8 128.8z"/>
<path style="stroke:none; fill:#acb4b8" d="M 129.6 128.8L 130.4 129.6L 129.6 128.8z"/>
<path style="stroke:none; fill:#7b8792" d="M 148 128.8L 148.8 129.6L 148 128.8z"/>
<path style="stroke:none; fill:#414f5f" d="M 160.8 128.8L 160.8 164L 161.6 164C 161.6 154.016 164.648 137.97 160.8 128.8z"/>
<path style="stroke:none; fill:#d5d6d6" d="M 161.6 128.8L 161.6 164L 177.6 164L 177.6 163.2L 162.4 163.2C 162.4 153.425 165.368 137.781 161.6 128.8z"/>
<path style="stroke:none; fill:#efeff3" d="M 162.4 128.8L 162.4 163.2L 177.6 163.2L 177.6 157.6C 174.178 157.6 167.102 158.937 164.482 156.318C 161.65 153.484 161.659 133.488 165.054 131.222C 168.035 129.233 174.146 130.4 177.6 130.4L 177.6 128.8L 162.4 128.8z"/>
<path style="stroke:none; fill:#d5d6d6" d="M 32 129.6L 32 131.2L 33.6 131.2L 33.6 129.6L 32 129.6M 45.6 129.6L 45.6 131.2L 47.2 131.2L 47.2 129.6L 45.6 129.6M 72.8 129.6L 72.8 131.2L 74.4 131.2L 74.4 129.6L 72.8 129.6z"/>
<path style="stroke:none; fill:#c6c6c9" d="M 148.266 130.134C 148.222 130.178 148.178 131.022 148.534 130.666C 148.578 130.622 148.622 129.778 148.266 130.134z"/>
<path style="stroke:none; fill:#e3e3e6" d="M 20.8 130.4L 20 132.8L 28 132.8L 28 132C 25.8098 131.857 24.3152 131.471 22.4 130.4L 22.4 132L 21.6 132C 21.6 130.518 21.8398 130.92 20.8 130.4z"/>
<path style="stroke:none; fill:#c6c6c9" d="M 21.8666 130.934C 21.8222 130.978 21.7778 131.822 22.1334 131.466C 22.1778 131.422 22.2222 130.578 21.8666 130.934M 114.666 130.934C 114.622 130.978 114.578 131.822 114.934 131.466C 114.978 131.422 115.022 130.578 114.666 130.934z"/>
<path style="stroke:none; fill:#7b8792" d="M 129.066 130.934C 129.022 130.978 128.978 131.822 129.334 131.466C 129.378 131.422 129.422 130.578 129.066 130.934z"/>
<path style="stroke:none; fill:#353535" d="M 149.6 130.4L 149.6 158.4L 150.4 158.4C 151.692 151.443 153.707 136.412 149.6 130.4z"/>
<path style="stroke:none; fill:#a1a7ac" d="M 164 130.4L 164 131.2L 177.6 131.2C 173.621 129.53 168.29 130.4 164 130.4z"/>
<path style="stroke:none; fill:#5f6c79" d="M 148.8 131.2L 148.8 136.8L 149.6 136.8C 149.585 134.766 149.588 133.066 148.8 131.2z"/>
<path style="stroke:none; fill:#c6c6c9" d="M 163.2 131.2L 163.2 149.6C 163.201 151.694 162.6 155.287 164.482 156.778C 167.21 158.938 174.266 157.6 177.6 157.6L 177.6 156.8L 164 156.8C 164 149.329 166.089 138.085 163.2 131.2z"/>
<path style="stroke:none; fill:#29292a" d="M 164 132.8C 168.474 131.735 173.026 132 177.6 132C 174.324 130.626 166.467 129.977 164 132.8z"/>
<path style="stroke:none; fill:#e3e3e6" d="M 51.2 132L 51.2 132.8L 55.2 132.8C 53.7848 132.177 52.7713 132.07 51.2 132z"/>
<path style="stroke:none; fill:#d5d6d6" d="M 71.2 132L 71.2 132.8L 75.2 132.8C 73.7848 132.177 72.7713 132.07 71.2 132M 78.4 132L 78.4 132.8L 82.4 132.8C 80.9848 132.177 79.9713 132.07 78.4 132z"/>
<path style="stroke:none; fill:#acb4b8" d="M 128.8 132L 128.8 138.4L 129.6 138.4C 129.594 136.131 129.678 134.09 128.8 132z"/>
<path style="stroke:none; fill:#1c1c1c" d="M 164.8 132L 164.8 156L 177.6 156.8L 177.6 156L 165.6 155.2L 165.6 132.8L 177.6 132.8C 173.821 131.214 168.872 132 164.8 132z"/>
<path style="stroke:none; fill:#e3e3e6" d="M 113.6 132.8L 113.6 139.2L 114.4 139.2C 114.394 136.931 114.478 134.89 113.6 132.8z"/>
<path style="stroke:none; fill:#353535" d="M 164 132.8L 164 156.8L 170.4 156.8L 170.4 156L 164.8 156C 164.8 149.159 166.648 139.11 164 132.8z"/>
<path style="stroke:none; fill:#29292a" d="M 165.6 132.8L 165.6 155.2L 171.2 155.2C 172.497 147.569 176.906 140.521 177.6 132.8L 165.6 132.8z"/>
<path style="stroke:none; fill:#efeff3" d="M 20 134.4L 20 139.2L 29.6 139.2L 29.6 134.4L 20 134.4z"/>
<path style="stroke:none; fill:#d5d6d6" d="M 31.2 134.4L 31.2 138.4L 32 138.4C 31.9299 136.829 31.8231 135.815 31.2 134.4z"/>
<path style="stroke:none; fill:#efeff3" d="M 32 134.4L 32 138.4L 36 138.4L 36 134.4L 32 134.4z"/>
<path style="stroke:none; fill:#e3e3e6" d="M 36 134.4L 36 138.4L 32 138.4L 32 139.2L 36.8 139.2C 36.7622 137.398 36.6994 136.042 36 134.4z"/>
<path style="stroke:none; fill:#efeff3" d="M 38.4 134.4L 38.4 139.2L 43.2 139.2L 43.2 134.4L 38.4 134.4M 45.6 134.4L 45.6 139.2L 50.4 139.2L 50.4 134.4L 45.6 134.4M 52 134.4L 52 139.2L 56.8 139.2L 56.8 134.4L 52 134.4M 59.2 134.4L 59.2 139.2L 64 139.2L 64 134.4L 59.2 134.4z"/>
<path style="stroke:none; fill:#e3e3e6" d="M 65.6 134.4L 65.6 138.4L 66.4 138.4C 66.3299 136.829 66.2231 135.815 65.6 134.4z"/>
<path style="stroke:none; fill:#efeff3" d="M 66.4 134.4L 66.4 139.2L 70.4 139.2L 70.4 134.4L 66.4 134.4M 72.8 134.4L 72.8 139.2C 76.2918 138.928 77.3279 137.892 77.6 134.4L 72.8 134.4z"/>
<path style="stroke:none; fill:#d5d6d6" d="M 79.2 134.4L 79.2 139.2L 80 139.2C 79.9622 137.398 79.8994 136.042 79.2 134.4z"/>
<path style="stroke:none; fill:#efeff3" d="M 80 134.4L 80 139.2L 84 139.2L 84 134.4L 80 134.4M 86.4 134.4L 86.4 139.2L 91.2 139.2L 91.2 134.4L 86.4 134.4M 92.8 134.4L 92.8 139.2L 97.6 139.2L 97.6 134.4L 92.8 134.4M 100 134.4L 100 139.2L 104.8 139.2L 104.8 134.4L 100 134.4M 107.2 134.4L 107.2 139.2L 112 139.2L 112 134.4L 107.2 134.4z"/>
<path style="stroke:none; fill:#d5d6d6" d="M 33.6 136L 33.6 137.6L 35.2 137.6L 35.2 136L 33.6 136z"/>
<path style="stroke:none; fill:#c6c6c9" d="M 54.1334 136.266C 53.7778 136.622 54.6222 136.578 54.6666 136.534C 55.0222 136.178 54.1778 136.222 54.1334 136.266z"/>
<path style="stroke:none; fill:#d5d6d6" d="M 60.8 136L 60.8 137.6L 62.4 137.6L 62.4 136L 60.8 136z"/>
<path style="stroke:none; fill:#c6c6c9" d="M 68.2666 136.534C 68.2222 136.578 68.1778 137.422 68.5334 137.066C 68.5778 137.022 68.6222 136.178 68.2666 136.534z"/>
<path style="stroke:none; fill:#e3e3e6" d="M 74.4 136L 74.4 137.6L 76 137.6L 76 136L 74.4 136z"/>
<path style="stroke:none; fill:#c6c6c9" d="M 81.8664 136.534C 81.8224 136.578 81.7776 137.422 82.1336 137.066C 82.1776 137.022 82.2224 136.178 81.8664 136.534z"/>
<path style="stroke:none; fill:#e3e3e6" d="M 88 136L 88 137.6L 89.6 137.6L 89.6 136L 88 136z"/>
<path style="stroke:none; fill:#414f5f" d="M 128 136L 128 154.4L 128.8 154.4C 128.8 148.826 130.163 141.156 128 136z"/>
<path style="stroke:none; fill:#1c1c1c" d="M 176.8 136C 174.847 142.205 171.846 148.719 171.2 155.2L 177.6 155.2C 177.6 149.414 179.045 141.35 176.8 136z"/>
<path style="stroke:none; fill:#85929e" d="M 148.8 136.8L 148.8 140.8L 149.6 140.8C 149.53 139.229 149.423 138.215 148.8 136.8z"/>
<path style="stroke:none; fill:#d5d6d6" d="M 128.8 138.4L 128.8 149.6L 129.6 149.6C 129.6 145.967 130.215 141.774 128.8 138.4z"/>
<path style="stroke:none; fill:#efeff3" d="M 28 140.8L 28 145.6L 32.8 145.6L 32.8 140.8L 28 140.8M 35.2 140.8L 35.2 145.6L 40 145.6L 40 140.8L 35.2 140.8z"/>
<path style="stroke:none; fill:#e3e3e6" d="M 41.6 140.8L 41.6 145.6L 42.4 145.6L 42.4 141.6C 43.5653 142.482 43.9173 142.834 44.8 144L 45.6 144L 45.6 141.6L 46.4 141.6L 46.4 145.6L 47.2 145.6L 47.2 140.8L 41.6 140.8z"/>
<path style="stroke:none; fill:#efeff3" d="M 48.8 140.8L 48.8 145.6L 53.6 145.6L 53.6 140.8L 48.8 140.8z"/>
<path style="stroke:none; fill:#d5d6d6" d="M 55.2 140.8L 55.2 145.6L 56 145.6C 55.9622 143.798 55.8994 142.442 55.2 140.8z"/>
<path style="stroke:none; fill:#efeff3" d="M 56 140.8L 56 145.6L 60 145.6L 60 140.8L 56 140.8z"/>
<path style="stroke:none; fill:#e3e3e6" d="M 62.4 140.8L 62.4 145.6L 63.2 145.6L 63.2 141.6L 67.2 141.6C 65.5583 140.901 64.2022 140.838 62.4 140.8z"/>
<path style="stroke:none; fill:#efeff3" d="M 69.6 140.8L 69.6 145.6L 73.6 145.6L 73.6 140.8L 69.6 140.8M 76 140.8L 76 145.6L 80.8 145.6L 80.8 140.8L 76 140.8M 83.2 140.8L 83.2 145.6L 88 145.6L 88 140.8L 83.2 140.8z"/>
<path style="stroke:none; fill:#e3e3e6" d="M 89.6 140.8L 89.6 145.6L 90.4 145.6L 90.4 141.6L 91.2 141.6C 92.4688 142.805 92.7576 142.4 94.4 141.6L 94.4 145.6L 95.2 145.6L 95.2 140.8L 89.6 140.8z"/>
<path style="stroke:none; fill:#efeff3" d="M 96.8 140.8L 96.8 145.6L 101.6 145.6L 101.6 141.6C 99.8624 141.562 98.4704 141.285 96.8 140.8z"/>
<path style="stroke:none; fill:#e3e3e6" d="M 103.2 140.8L 103.2 145.6L 104 145.6L 104 141.6L 116.8 141.6C 112.821 139.93 107.49 140.8 103.2 140.8z"/>
<path style="stroke:none; fill:#a1a7ac" d="M 148.8 140.8L 148.8 152L 149.6 152C 149.6 148.367 150.215 144.174 148.8 140.8z"/>
<path style="stroke:none; fill:#efeff3" d="M 20 141.6C 20.8779 144.706 22.4786 145.38 25.6 145.6L 25.6 141.6L 20 141.6M 42.4 141.6L 42.4 145.6L 46.4 145.6L 46.4 141.6L 45.6 141.6C 45.6 143.038 45.5886 142.817 44.8 144C 43.911 142.606 43.7836 142.305 42.4 141.6M 63.2 141.6L 63.2 145.6L 67.2 145.6L 67.2 141.6L 63.2 141.6z"/>
<path style="stroke:none; fill:#e3e3e6" d="M 73.6 141.6L 73.6 145.6L 74.4 145.6C 74.3299 144.029 74.2231 143.015 73.6 141.6z"/>
<path style="stroke:none; fill:#efeff3" d="M 90.4 141.6L 90.4 145.6L 94.4 145.6L 94.4 141.6C 92.732 142.009 92.0256 142.085 90.4 141.6M 104 141.6L 104 145.6C 108.633 145.6 115.241 147.116 116.8 141.6L 104 141.6z"/>
<path style="stroke:none; fill:#d5d6d6" d="M 36.8 142.4L 36.8 144L 38.4 144L 38.4 142.4L 36.8 142.4z"/>
<path style="stroke:none; fill:#c6c6c9" d="M 44.2666 142.934C 44.2222 142.978 44.1778 143.822 44.5334 143.466C 44.5778 143.422 44.6222 142.578 44.2666 142.934z"/>
<path style="stroke:none; fill:#d5d6d6" d="M 50.4 142.4L 50.4 144L 52 144L 52 142.4L 50.4 142.4z"/>
<path style="stroke:none; fill:#c6c6c9" d="M 64 142.4L 64 144L 65.6 144L 65.6 142.4L 64 142.4z"/>
<path style="stroke:none; fill:#acb4b8" d="M 71.4666 142.934C 71.4222 142.978 71.3778 143.822 71.7334 143.466C 71.7778 143.422 71.8222 142.578 71.4666 142.934z"/>
<path style="stroke:none; fill:#c6c6c9" d="M 77.6 142.4L 77.6 144L 79.2 144L 79.2 142.4L 77.6 142.4z"/>
<path style="stroke:none; fill:#d5d6d6" d="M 115.2 144C 112.09 146.355 107.773 145.6 104 145.6L 104 146.4C 107.524 146.4 115.917 148.121 116.8 144L 115.2 144M 97.6 147.2L 97.6 150.4C 99.2528 149.949 100.211 149.474 101.6 150.4L 102.4 150.4C 102.981 148.657 102.751 148.976 104 149.6L 103.2 146.4L 97.6 147.2M 20 147.2L 20 148L 24 148C 22.5848 147.377 21.5713 147.27 20 147.2z"/>
<path style="stroke:none; fill:#e3e3e6" d="M 33.6 149.6L 38.4 148C 36.1902 146.727 34.1711 146.935 33.6 149.6z"/>
<path style="stroke:none; fill:#d5d6d6" d="M 49.6 147.2L 49.6 148L 80.8 148C 72.5808 144.551 58.5378 147.2 49.6 147.2z"/>
<path style="stroke:none; fill:#acb4b8" d="M 81.6 147.2L 81.6 153.6L 82.4 153.6C 82.3944 151.332 82.4784 149.29 81.6 147.2z"/>
<path style="stroke:none; fill:#d5d6d6" d="M 82.4 147.2L 82.4 152.8L 84.8 152C 83.9952 150.615 83.5632 149.558 83.2 148L 88.8 148C 86.7096 147.122 84.668 147.206 82.4 147.2z"/>
<path style="stroke:none; fill:#e3e3e6" d="M 91.2 147.2L 91.2 153.6L 96.8 153.6L 96.8 148L 91.2 147.2z"/>
<path style="stroke:none; fill:#d5d6d6" d="M 105.6 147.2L 105.6 148C 107.435 148.242 108.17 148.462 109.6 149.6C 110.588 146.98 107.599 147.233 105.6 147.2z"/>
<path style="stroke:none; fill:#efeff3" d="M 20 148C 20.2464 151.501 21.2419 153.077 24.8 153.6L 24.8 148L 20 148M 26.4 148L 26.4 152.8C 28.0967 152.603 29.4994 152.615 31.2 152.8L 31.2 148L 26.4 148M 33.6 149.6L 33.6 152.8L 38.4 152.8L 38.4 148L 33.6 149.6M 40.8 148L 40.8 152C 42.9901 152.184 45.0137 152.234 47.2 152L 47.2 148L 40.8 148M 48.8 148L 48.8 153.6C 59.1278 151.682 70.3173 152.8 80.8 152.8L 80.8 148L 48.8 148M 83.2 148C 83.452 149.864 83.9216 151.134 84.8 152.8L 88.8 152L 88.8 148L 83.2 148M 92 148L 92 152.8L 96 152C 95.3096 149.549 94.452 148.69 92 148M 105.6 149.6L 109.6 149.6C 108.185 147.973 107.015 147.973 105.6 149.6z"/>
<path style="stroke:none; fill:#e3e3e6" d="M 105.6 149.6L 105.6 150.4L 109.6 150.4C 108.011 149.359 107.498 149.336 105.6 149.6z"/>
<path style="stroke:none; fill:#c6c6c9" d="M 128.8 149.6L 128.8 156L 129.6 156C 129.594 153.731 129.678 151.69 128.8 149.6z"/>
<path style="stroke:none; fill:#e3e3e6" d="M 98.4 151.2C 98.9832 153.922 100.645 153.59 103.2 153.6L 103.2 152.8C 101.388 152.323 99.8552 152.291 98.4 151.2z"/>
<path style="stroke:none; fill:#efeff3" d="M 99.2 152.8L 103.2 152.8C 101.785 151.173 100.615 151.173 99.2 152.8M 105.6 151.2L 105.6 153.6C 108.006 153.423 109.092 153.236 110.4 151.2L 105.6 151.2M 112 152.8L 116.8 152.8C 115.242 151.015 113.558 151.015 112 152.8z"/>
<path style="stroke:none; fill:#d5d6d6" d="M 33.6 152.8L 33.6 153.6L 38.4 153.6C 36.602 152.559 35.653 152.485 33.6 152.8z"/>
<path style="stroke:none; fill:#acb4b8" d="M 83.7336 152.266C 83.3776 152.622 84.2224 152.578 84.2664 152.534C 84.6224 152.178 83.7776 152.222 83.7336 152.266z"/>
<path style="stroke:none; fill:#e3e3e6" d="M 112.8 152.8L 112.8 153.6L 116.8 153.6C 115.211 152.559 114.698 152.536 112.8 152.8M 137.6 152L 137.6 155.2L 140.8 155.2L 140.8 152L 137.6 152z"/>
<path style="stroke:none; fill:#7b8792" d="M 148.8 152L 148.8 156L 149.6 156C 149.53 154.429 149.423 153.415 148.8 152z"/>
<path style="stroke:none; fill:#e3e3e6" d="M 50.4 152.8L 50.4 153.6L 80.8 153.6C 72.7713 150.231 59.1285 152.8 50.4 152.8z"/>
<path style="stroke:none; fill:#85929e" d="M 17.6 154.4L 18.4 155.2L 17.6 154.4z"/>
<path style="stroke:none; fill:#5f6c79" d="M 118.4 154.4L 119.2 155.2L 118.4 154.4z"/>
<path style="stroke:none; fill:#7b8792" d="M 18.4 155.2L 19.2 156L 18.4 155.2z"/>
<path style="stroke:none; fill:#acb4b8" d="M 19.2 155.2L 19.2 156L 117.6 156C 109.769 152.714 96.5072 155.2 88 155.2L 19.2 155.2z"/>
<path style="stroke:none; fill:#5f6c79" d="M 117.6 155.2L 118.4 156L 117.6 155.2z"/>
<path style="stroke:none; fill:#070707" d="M 170.4 155.2L 170.4 156L 177.6 156C 175.288 155.03 172.901 155.202 170.4 155.2z"/>
<path style="stroke:none; fill:#353535" d="M 17.6 156L 17.6 156.8C 27.357 159.684 40.2311 157.6 50.4 157.6L 117.6 157.6L 117.6 156.8L 52.8 156.8C 41.3072 156.8 28.9201 158.102 17.6 156z"/>
<path style="stroke:none; fill:#414f5f" d="M 19.2 156L 19.2 156.8L 117.6 156.8C 109.769 153.514 96.5072 156 88 156L 19.2 156z"/>
<path style="stroke:none; fill:#7b8792" d="M 128.8 156L 128.8 158.4L 129.6 158.4C 129.399 157.238 129.348 156.998 128.8 156M 148.266 158.934C 148.222 158.978 148.178 159.822 148.534 159.466C 148.578 159.422 148.622 158.578 148.266 158.934z"/>
<path style="stroke:none; fill:#acb4b8" d="M 129.6 159.2L 130.4 160L 129.6 159.2z"/>
<path style="stroke:none; fill:#85929e" d="M 130.4 160.8L 131.2 161.6L 130.4 160.8z"/>
<path style="stroke:none; fill:#5f6c79" d="M 147.2 160.8L 148 161.6L 147.2 160.8z"/>
<path style="stroke:none; fill:#a1a7ac" d="M 131.2 161.6L 132 162.4L 131.2 161.6z"/>
<path style="stroke:none; fill:#7b8792" d="M 146.4 161.6L 147.2 162.4L 146.4 161.6z"/>
<path style="stroke:none; fill:#a1a7ac" d="M 132 162.4L 132.8 163.2L 132 162.4z"/>
<path style="stroke:none; fill:#7b8792" d="M 145.6 162.4L 146.4 163.2L 145.6 162.4z"/>
<path style="stroke:none; fill:#29292a" d="M 131.734 163.466C 131.378 163.822 132.222 163.778 132.266 163.734C 132.622 163.378 131.778 163.422 131.734 163.466z"/>
<path style="stroke:none; fill:#5f6c79" d="M 132.8 163.2L 133.6 164L 132.8 163.2z"/>
<path style="stroke:none; fill:#c6c6c9" d="M 134.134 163.466C 133.778 163.822 134.622 163.778 134.666 163.734C 135.022 163.378 134.178 163.422 134.134 163.466z"/>
<path style="stroke:none; fill:#e3e3e6" d="M 140.8 163.2L 140.8 164L 144 164C 142.795 163.454 142.148 163.339 140.8 163.2z"/>
<path style="stroke:none; fill:#85929e" d="M 144 163.2L 144.8 164L 144 163.2z"/>
<path style="stroke:none; fill:#414f5f" d="M 144.8 163.2L 145.6 164L 144.8 163.2z"/>
<path style="stroke:none; fill:#5f6c79" d="M 134.934 164.266C 134.578 164.622 135.422 164.578 135.466 164.534C 135.822 164.178 134.978 164.222 134.934 164.266z"/>
<path style="stroke:none; fill:#85929e" d="M 136 164L 136 164.8L 141.6 164.8C 139.734 164.012 138.034 164.015 136 164z"/>
<path style="stroke:none; fill:#5f6c79" d="M 142.134 164.266C 141.778 164.622 142.622 164.578 142.666 164.534C 143.022 164.178 142.178 164.222 142.134 164.266z"/>
<path style="stroke:none; fill:#29292a" d="M 134.4 164.8L 134.4 165.6C 138.209 165.6 141.876 165.686 145.6 164.8C 142.294 163.783 137.932 164.8 134.4 164.8z"/>
<path style="stroke:none; fill:#5f6c79" d="M 161.6 164L 161.6 164.8L 177.6 164.8C 173.028 162.882 166.535 164 161.6 164z"/>
<path style="stroke:none; fill:#353535" d="M 161.6 164.8L 161.6 165.6L 177.6 165.6C 173.028 163.682 166.535 164.8 161.6 164.8z"/>
</g>
</svg>