<?xml version="1.0" encoding="UTF-8" standalone="yes"?>
<!-- Created with sK1/UniConvertor (http://sk1project.org/) -->
<svg xmlns="http://www.w3.org/2000/svg" xmlns:xlink="http://www.w3.org/1999/xlink"
  width="176pt" height="176pt" viewBox="0 0 176 176"
  fill-rule="evenodd">
<g>
<path style="stroke:none; fill:#fc7563" d="M 0 0L 0 176L 176 176L 176 0L 0 0z"/>
<path style="stroke:none; fill:#f9ae37" d="M 79.2469 45.6346C 72.4693 49.127 77.8085 59.7407 84.7528 55.9772C 91.4816 52.3306 85.6352 42.3426 79.2469 45.6346M 49.6 45.6L 48.8 49.6C 51.2431 49.0765 51.1486 47.9947 51.2 45.6L 49.6 45.6z"/>
<path style="stroke:none; fill:#ef8577" d="M 113.6 45.6L 113.6 46.4C 119.97 46.9027 125.63 46.9027 132 46.4C 127.461 44.513 118.739 45.7061 113.6 45.6z"/>
<path style="stroke:none; fill:#96533d" d="M 104.8 46.4L 104.8 47.2L 107.2 47.2C 106.202 46.6522 105.962 46.601 104.8 46.4z"/>
<path style="stroke:none; fill:#231413" d="M 103.2 47.2C 103.452 49.0638 103.922 50.3341 104.8 52C 102.69 52.7513 101.906 53.2637 100.8 55.2L 104.8 55.2L 104.8 54.4L 102.4 54.4L 102.4 53.6C 104.402 53.113 105.291 52.084 105.6 54.4L 106.4 54.4C 106.309 51.5956 105.74 50.1758 104 48C 107.106 48.3792 109.742 47.5642 112.8 47.2C 109.708 45.9148 106.456 46.943 103.2 47.2z"/>
<path style="stroke:none; fill:#52130d" d="M 112.8 46.4L 112.8 47.2L 116 48C 114.949 46.7057 114.498 46.6454 112.8 46.4z"/>
<path style="stroke:none; fill:#a95d53" d="M 116.534 46.6666C 116.178 47.0222 117.022 46.9778 117.066 46.9334C 117.422 46.5778 116.578 46.6222 116.534 46.6666z"/>
<path style="stroke:none; fill:#6f5049" d="M 128.534 46.6666C 128.178 47.0222 129.022 46.9778 129.066 46.9334C 129.422 46.5778 128.578 46.6222 128.534 46.6666z"/>
<path style="stroke:none; fill:#231413" d="M 118.4 48L 120 52.8L 120.8 52.8L 120.8 50.4C 125.387 50.2643 130.735 46.0657 135.15 47.8055C 139.946 49.6961 137.457 54.8385 144 55.2C 143.077 53.4009 142.599 52.9228 140.8 52L 142.4 48C 134.117 45.3806 126.763 47.9945 118.4 48z"/>
<path style="stroke:none; fill:#662e28" d="M 136.8 46.4L 136.8 47.2L 139.2 47.2C 138.202 46.6522 137.962 46.601 136.8 46.4z"/>
<path style="stroke:none; fill:#a95d53" d="M 139.2 46.4L 139.2 47.2L 141.6 47.2C 140.602 46.6522 140.362 46.601 139.2 46.4z"/>
<path style="stroke:none; fill:#332a2a" d="M 108.8 47.2L 108.8 48L 114.4 48C 112.534 47.2124 110.834 47.215 108.8 47.2z"/>
<path style="stroke:none; fill:#231413" d="M 116.534 47.4666C 116.178 47.8222 117.022 47.7778 117.066 47.7334C 117.422 47.3778 116.578 47.4222 116.534 47.4666z"/>
<path style="stroke:none; fill:#332a2a" d="M 117.6 47.2L 117.6 50.4L 118.4 50.4L 119.2 50.4C 118.749 48.9984 118.465 48.3665 117.6 47.2z"/>
<path style="stroke:none; fill:#662e28" d="M 118.4 47.2L 118.4 48L 126.4 48C 123.87 46.9381 121.131 47.2003 118.4 47.2z"/>
<path style="stroke:none; fill:#332a2a" d="M 130.4 47.2L 130.4 48L 136 48C 134.134 47.2124 132.434 47.215 130.4 47.2z"/>
<path style="stroke:none; fill:#96533d" d="M 141.6 47.2L 142.4 48L 141.6 47.2z"/>
<path style="stroke:none; fill:#f8c575" d="M 80 48L 80 53.6C 81.696 52.9235 83.8472 51.6486 81.6 50.4L 81.6 49.6C 83.2736 49.2754 83.216 49.4266 84 48L 80 48z"/>
<path style="stroke:none; fill:#96533d" d="M 102.666 48.5334C 102.622 48.5778 102.578 49.4222 102.934 49.0666C 102.978 49.0222 103.022 48.1778 102.666 48.5334z"/>
<path style="stroke:none; fill:#6f5049" d="M 104.266 48.5334C 104.222 48.5778 104.178 49.4222 104.534 49.0666C 104.578 49.0222 104.622 48.1778 104.266 48.5334z"/>
<path style="stroke:none; fill:#868579" d="M 105.066 48.5334C 105.022 48.5778 104.978 49.4222 105.334 49.0666C 105.378 49.0222 105.422 48.1778 105.066 48.5334z"/>
<path style="stroke:none; fill:#332a2a" d="M 105.6 48C 106.1 50.6906 106.378 53.2626 106.4 56L 107.2 56C 107.198 53.014 107.442 50.4318 105.6 48z"/>
<path style="stroke:none; fill:#6f5049" d="M 107.2 52.8C 111.092 50.3519 113.823 49.6035 118.4 49.6C 114.355 46.5358 107.646 47.0691 107.2 52.8M 125.6 49.6L 125.6 50.4L 137.6 49.6L 137.6 48C 133.367 48 129.484 47.731 125.6 49.6M 139.466 48.5334C 139.422 48.5778 139.378 49.4222 139.734 49.0666C 139.778 49.0222 139.822 48.1778 139.466 48.5334z"/>
<path style="stroke:none; fill:#868579" d="M 140.266 48.5334C 140.222 48.5778 140.178 49.4222 140.534 49.0666C 140.578 49.0222 140.622 48.1778 140.266 48.5334z"/>
<path style="stroke:none; fill:#332a2a" d="M 137.6 48.8L 134.4 49.6L 134.4 50.4C 135.796 51.112 136.9 51.5624 138.4 52C 138.261 50.6518 138.146 50.0048 137.6 48.8z"/>
<path style="stroke:none; fill:#f8b4a1" d="M 49.6 49.6L 49.6 51.2L 51.2 51.2L 51.2 49.6L 49.6 49.6z"/>
<path style="stroke:none; fill:#a95d53" d="M 110.4 49.6L 110.4 50.4L 116 50.4C 114.134 49.6124 112.434 49.615 110.4 49.6z"/>
<path style="stroke:none; fill:#662e28" d="M 116.534 49.8666C 116.178 50.2222 117.022 50.1778 117.066 50.1334C 117.422 49.7778 116.578 49.8222 116.534 49.8666z"/>
<path style="stroke:none; fill:#a95d53" d="M 130.4 49.6L 130.4 50.4L 134.4 50.4C 132.985 49.7769 131.971 49.6701 130.4 49.6z"/>
<path style="stroke:none; fill:#943428" d="M 141.6 49.6L 142.4 50.4L 141.6 49.6M 27.2 50.4C 27.7184 52.3149 28.0259 53.229 29.6 54.4C 29.0068 52.5882 28.6743 51.5624 27.2 50.4z"/>
<path style="stroke:none; fill:#f8b4a1" d="M 54.4 50.4L 53.6 54.4L 56 54.4L 56 53.6C 55.2114 52.4172 55.2 52.6374 55.2 51.2L 56 51.2L 57.6 55.2C 58.1413 52.512 56.8182 51.3474 54.4 50.4z"/>
<path style="stroke:none; fill:#a95d53" d="M 103.2 50.4L 103.2 52C 104.508 51.564 104.364 51.7081 104.8 50.4L 103.2 50.4z"/>
<path style="stroke:none; fill:#ef8577" d="M 108 53.6L 114.4 51.2C 111.456 50.0128 109.495 50.8878 108 53.6z"/>
<path style="stroke:none; fill:#fc7563" d="M 107.2 52.8C 109.227 60.3138 118.39 58.4405 119.2 51.2C 114.65 50.4522 111.532 52.5283 107.2 52.8z"/>
<path style="stroke:none; fill:#a95d53" d="M 116.8 50.4L 116.8 51.2L 119.2 51.2C 118.202 50.6522 117.962 50.601 116.8 50.4z"/>
<path style="stroke:none; fill:#332a2a" d="M 120.8 50.4L 120.8 51.2L 124 51.2C 122.795 50.6536 122.148 50.5393 120.8 50.4z"/>
<path style="stroke:none; fill:#52130d" d="M 124 50.4C 124.428 52.815 125.197 54.6613 126.4 56.8L 127.2 56.8C 126.519 54.6616 125.928 52.6196 125.6 50.4L 124 50.4z"/>
<path style="stroke:none; fill:#ef8577" d="M 125.6 50.4L 125.6 53.6C 127.486 52.7171 128.301 52.0349 129.6 50.4L 125.6 50.4z"/>
<path style="stroke:none; fill:#fc7563" d="M 129.65 51.2228C 123.153 54.7838 131.386 59.756 135.742 56.7778C 140.354 53.6245 133.312 49.2158 129.65 51.2228z"/>
<path style="stroke:none; fill:#a95d53" d="M 26.4 51.2L 27.2 52L 26.4 51.2z"/>
<path style="stroke:none; fill:#96533d" d="M 28.8 51.2L 28.8 52L 31.2 52.8C 30.4158 51.3734 30.4739 51.5246 28.8 51.2z"/>
<path style="stroke:none; fill:#ebeae9" d="M 55.2 51.2C 55.7211 53.1474 56.1282 53.8262 57.6 55.2C 57.0006 53.397 56.5248 52.5491 55.2 51.2z"/>
<path style="stroke:none; fill:#6f5049" d="M 104 51.2L 104.8 52L 104 51.2z"/>
<path style="stroke:none; fill:#943428" d="M 119.466 51.7334C 119.422 51.7778 119.378 52.6222 119.734 52.2666C 119.778 52.2222 119.822 51.3778 119.466 51.7334z"/>
<path style="stroke:none; fill:#a95d53" d="M 120.8 52.8L 124 52C 122.363 51.3991 121.923 51.4755 120.8 52.8z"/>
<path style="stroke:none; fill:#96533d" d="M 136 51.2L 136.8 52L 136 51.2M 140.8 51.2L 141.6 52L 140.8 51.2z"/>
<path style="stroke:none; fill:#ef8577" d="M 26.4 52C 27.3781 54.9494 29.0467 55.1037 32 55.2L 32 54.4C 29.4688 54.2153 28.499 53.0245 26.4 52z"/>
<path style="stroke:none; fill:#52130d" d="M 28.8 52L 28.8 53.6C 30.1081 53.164 29.964 53.3081 30.4 52L 28.8 52z"/>
<path style="stroke:none; fill:#96533d" d="M 102.4 52L 103.2 52.8L 102.4 52z"/>
<path style="stroke:none; fill:#332a2a" d="M 104.8 52C 103.851 52.949 103.533 53.2223 102.4 53.6L 102.4 54.4L 105.6 55.2C 105.461 53.8518 105.346 53.2048 104.8 52z"/>
<path style="stroke:none; fill:#96533d" d="M 136.8 52L 137.6 52.8L 136.8 52z"/>
<path style="stroke:none; fill:#a95d53" d="M 100.8 52.8L 101.6 53.6L 100.8 52.8z"/>
<path style="stroke:none; fill:#52130d" d="M 119.2 52.8L 118.4 56L 119.2 56L 120.8 52.8L 119.2 52.8z"/>
<path style="stroke:none; fill:#a95d53" d="M 137.866 53.3334C 137.822 53.3778 137.778 54.2222 138.134 53.8666C 138.178 53.8222 138.222 52.9778 137.866 53.3334z"/>
<path style="stroke:none; fill:#943428" d="M 143.2 52.8L 144 53.6L 143.2 52.8z"/>
<path style="stroke:none; fill:#f8b4a1" d="M 30.1334 53.8666C 29.7778 54.2222 30.6222 54.1778 30.6666 54.1334C 31.0222 53.7778 30.1778 53.8222 30.1334 53.8666z"/>
<path style="stroke:none; fill:#662e28" d="M 52 53.6L 52 55.2L 53.6 55.2L 53.6 53.6L 52 53.6z"/>
<path style="stroke:none; fill:#943428" d="M 100.266 54.1334C 100.222 54.1778 100.178 55.0222 100.534 54.6666C 100.578 54.6222 100.622 53.7778 100.266 54.1334z"/>
<path style="stroke:none; fill:#52130d" d="M 144.266 54.1334C 144.222 54.1778 144.178 55.0222 144.534 54.6666C 144.578 54.6222 144.622 53.7778 144.266 54.1334z"/>
<path style="stroke:none; fill:#f8b4a1" d="M 43.2 54.4C 41.8986 55.8137 41.3353 56.5819 40.8 58.4L 41.6 58.4C 42.5022 56.9654 43.3318 56.0315 43.2 54.4M 50.9334 54.6666C 50.5778 55.0222 51.4222 54.9778 51.4666 54.9334C 51.8222 54.5778 50.9778 54.6222 50.9334 54.6666z"/>
<path style="stroke:none; fill:#a95d53" d="M 53.6 54.4L 53.6 55.2L 56 56C 55.2158 54.5734 55.2739 54.7246 53.6 54.4z"/>
<path style="stroke:none; fill:#ef8577" d="M 56 54.4L 56 56L 57.6 56C 57.1639 54.6918 57.3081 54.836 56 54.4z"/>
<path style="stroke:none; fill:#96533d" d="M 105.6 54.4L 106.4 55.2L 105.6 54.4z"/>
<path style="stroke:none; fill:#943428" d="M 107.2 54.4C 107.534 56.5515 107.774 57.243 109.6 58.4L 107.2 54.4M 118.4 54.4L 119.2 55.2L 118.4 54.4z"/>
<path style="stroke:none; fill:#a95d53" d="M 124.8 54.4L 125.6 55.2L 124.8 54.4z"/>
<path style="stroke:none; fill:#662e28" d="M 137.6 56L 140 55.2C 138.578 54.4357 138.383 54.587 137.6 56z"/>
<path style="stroke:none; fill:#ef8577" d="M 40 55.2L 40 58.4L 40.8 58.4L 41.6 55.2L 40 55.2z"/>
<path style="stroke:none; fill:#231413" d="M 52 55.2L 52 56L 54.4 56C 53.4014 55.4522 53.1612 55.401 52 55.2z"/>
<path style="stroke:none; fill:#943428" d="M 54.4 55.2L 52.8 56L 52.8 56.8C 54.2893 56.5145 54.995 56.5798 54.4 55.2z"/>
<path style="stroke:none; fill:#96533d" d="M 100.8 55.2L 101.6 56L 100.8 55.2z"/>
<path style="stroke:none; fill:#662e28" d="M 101.6 55.2L 101.6 56L 104.8 56C 103.595 55.4536 102.948 55.3393 101.6 55.2z"/>
<path style="stroke:none; fill:#943428" d="M 126.4 55.2L 127.2 56L 126.4 55.2z"/>
<path style="stroke:none; fill:#662e28" d="M 140 55.2L 140 56L 144 56C 142.585 55.3769 141.571 55.2701 140 55.2z"/>
<path style="stroke:none; fill:#ebeae9" d="M 42.4 56C 41.6114 57.1828 41.6 56.9626 41.6 58.4C 43.013 57.6171 43.1643 57.4226 42.4 56z"/>
<path style="stroke:none; fill:#662e28" d="M 51.7334 56.2666C 51.3778 56.6222 52.2222 56.5778 52.2666 56.5334C 52.6222 56.1778 51.7778 56.2222 51.7334 56.2666M 117.6 56L 117.6 57.6C 118.908 57.1639 118.764 57.3082 119.2 56L 117.6 56z"/>
<path style="stroke:none; fill:#943428" d="M 128 57.6L 128 58.4C 132.109 59.6117 135.488 59.2998 138.4 56C 134.589 57.3525 132.082 58.3209 128 57.6z"/>
<path style="stroke:none; fill:#f8b4a1" d="M 43.4666 57.3334C 43.4222 57.3778 43.3778 58.2222 43.7334 57.8666C 43.7778 57.8222 43.8222 56.9778 43.4666 57.3334z"/>
<path style="stroke:none; fill:#ef8577" d="M 80 56.8L 80 57.6L 84 57.6C 82.5848 56.9769 81.5712 56.8701 80 56.8z"/>
<path style="stroke:none; fill:#a95d53" d="M 117.066 57.3334C 117.022 57.3778 116.978 58.2222 117.334 57.8666C 117.378 57.8222 117.422 56.9778 117.066 57.3334z"/>
<path style="stroke:none; fill:#943428" d="M 126.934 57.0666C 126.578 57.4222 127.422 57.3778 127.466 57.3334C 127.822 56.9778 126.978 57.0222 126.934 57.0666z"/>
<path style="stroke:none; fill:#a95d53" d="M 58.9334 57.8666C 58.5778 58.2222 59.4222 58.1778 59.4666 58.1334C 59.8222 57.7778 58.9778 57.8222 58.9334 57.8666M 109.6 59.2C 111.502 58.7424 113.246 58.4876 115.2 58.4C 113.013 57.4879 111.202 57.3654 109.6 59.2z"/>
<path style="stroke:none; fill:#943428" d="M 110.4 58.4L 110.4 59.2C 112.875 59.1918 115.117 59.5271 116.8 57.6C 114.651 58.0006 112.584 58.3061 110.4 58.4z"/>
<path style="stroke:none; fill:#a95d53" d="M 129.6 57.6L 129.6 58.4L 134.4 58.4C 132.758 57.7006 131.402 57.6378 129.6 57.6z"/>
<path style="stroke:none; fill:#ebeae9" d="M 40.5334 58.6666C 40.1778 59.0222 41.0222 58.9778 41.0666 58.9334C 41.4222 58.5778 40.5778 58.6222 40.5334 58.6666z"/>
<path style="stroke:none; fill:#52130d" d="M 56 58.4C 56.801 59.939 56.862 60.0788 58.4 60.8C 57.6788 59.262 57.539 59.201 56 58.4z"/>
<path style="stroke:none; fill:#6f5049" d="M 57.3334 58.6666C 56.9778 59.0222 57.8222 58.9778 57.8666 58.9334C 58.2222 58.5778 57.3778 58.6222 57.3334 58.6666z"/>
<path style="stroke:none; fill:#662e28" d="M 58.6666 58.9334C 58.6222 58.9778 58.5778 59.8222 58.9334 59.4666C 58.9778 59.4222 59.0222 58.5778 58.6666 58.9334z"/>
<path style="stroke:none; fill:#943428" d="M 59.4666 58.9334C 59.4222 58.9778 59.3778 59.8222 59.7334 59.4666C 59.7778 59.4222 59.8222 58.5778 59.4666 58.9334z"/>
<path style="stroke:none; fill:#f8b4a1" d="M 40.5334 59.4666C 40.1778 59.8222 41.0222 59.7778 41.0666 59.7334C 41.4222 59.3778 40.5778 59.4222 40.5334 59.4666z"/>
<path style="stroke:none; fill:#a95d53" d="M 56 59.2L 56.8 60L 56 59.2z"/>
<path style="stroke:none; fill:#f8b4a1" d="M 55.7334 60.2666C 55.3778 60.6222 56.2222 60.5778 56.2666 60.5334C 56.6222 60.1778 55.7778 60.2222 55.7334 60.2666z"/>
<path style="stroke:none; fill:#943428" d="M 57.3334 61.0666C 56.9778 61.4222 57.8222 61.3778 57.8666 61.3334C 58.2222 60.9778 57.3778 61.0222 57.3334 61.0666z"/>
<path style="stroke:none; fill:#ef8577" d="M 79.2 61.6L 79.2 62.4C 81.384 62.4939 83.4512 62.7994 85.6 63.2C 83.552 61.6466 81.7536 61.628 79.2 61.6z"/>
<path style="stroke:none; fill:#96533d" d="M 80 62.4L 80 63.2L 84 63.2C 82.5848 62.5769 81.5712 62.4701 80 62.4z"/>
<path style="stroke:none; fill:#a95d53" d="M 78.4 63.2L 79.2 64L 78.4 63.2z"/>
<path style="stroke:none; fill:#332a2a" d="M 86.4 72.8C 86.8088 71.4157 87.148 70.2466 87.1576 68.7834C 87.2448 55.4149 70.2902 69.8753 80.8456 72.5055C 82.572 72.9358 84.6256 72.6934 86.4 72.8z"/>
<path style="stroke:none; fill:#96533d" d="M 84.8 63.2L 85.6 64L 84.8 63.2z"/>
<path style="stroke:none; fill:#f8b4a1" d="M 40.5334 64.2666C 40.1778 64.6222 41.0222 64.5778 41.0666 64.5334C 41.4222 64.1778 40.5778 64.2222 40.5334 64.2666z"/>
<path style="stroke:none; fill:#ebeae9" d="M 28 87.2L 60.8 86.4C 61.5293 80.6248 61.6361 75.3829 57.7685 70.5389C 50.7011 61.6872 36.0434 62.3189 30.0902 72.0118C 26.9953 77.0506 27.5618 81.6472 28 87.2z"/>
<path style="stroke:none; fill:#f8b4a1" d="M 46.9334 64.2666C 46.5778 64.6222 47.4222 64.5778 47.4666 64.5334C 47.8222 64.1778 46.9778 64.2222 46.9334 64.2666z"/>
<path style="stroke:none; fill:#6f5049" d="M 77.6 64L 78.4 64.8L 77.6 64z"/>
<path style="stroke:none; fill:#ef8577" d="M 50.1334 65.0666C 49.7778 65.4222 50.6222 65.3778 50.6666 65.3334C 51.0222 64.9778 50.1778 65.0222 50.1334 65.0666z"/>
<path style="stroke:none; fill:#96533d" d="M 76.8 64.8L 77.6 65.6L 76.8 64.8z"/>
<path style="stroke:none; fill:#a95d53" d="M 103.2 87.2L 104 87.2L 104 65.6L 134.4 65.6C 128.099 62.956 118.025 64.797 111.2 64.8C 109.106 64.801 105.513 64.2004 104.022 66.0827C 100.954 69.957 103.2 82.34 103.2 87.2z"/>
<path style="stroke:none; fill:#52130d" d="M 134.4 64.8L 134.4 65.6L 137.6 65.6C 136.395 65.0536 135.748 64.9393 134.4 64.8z"/>
<path style="stroke:none; fill:#a95d53" d="M 137.6 64.8L 137.6 65.6L 140.8 65.6C 139.595 65.0536 138.948 64.9393 137.6 64.8M 152 64.8L 152 65.6L 154.4 65.6C 153.402 65.0522 153.162 65.001 152 64.8z"/>
<path style="stroke:none; fill:#662e28" d="M 76.8 65.6C 76.8192 71.0326 79.4218 77.0141 85.6 72.8C 79.5782 71.7098 79.1893 71.0744 76.8 65.6z"/>
<path style="stroke:none; fill:#231413" d="M 104 65.6L 104 87.2L 135.2 87.2L 135.2 103.2L 104.8 103.2L 104.8 104L 134.4 104L 134.4 125.6L 137.6 125.6C 137.6 119.818 134.866 106.044 141.6 104L 141.6 103.2L 136.8 103.2L 137.6 66.4L 140.8 66.4C 131.249 62.3922 114.402 65.6 104 65.6z"/>
<path style="stroke:none; fill:#662e28" d="M 140.8 65.6C 142.443 72.5011 141.6 80.136 141.6 87.2L 142.4 87.2C 142.4 81.24 144.476 70.4522 140.8 65.6z"/>
<path style="stroke:none; fill:#ef8577" d="M 150.4 65.6L 150.4 116.8L 151.2 116.8L 151.2 81.6C 151.2 76.6768 152.316 70.1658 150.4 65.6z"/>
<path style="stroke:none; fill:#52130d" d="M 151.2 65.6L 151.2 91.2L 152 91.2C 152 85.0112 149.178 69.7206 155.2 66.4L 155.2 117.6L 156 117.6L 156 65.6L 151.2 65.6z"/>
<path style="stroke:none; fill:#6f5049" d="M 156 65.6L 156 91.2L 156.8 91.2C 156.8 83.7288 158.889 72.4846 156 65.6z"/>
<path style="stroke:none; fill:#943428" d="M 76 66.4L 76 70.4L 76.8 70.4C 76.7299 68.8287 76.6231 67.8152 76 66.4z"/>
<path style="stroke:none; fill:#662e28" d="M 87.2 66.4L 87.2 70.4L 88 70.4C 87.9296 68.8287 87.8232 67.8152 87.2 66.4z"/>
<path style="stroke:none; fill:#332a2a" d="M 104.8 66.4L 104.8 86.4L 134.4 86.4L 134.4 66.4L 104.8 66.4M 137.6 66.4L 136.8 103.2L 137.6 103.2L 137.6 87.2L 141.6 87.2L 141.6 66.4L 137.6 66.4z"/>
<path style="stroke:none; fill:#868579" d="M 152 80L 152.8 80C 152.8 75.9406 151.426 69.6462 155.2 67.2C 150.339 66.1082 152 76.9673 152 80z"/>
<path style="stroke:none; fill:#a95d53" d="M 142.4 67.2L 142.4 87.2L 143.2 87.2C 143.2 81.2024 144.726 72.7423 142.4 67.2z"/>
<path style="stroke:none; fill:#ebeae9" d="M 152.8 67.2C 152.8 71.9542 152.246 77.019 153.6 81.6L 154.4 81.6L 154.4 67.2L 152.8 67.2z"/>
<path style="stroke:none; fill:#b8b5b5" d="M 154.4 67.2L 154.4 80L 155.2 80C 155.2 75.9278 155.986 70.979 154.4 67.2z"/>
<path style="stroke:none; fill:#f8b4a1" d="M 55.2 68L 56 68.8L 55.2 68z"/>
<path style="stroke:none; fill:#868579" d="M 79.2 68L 79.2 69.6C 80.508 69.164 80.364 69.3082 80.8 68L 79.2 68z"/>
<path style="stroke:none; fill:#6f5049" d="M 80 68.8L 80 69.6L 84 69.6L 84 68C 82.4976 68.1407 81.4408 68.3506 80 68.8z"/>
<path style="stroke:none; fill:#868579" d="M 84.2664 68.5334C 84.2224 68.5778 84.1776 69.4222 84.5336 69.0666C 84.5776 69.0222 84.6224 68.1778 84.2664 68.5334z"/>
<path style="stroke:none; fill:#f8b4a1" d="M 31.2 69.6L 32 70.4L 31.2 69.6M 30.4 70.4L 31.2 71.2L 30.4 70.4z"/>
<path style="stroke:none; fill:#ef8577" d="M 85.6 72.8L 84 73.6L 84 74.4C 85.4896 74.1145 86.1952 74.1798 85.6 72.8z"/>
<path style="stroke:none; fill:#f8b4a1" d="M 28.2666 74.9334C 28.2222 74.9778 28.1778 75.8222 28.5334 75.4666C 28.5778 75.4222 28.6222 74.5778 28.2666 74.9334z"/>
<path style="stroke:none; fill:#ef8577" d="M 79.2 74.4L 79.2 75.2L 83.2 75.2C 81.7848 74.5769 80.7712 74.4701 79.2 74.4z"/>
<path style="stroke:none; fill:#f8b4a1" d="M 27.4666 77.3334C 27.4222 77.3778 27.3778 78.2222 27.7334 77.8666C 27.7778 77.8222 27.8222 76.9778 27.4666 77.3334M 61.0666 77.3334C 61.0222 77.3778 60.9778 78.2222 61.3334 77.8666C 61.3778 77.8222 61.4222 76.9778 61.0666 77.3334z"/>
<path style="stroke:none; fill:#ef8577" d="M 43.2 79.2L 43.2 80L 45.6 80C 44.6014 79.4522 44.3613 79.401 43.2 79.2z"/>
<path style="stroke:none; fill:#f8b4a1" d="M 41.6 80L 41.6 82.4L 42.4 82.4C 42.199 81.2384 42.1478 80.9984 41.6 80z"/>
<path style="stroke:none; fill:#fc7563" d="M 42.4 80C 43.422 83.0752 45.378 83.0752 46.4 80L 42.4 80z"/>
<path style="stroke:none; fill:#231413" d="M 152 80L 152 85.6L 152.8 85.6C 152.785 83.5656 152.788 81.8656 152 80z"/>
<path style="stroke:none; fill:#868579" d="M 154.4 80L 155.2 80.8L 154.4 80M 152.8 80.8L 152.8 85.6L 153.6 85.6C 153.562 83.7976 153.499 82.4416 152.8 80.8z"/>
<path style="stroke:none; fill:#6f5049" d="M 154.4 80.8L 154.4 85.6L 155.2 85.6C 155.162 83.7976 155.099 82.4416 154.4 80.8z"/>
<path style="stroke:none; fill:#b8b5b5" d="M 153.6 81.6C 153.439 83.8312 153.226 85.8016 153.6 88L 154.4 88C 154.394 85.7312 154.478 83.6904 153.6 81.6z"/>
<path style="stroke:none; fill:#f8b4a1" d="M 27.2 83.2L 27.2 87.2L 28 87.2C 27.9299 85.6288 27.8231 84.6152 27.2 83.2M 43.7334 83.4664C 43.3778 83.8224 44.2222 83.7776 44.2666 83.7336C 44.6222 83.3776 43.7778 83.4224 43.7334 83.4664M 61.0666 83.7336C 61.0222 83.7776 60.9778 84.6224 61.3334 84.2664C 61.3778 84.2224 61.4222 83.3776 61.0666 83.7336z"/>
<path style="stroke:none; fill:#a95d53" d="M 76.8 84L 76.8 84.8L 91.2 84.8C 87.0224 83.0472 81.3056 84 76.8 84z"/>
<path style="stroke:none; fill:#ef8577" d="M 61.0666 85.3336C 61.0222 85.3776 60.9778 86.2224 61.3334 85.8664C 61.3778 85.8224 61.4222 84.9776 61.0666 85.3336z"/>
<path style="stroke:none; fill:#231413" d="M 75.2 89.6L 92.8 89.6L 92.8 120.8C 86.9736 120.8 80.8968 121.356 75.2 120C 75.4717 128.272 93.2488 128.402 93.5848 120.796C 93.936 112.83 93.6 104.774 93.6 96.8C 93.6 93.8784 94.4384 89.3392 93.1176 86.6544C 90.7272 81.7968 75.6571 83.7336 75.2 89.6z"/>
<path style="stroke:none; fill:#a95d53" d="M 92.8 84.8L 93.6 85.6L 92.8 84.8z"/>
<path style="stroke:none; fill:#ef8577" d="M 73.6 85.6C 73.6 97.8784 70.9222 113.834 74.4 125.6L 75.2 125.6C 73.0543 114.042 72.4723 97.0568 75.2 85.6L 73.6 85.6z"/>
<path style="stroke:none; fill:#662e28" d="M 152.266 86.1336C 152.222 86.1776 152.178 87.0224 152.534 86.6664C 152.578 86.6224 152.622 85.7776 152.266 86.1336z"/>
<path style="stroke:none; fill:#868579" d="M 154.666 86.1336C 154.622 86.1776 154.578 87.0224 154.934 86.6664C 154.978 86.6224 155.022 85.7776 154.666 86.1336z"/>
<path style="stroke:none; fill:#b8b5b5" d="M 39.2 86.4L 39.2 87.2L 60.8 87.2C 54.8729 84.7128 45.6196 86.4 39.2 86.4z"/>
<path style="stroke:none; fill:#943428" d="M 74.4 86.4L 74.4 124L 75.2 124C 75.2 113.388 78.4876 96.1416 74.4 86.4z"/>
<path style="stroke:none; fill:#662e28" d="M 93.6 86.4L 93.6 124L 94.4 124C 94.4 113.388 97.688 96.1416 93.6 86.4z"/>
<path style="stroke:none; fill:#ef8577" d="M 24.8 87.2L 24.8 114.4C 24.8 117.654 23.7926 122.522 26.4 124.8C 23.6298 113.164 29.3726 98.0968 24.8 87.2z"/>
<path style="stroke:none; fill:#a95d53" d="M 25.6 87.2L 25.6 124L 26.4 124C 26.4 113.598 29.6078 96.7512 25.6 87.2z"/>
<path style="stroke:none; fill:#52130d" d="M 26.4 87.2L 26.4 123.2L 27.2 123.2C 27.2 111.725 25.3377 98.3824 28 87.2L 26.4 87.2z"/>
<path style="stroke:none; fill:#332a2a" d="M 28 87.2L 28 88L 60 88L 60 88.8L 27.2 88.8L 27.2 123.2L 60.8 123.2L 60.8 87.2L 28 87.2z"/>
<path style="stroke:none; fill:#231413" d="M 60.8 87.2L 60.8 123.2L 26.4 123.2L 26.4 124L 61.6 124C 61.6 113.598 64.8078 96.7512 60.8 87.2z"/>
<path style="stroke:none; fill:#6f5049" d="M 61.6 87.2L 61.6 124L 62.4 124C 62.4 113.598 65.6078 96.7512 61.6 87.2z"/>
<path style="stroke:none; fill:#ef8577" d="M 62.4 87.2L 62.4 124.8L 27.2 124.8L 27.2 125.6L 52 125.6C 54.6625 125.6 59.6922 126.54 61.9173 124.778C 64.0582 123.082 63.2 118.384 63.2 116C 63.2 107.702 65.6062 94.8408 62.4 87.2M 103.2 87.2L 103.2 103.2L 104 103.2C 104 98.2648 105.118 91.772 103.2 87.2z"/>
<path style="stroke:none; fill:#b8b5b5" d="M 104 87.2L 104 88L 134.4 88C 126.371 84.6312 112.729 87.2 104 87.2z"/>
<path style="stroke:none; fill:#332a2a" d="M 134.4 87.2L 134.4 103.2L 135.2 103.2C 135.2 98.2648 136.318 91.772 134.4 87.2z"/>
<path style="stroke:none; fill:#b8b5b5" d="M 137.6 87.2L 137.6 88L 142.4 88C 140.758 87.3008 139.402 87.2376 137.6 87.2z"/>
<path style="stroke:none; fill:#f8b4a1" d="M 142.4 87.2L 142.4 103.2L 143.2 103.2C 143.2 98.2648 144.318 91.772 142.4 87.2z"/>
<path style="stroke:none; fill:#231413" d="M 152 87.2L 152 120.8L 155.2 120.8L 155.2 117.6C 154.067 117.978 153.749 118.251 152.8 119.2C 152.8 110.053 155.529 95.6096 152 87.2z"/>
<path style="stroke:none; fill:#868579" d="M 152.8 87.2C 153.236 88.508 153.092 88.364 154.4 88.8C 153.964 87.492 154.108 87.636 152.8 87.2z"/>
<path style="stroke:none; fill:#332a2a" d="M 154.4 87.2C 153.819 88.9432 154.049 88.624 152.8 88L 152.8 119.2C 157.424 114.671 156.893 93.14 154.4 87.2z"/>
<path style="stroke:none; fill:#231413" d="M 27.2 88L 27.2 88.8L 60 88.8C 51.4001 85.1912 36.5566 88 27.2 88z"/>
<path style="stroke:none; fill:#6f5049" d="M 81.6 88L 81.6 88.8L 85.6 88.8C 84.1848 88.1768 83.1712 88.0704 81.6 88z"/>
<path style="stroke:none; fill:#ebeae9" d="M 104 88L 104 102.4L 134.4 102.4L 134.4 88L 104 88M 137.6 88L 137.6 102.4L 142.4 102.4L 142.4 88L 137.6 88z"/>
<path style="stroke:none; fill:#52130d" d="M 75.2 89.6L 75.2 120L 76 120L 76 90.4L 92.8 90.4C 87.8384 88.3176 80.5616 89.6 75.2 89.6z"/>
<path style="stroke:none; fill:#ef8577" d="M 76 90.4L 76 120L 92 120L 92 119.2L 76.8 119.2L 76.8 91.2L 84 91.2C 81.4696 90.1384 78.7315 90.4 76 90.4z"/>
<path style="stroke:none; fill:#fc7563" d="M 76.8 91.2L 76.8 119.2C 82.1272 119.2 87.5896 118.759 92.8 120L 92.8 90.4L 76.8 91.2z"/>
<path style="stroke:none; fill:#662e28" d="M 151.2 91.2L 151.2 117.6L 152 117.6C 152 109.919 154.169 98.2752 151.2 91.2z"/>
<path style="stroke:none; fill:#a95d53" d="M 156 91.2L 156 117.6L 156.8 117.6C 156.8 109.919 158.969 98.2752 156 91.2z"/>
<path style="stroke:none; fill:#52130d" d="M 40 97.6L 40 98.4L 49.6 98.4C 46.642 97.1584 43.1866 97.6 40 97.6z"/>
<path style="stroke:none; fill:#f8b4a1" d="M 80 97.6L 80 99.2C 83.2904 99.2 86.432 99.3368 89.6 98.4C 86.6424 97.1584 83.1864 97.6 80 97.6z"/>
<path style="stroke:none; fill:#6f5049" d="M 39.2 98.4L 40 99.2L 39.2 98.4z"/>
<path style="stroke:none; fill:#f9ae37" d="M 40 98.4L 40 99.2C 43.2907 99.2 46.3861 99.2352 49.6 100C 47.426 97.512 43.1165 98.4 40 98.4z"/>
<path style="stroke:none; fill:#6f5049" d="M 49.6 98.4L 48.8 102.4C 50.3034 101.102 50.3326 100.24 49.6 98.4z"/>
<path style="stroke:none; fill:#ef8577" d="M 88.8 98.4C 86.12 99.192 83.5888 99.1984 80.8 99.2L 80.8 100C 82.884 100.002 90.02 101.566 88.8 98.4z"/>
<path style="stroke:none; fill:#868579" d="M 40 99.2C 40.4361 100.508 40.2918 100.364 41.6 100.8C 41.1639 99.492 41.3082 99.636 40 99.2z"/>
<path style="stroke:none; fill:#f8c575" d="M 40.8 99.2L 40.8 100L 48.8 100C 46.2694 98.9384 43.5315 99.2 40.8 99.2z"/>
<path style="stroke:none; fill:#f9ae37" d="M 41.6 100L 41.6 100.8L 48 100.8C 45.9098 99.9216 43.8684 100.006 41.6 100z"/>
<path style="stroke:none; fill:#ef8577" d="M 48 100L 48 101.6L 49.6 101.6L 49.6 100L 48 100z"/>
<path style="stroke:none; fill:#662e28" d="M 40.8 100.8L 40.8 112L 41.6 112C 41.6 108.367 42.2154 104.174 40.8 100.8z"/>
<path style="stroke:none; fill:#a95d53" d="M 41.6 100.8L 42.4 101.6L 41.6 100.8z"/>
<path style="stroke:none; fill:#ef8577" d="M 81.6 100.8L 81.6 104.8C 83.5016 104.342 85.2464 104.088 87.2 104L 87.2 105.6L 81.6 105.6L 81.6 106.4C 83.784 106.494 85.8512 106.799 88 107.2L 88 103.2C 85.056 103.138 84.0112 101.977 81.6 100.8M 41.6 101.6C 41.6 105.384 41.3222 109.154 42.4 112.8L 43.2 112.8C 43.1124 110.846 42.8576 109.102 42.4 107.2C 44.3536 107.288 46.0982 107.542 48 108L 48 105.6L 47.2 105.6C 45.5153 106.115 44.1639 106.325 42.4 106.4C 42.9258 104.194 42.9442 103.417 41.6 101.6z"/>
<path style="stroke:none; fill:#96533d" d="M 42.4 101.6L 43.2 102.4L 42.4 101.6M 43.2 102.4L 43.2 104.8L 44 104.8C 43.799 103.638 43.7478 103.398 43.2 102.4z"/>
<path style="stroke:none; fill:#b8b5b5" d="M 104 102.4L 104 103.2L 134.4 103.2C 126.371 99.8312 112.729 102.4 104 102.4M 137.6 102.4L 137.6 103.2L 142.4 103.2C 140.758 102.501 139.402 102.438 137.6 102.4z"/>
<path style="stroke:none; fill:#a95d53" d="M 103.2 103.2L 103.2 125.6L 104 125.6C 104 118.97 105.768 109.319 103.2 103.2z"/>
<path style="stroke:none; fill:#332a2a" d="M 104 103.2L 104 125.6L 134.4 125.6L 134.4 104C 124.636 104 113.522 105.467 104 103.2z"/>
<path style="stroke:none; fill:#52130d" d="M 141.6 103.2L 141.6 124.8L 142.4 124.8C 142.4 118.38 144.087 109.127 141.6 103.2z"/>
<path style="stroke:none; fill:#a95d53" d="M 142.4 103.2L 142.4 123.2L 143.2 123.2C 143.2 117.202 144.726 108.742 142.4 103.2z"/>
<path style="stroke:none; fill:#f8b4a1" d="M 81.6 104.8L 81.6 105.6L 87.2 105.6L 87.2 104C 85.1776 104.042 83.5344 104.222 81.6 104.8z"/>
<path style="stroke:none; fill:#332a2a" d="M 137.6 125.6L 141.6 125.6L 141.6 104C 134.779 105.138 137.6 120.12 137.6 125.6z"/>
<path style="stroke:none; fill:#f8b4a1" d="M 43.2 104.8L 43.2 105.6C 44.8886 105.747 46.3242 105.79 48 105.6C 46.3583 104.901 45.0022 104.838 43.2 104.8z"/>
<path style="stroke:none; fill:#6f5049" d="M 48 104.8L 47.2 108.8C 48.7034 107.502 48.7326 106.64 48 104.8z"/>
<path style="stroke:none; fill:#f8c575" d="M 42.4 105.6L 42.4 106.4L 46.4 106.4C 44.9848 105.777 43.9713 105.67 42.4 105.6z"/>
<path style="stroke:none; fill:#96533d" d="M 46.4 107.2L 47.2 108L 46.4 107.2z"/>
<path style="stroke:none; fill:#ef8577" d="M 81.6 107.2C 81.6752 108.964 81.8848 110.315 82.4 112L 83.2 112L 83.2 107.2L 81.6 107.2z"/>
<path style="stroke:none; fill:#a95d53" d="M 42.4 108L 43.2 108.8L 42.4 108z"/>
<path style="stroke:none; fill:#96533d" d="M 43.2 108.8L 42.4 113.6C 44.0746 112.141 44.0316 110.823 43.2 108.8z"/>
<path style="stroke:none; fill:#943428" d="M 41.6 112L 42.4 112.8L 41.6 112z"/>
<path style="stroke:none; fill:#ef8577" d="M 151.2 117.6L 151.2 120.8L 152 120.8C 151.861 119.452 151.746 118.805 151.2 117.6z"/>
<path style="stroke:none; fill:#662e28" d="M 155.2 117.6L 155.2 120.8L 156 120.8C 155.861 119.452 155.746 118.805 155.2 117.6M 76 120L 76 120.8L 92.8 120.8C 88.0328 118.8 81.1488 120 76 120z"/>
<path style="stroke:none; fill:#a95d53" d="M 152 120.8L 152 121.6L 156 121.6C 154.585 120.977 153.571 120.87 152 120.8z"/>
<path style="stroke:none; fill:#96533d" d="M 26.4 124L 26.4 124.8L 62.4 124.8C 53.039 120.872 36.5935 124 26.4 124z"/>
<path style="stroke:none; fill:#a95d53" d="M 93.6 124L 94.4 124.8L 93.6 124z"/>
<path style="stroke:none; fill:#96533d" d="M 75.2 124.8L 76 125.6L 75.2 124.8M 92.8 124.8L 93.6 125.6L 92.8 124.8M 76 125.6L 76 126.4L 92.8 126.4C 88.0328 124.4 81.1488 125.6 76 125.6M 104 125.6L 104 126.4L 134.4 126.4C 126.371 123.031 112.729 125.6 104 125.6z"/>
<path style="stroke:none; fill:#52130d" d="M 134.4 125.6L 134.4 126.4L 137.6 126.4C 136.395 125.854 135.748 125.739 134.4 125.6z"/>
<path style="stroke:none; fill:#96533d" d="M 137.6 125.6L 137.6 126.4L 140.8 126.4C 139.595 125.854 138.948 125.739 137.6 125.6z"/>
<path style="stroke:none; fill:#a95d53" d="M 135.2 126.4L 135.2 127.2L 137.6 127.2C 136.602 126.652 136.362 126.601 135.2 126.4z"/>
</g>
</svg>